{
.appVersion = "3221";
.formatVersion = 3;
DisplayStrings = (
NNNNONOOOO,
"Ṹ",
"HH
OO
HO
OH
nn
oo
on
oi
ni
ss
oa
aa
nioid TEHOODIV 
nirrid 
nittid 
nioid nionid 
niffid 
nillid 
nieeid 
nieeid TEHOODIV 
nibbid 
nioid nibbid 
TEHZZDIV 
TEHRRDIV 
nikkid 
TEHSTDIV 
TEHLLDIV 
Raphael
nielid nioid 
TEHFNDIV 
TEHRSDIV 
TEHSTDIV TEHRSDIV 
TEHATDIV 
niquid 
nifid 
TEHODIV 
TEHSDIV 
niwtid 
LAWYER
OCTOBER
TEHLADIV 
-J
Yuider 
Stider 
TEHMYDIV 
nifbid 
nidjid 
TEHLADIV TEHLLDIV 
niraid 
TEHRADIV 
Quider 
\"I
t:
Asider 
niyyid 
Otider 
TEHGLDIV 
TEHGLDIV 
nifsid 
TEHLPDIV 
TEHKKDIV 
nijkid 
TEHMODIV 
nifjid 
nitjid 
TEHAADIV 
nijtid 
TEHITDIV 
Beider 
V.
t.
T.
n.
o.
nitsid 
nirxid 
K,
nistid 
TEHIDIV 
Ajider 
Crider 
-n
\"V
Exider 
TEHGSDIV 
TEHMEDIV 
TEHIYDIV 
niafid 
TEHLYDIV 
G.
TEHNNDIV 
D'
TEHUFDIV 
Dyider 
Ilider 
nicyid 
Nuider 
(I
TEHXVDIV 
Hyider 
TEHUCDIV 
TEHUCDIV 
TEHAJDIV 
Koider 
TEHRODIV 
Hgider 
nixyid 
(H)
8778
1776
Agbalumo
L-
t!
nirɴid ",
"",
"Ł",
"VṾ"
);
classes = (
{
automatic = 1;

glyphs = (
{
glyphname = A;
lastChange = "2023-10-03 14:54:26 +0000";
layers = (
{
associatedMasterId = "CDFC0212-EC7A-4000-86F8-EA19B9E6D7F9";
background = {
shapes = (
{
closed = 1;
nodes = (
(429.352,391.082,o),
(464.851,473.816,o),
(424.461,541.132,c),
(424.461,547.75,l),
(504.976,638.191,o),
(618.432,615.029,o),
(618.432,491.5,cs),
(618.432,357.86,o),
(506.094,108.642,o),
(594.01,108.642,cs),
(606.474,108.642,o),
(621.083,119.552,o),
(634.976,138.971,c),
(651.52,108.088,l),
(631.165,45.827,o),
(578.609,0.286,o),
(512.956,0.284,cs),
(391.404,0.279,o),
(386.44,137.185,o),
(401.43,225.876,cs)
);
},
{
closed = 1;
nodes = (
(432.402,385.112,l),
(408.521,442.347,o),
(380.886,474.827,o),
(354.358,474.802,cs),
(298.122,474.747,o),
(246.856,373.563,o),
(246.855,287.918,cs),
(246.853,190.699,o),
(271.504,142.543,o),
(303.891,142.523,cs),
(344.689,142.498,o),
(397.763,218.856,o),
(429.301,369.746,c),
(444.314,280.141,l),
(404.72,100.82,o),
(304.119,0.488,o),
(216.575,0.475,cs),
(-18.098,0.44,o),
(33.845,594.869,o),
(298.982,594.779,cs),
(370.562,594.754,o),
(437.524,527.247,o),
(464.167,394.721,c)
);
}
);
};
layerId = "0B432945-C56A-4376-8BFA-35F7A6BB2AF0";
name = "May 29, 23, 14:00";
shapes = (
{
closed = 1;
nodes = (
(214.008,6.333,o),
(215,70,c),
(190.23,206.236,o),
(328.56,444.539,o),
(358,578,c),
(342,574,l),
(371,493,o),
(353,373,o),
(365,249,cs),
(374,153,o),
(394,1,o),
(530,1,cs),
(604,1,o),
(655.924,67,o),
(655.924,147.446,c),
(648.927,151.554,l),
(643.346,139.835,o),
(624.71,123,o),
(604,123,cs),
(506,123,o),
(557,468,o),
(517,612,cs),
(496,690,o),
(431,725,o),
(359,725,cs),
(273,725,o),
(177,674,o),
(141.208,579.042,c),
(146.792,575.958,l),
(199.499,657.609,o),
(252,655.414,o),
(252,591,cs),
(252,448.43,o),
(-1,244.32,o),
(-1,82,cs),
(-1,-54.662,o)
);
},
{
closed = 1;
nodes = (
(156,171,o),
(206,178,o),
(274,178,cs),
(325,178,o),
(385,174,o),
(461,165,c),
(470,188,o),
(477,218,o),
(477,244,cs),
(477,255,o),
(475,265,o),
(472,275,c),
(432,278,o),
(395,281,o),
(362,281,cs),
(247,281,o),
(171,255,o),
(105,169,c),
(107,159,l)
);
}
);
width = 654;
},
{
associatedMasterId = "CDFC0212-EC7A-4000-86F8-EA19B9E6D7F9";
layerId = "D09D3544-12B8-4094-AFA1-DC7397ED62D6";
name = "May 31, 23, 15:10";
shapes = (
{
closed = 1;
nodes = (
(655.542,67.572,o),
(569.616,-0.626,o),
(493.936,-0.626,cs),
(434.382,-0.626,o),
(381.172,41.605,o),
(381.172,140.204,cs),
(381.172,272.88,o),
(451.241,479.013,o),
(460.28,669.931,c),
(460.28,728.083,o),
(647.664,764.288,o),
(680.338,657.292,c),
(682.899,648.677,l),
(641.831,536.872,o),
(584.94,346.626,o),
(584.94,210.493,cs),
(584.94,133.356,o),
(620.577,131.388,o),
(646.282,180.943,c),
(655.542,174.961,l)
);
},
{
closed = 1;
nodes = (
(438.347,369.692,l),
(427.617,526.085,o),
(391.221,587.061,o),
(351.644,587.061,cs),
(234.867,587.061,o),
(185.179,152.711,o),
(269.164,152.711,cs),
(322.596,152.711,o),
(413.238,330.054,o),
(445.548,541.353,c),
(458.458,495.121,l),
(423.875,143.976,o),
(299.746,-0.338,o),
(193.484,-0.338,cs),
(-77.101,-0.338,o),
(6.941,725.213,o),
(308.092,725.213,cs),
(404.553,725.213,o),
(483.324,626.404,o),
(459.268,397.656,c)
);
}
);
width = 692.9;
},
{
associatedMasterId = "CDFC0212-EC7A-4000-86F8-EA19B9E6D7F9";
layerId = "DE1B4749-7773-433B-9287-6E198DA16196";
name = "May 31, 23, 15:12";
shapes = (
{
closed = 1;
nodes = (
(646.282,180.943,l),
(610.577,131.388,o),
(574.94,133.356,o),
(574.94,210.493,cs),
(574.94,346.626,o),
(631.831,536.872,o),
(672.899,648.677,c),
(670.338,657.292,ls),
(637.664,764.288,o),
(460.28,728.083,o),
(460.28,669.931,cs),
(458.92,641.198,o),
(456.177,612.119,o),
(452.499,583,c),
(429.326,680.922,o),
(372.674,725.213,o),
(308.092,725.213,cs),
(6.941,725.213,o),
(-77.101,-0.338,o),
(193.484,-0.338,cs),
(265.011,-0.338,o),
(344.634,65.05,o),
(399.592,214.891,c),
(385.458,204.555,l),
(382.748,181.652,o),
(381.172,160.102,o),
(381.172,140.204,cs),
(381.172,41.605,o),
(434.382,-0.626,o),
(493.936,-0.626,cs),
(569.616,-0.626,o),
(655.542,67.572,o),
(655.542,174.961,c)
);
},
{
closed = 1;
nodes = (
(185.179,152.711,o),
(234.867,587.061,o),
(351.644,587.061,cs),
(388.839,587.061,o),
(423.224,533.205,o),
(436.135,396.904,c),
(438.194,498.85,l),
(401.107,306.801,o),
(318.97,152.711,o),
(269.164,152.711,cs)
);
}
);
width = 692.9;
},
{
anchors = (
{
name = bottom;
pos = (313,0);
},
{
name = ogonek;
pos = (652,10);
},
{
name = top;
pos = (376,720);
}
);
associatedMasterId = "CDFC0212-EC7A-4000-86F8-EA19B9E6D7F9";
layerId = "6657FC31-F0BF-4B48-AEBF-3ED75BEDCEAD";
name = "Aug 6, 23, 20:49";
shapes = (
{
closed = 1;
nodes = (
(135,-4,o),
(188,21,o),
(188,52,cs),
(188,231,o),
(346,437,o),
(346,608,c),
(330,604,l),
(421,375,o),
(289,-4,o),
(518,-4,cs),
(592,-4,o),
(644,62,o),
(644,142,c),
(637,147,l),
(632,135,o),
(613,118,o),
(592,118,cs),
(494,118,o),
(545,468,o),
(505,612,cs),
(484,690,o),
(419,725,o),
(347,725,cs),
(268,725,o),
(168,671,o),
(168,550,c),
(179,548,l),
(191,620,o),
(240,637,o),
(240,591,cs),
(240,448,o),
(8,245,o),
(8,61,cs),
(8,14,o),
(46,-4,o),
(87,-4,cs)
);
},
{
closed = 1;
nodes = (
(144,171,o),
(194,178,o),
(262,178,cs),
(313,178,o),
(373,174,o),
(449,165,c),
(458,188,o),
(465,218,o),
(465,244,cs),
(465,255,o),
(463,265,o),
(460,275,c),
(420,278,o),
(383,281,o),
(350,281,cs),
(235,281,o),
(159,255,o),
(93,169,c),
(95,159,l)
);
}
);
width = 670;
},
{
anchors = (
{
name = bottom;
pos = (313,0);
},
{
name = ogonek;
pos = (582,10);
},
{
name = top;
pos = (355,710);
}
);
associatedMasterId = "CDFC0212-EC7A-4000-86F8-EA19B9E6D7F9";
layerId = "7193D366-7A36-42A2-96FC-466626F38255";
name = "Aug 29, 23, 12:45";
shapes = (
{
closed = 1;
nodes = (
(136,-4,o),
(184,21,o),
(184,52,cs),
(184,102,o),
(196,154,o),
(213,206,c),
(181,175,l),
(205,176,o),
(232,178,o),
(262,178,cs),
(295,178,o),
(335,176,o),
(377,173,c),
(391,49,o),
(456,-4,o),
(517,-4,cs),
(582,-4,o),
(644,53,o),
(644,146,c),
(637,151,l),
(632,139,o),
(613,122,o),
(592,122,cs),
(494,122,o),
(545,468,o),
(507,605,cs),
(484,689,o),
(418,726,o),
(350,726,cs),
(261,726,o),
(168,664,o),
(168,550,c),
(179,548,l),
(187,593,o),
(209,617,o),
(224,617,cs),
(233,617,o),
(240,608,o),
(240,591,cs),
(240,448,o),
(8,245,o),
(8,61,cs),
(8,14,o),
(46,-4,o),
(87,-4,cs)
);
},
{
closed = 1;
nodes = (
(271,360,o),
(334,483,o),
(342,591,c),
(336,592,l),
(373,491,o),
(368,363,o),
(373,252,c),
(415,281,l),
(350,281,ls),
(298,281,o),
(254,276,o),
(216,262,c),
(226,241,l)
);
}
);
width = 670;
},
{
anchors = (
{
name = bottom;
pos = (307,0);
},
{
name = ogonek;
pos = (576,10);
},
{
name = top;
pos = (349,710);
}
);
associatedMasterId = "CDFC0212-EC7A-4000-86F8-EA19B9E6D7F9";
layerId = "2CC3B44F-1CC5-4B38-A51E-40E7AB6A49B0";
name = "Aug 30, 23, 21:36";
shapes = (
{
closed = 1;
nodes = (
(130,-4,o),
(178,21,o),
(178,52,cs),
(178,92,o),
(186,134,o),
(198,176,c),
(216,177,o),
(235,178,o),
(256,178,cs),
(289,178,o),
(329,176,o),
(371,173,c),
(385,49,o),
(450,-4,o),
(511,-4,cs),
(576,-4,o),
(638,53,o),
(638,146,c),
(631,151,l),
(626,139,o),
(607,122,o),
(586,122,cs),
(488,122,o),
(539,468,o),
(501,605,cs),
(478,689,o),
(412,726,o),
(344,726,cs),
(255,726,o),
(162,664,o),
(162,550,c),
(173,548,l),
(181,593,o),
(203,617,o),
(218,617,cs),
(227,617,o),
(234,608,o),
(234,591,cs),
(234,448,o),
(2,245,o),
(2,61,cs),
(2,14,o),
(40,-4,o),
(81,-4,cs)
);
},
{
closed = 1;
nodes = (
(273,374,o),
(324,482,o),
(335,578,c),
(364,488,o),
(363,380,o),
(366,281,c),
(344,281,ls),
(301,281,o),
(264,278,o),
(231,269,c)
);
}
);
width = 664;
},
{
anchors = (
{
name = bottom;
pos = (319,0);
},
{
name = ogonek;
pos = (658,10);
},
{
name = top;
pos = (361,710);
}
);
layerId = "CDFC0212-EC7A-4000-86F8-EA19B9E6D7F9";
name = Regular;
shapes = (
{
closed = 1;
nodes = (
(142,-4,o),
(190,21,o),
(190,52,c),
(190,92,o),
(198,134,o),
(210,176,c),
(228,177,o),
(247,178,o),
(269,178,cs),
(301,178,o),
(341,176,o),
(383,173,c),
(397,49,o),
(462,-4,o),
(524,-4,cs),
(588,-4,o),
(650,53,o),
(650,146,c),
(643,151,l),
(638,139,o),
(619,122,o),
(597,122,cs),
(573,122,o),
(558,144,o),
(549,178,cs),
(534,230,o),
(533,311,o),
(529,473,cs),
(529,473,o),
(527,554,o),
(513,605,cs),
(490,689,o),
(424,726,o),
(356,726,cs),
(267,726,o),
(174,664,o),
(174,550,c),
(185,548,l),
(193,593,o),
(215,617,o),
(230,617,cs),
(239,617,o),
(246,608,o),
(246,584,cs),
(246,448,o),
(14,245,o),
(14,61,c),
(14,14,o),
(52,-4,o),
(93,-4,cs)
);
},
{
closed = 1;
nodes = (
(285,374,o),
(336,482,o),
(347,578,c),
(376,488,o),
(375,380,o),
(378,281,c),
(356,281,ls),
(313,281,o),
(276,278,o),
(243,269,c)
);
}
);
width = 670;
},
{
anchors = (
{
name = bottom;
pos = (319,0);
},
{
name = ogonek;
pos = (658,10);
},
{
name = top;
pos = (361,710);
}
);
associatedMasterId = "CDFC0212-EC7A-4000-86F8-EA19B9E6D7F9";
layerId = "B8C71020-F4FF-416E-96AC-6A7A1BE52436";
name = "Oct 1, 23, 18:36";
shapes = (
{
closed = 1;
nodes = (
(142,-4,o),
(190,21,o),
(190,52,cs),
(190,92,o),
(198,134,o),
(210,176,c),
(228,177,o),
(247,178,o),
(268,178,cs),
(301,178,o),
(341,176,o),
(383,173,c),
(397,49,o),
(462,-4,o),
(523,-4,cs),
(588,-4,o),
(650,53,o),
(650,146,c),
(643,151,l),
(638,139,o),
(619,122,o),
(598,122,cs),
(500,122,o),
(551,468,o),
(513,605,cs),
(490,689,o),
(424,726,o),
(356,726,cs),
(267,726,o),
(174,664,o),
(174,550,c),
(185,548,l),
(193,593,o),
(215,617,o),
(230,617,cs),
(239,617,o),
(246,608,o),
(246,591,cs),
(246,448,o),
(14,245,o),
(14,61,cs),
(14,14,o),
(52,-4,o),
(93,-4,cs)
);
},
{
closed = 1;
nodes = (
(285,374,o),
(336,482,o),
(347,578,c),
(376,488,o),
(375,380,o),
(378,281,c),
(356,281,ls),
(313,281,o),
(276,278,o),
(243,269,c)
);
}
);
width = 670;
}
);
unicode = 65;
userData = {
KernOnName = A;
};
},
{
glyphname = "Alpha-latin";
lastChange = "2023-09-30 23:36:37 +0000";
layers = (
{
associatedMasterId = "CDFC0212-EC7A-4000-86F8-EA19B9E6D7F9";
layerId = "CBBBEBDA-6FA6-43D2-BBC9-0CCA7C8170F3";
name = "Sep 21, 23, 20:26";
shapes = (
{
closed = 1;
nodes = (
(343,-4,o),
(530,188,o),
(574,525,c),
(538,541,l),
(497,332,o),
(362,123,o),
(287,123,cs),
(173,123,o),
(243,604,o),
(393,604,cs),
(453,604,o),
(517,527,o),
(527,370,c),
(551,368,l),
(596,590,o),
(484,724,o),
(350,724,cs),
(38,724,o),
(-60,-4,o),
(206,-4,cs)
);
},
{
closed = 1;
nodes = (
(625,145,o),
(699,514,o),
(765,658,c),
(729,765,o),
(580,729,o),
(571,671,c),
(468,177,l),
(429,-3,o),
(550,-56,o),
(645,36,c)
);
}
);
width = 749;
},
{
layerId = "CDFC0212-EC7A-4000-86F8-EA19B9E6D7F9";
name = Regular;
shapes = (
{
closed = 1;
nodes = (
(561,-8,o),
(594,6,o),
(625,36,c),
(623,48,o),
(622,64,o),
(622,83,cs),
(622,101,o),
(623,123,o),
(625,149,cs),
(639,304,o),
(694,547,o),
(745,658,c),
(728,708,o),
(687,727,o),
(647,727,cs),
(601,727,o),
(556,702,o),
(551,671,c),
(531,576,l),
(505,671,o),
(438,724,o),
(348,724,cs),
(150,724,o),
(35,465,o),
(35,256,cs),
(35,115,o),
(87,-4,o),
(203,-4,cs),
(290,-4,o),
(381,63,o),
(450,186,c),
(448,177,ls),
(443,153,o),
(441,132,o),
(441,114,cs),
(441,33,o),
(480,-8,o),
(531,-8,cs)
);
},
{
closed = 1;
nodes = (
(234,123,o),
(213,186,o),
(213,266,cs),
(213,409,o),
(280,606,o),
(389,606,cs),
(444,606,o),
(480,556,o),
(497,455,c),
(448,278,o),
(357,123,o),
(282,123,cs)
);
}
);
width = 719;
},
{
associatedMasterId = "CDFC0212-EC7A-4000-86F8-EA19B9E6D7F9";
layerId = "4694C165-3720-4609-B9A9-52BECE541890";
name = "Sep 21, 23, 20:26";
shapes = (
{
closed = 1;
nodes = (
(343,-4,o),
(530,188,o),
(574,525,c),
(538,541,l),
(497,332,o),
(362,123,o),
(293,123,cs),
(143,123,o),
(213,604,o),
(405,604,cs),
(453,604,o),
(517,527,o),
(527,370,c),
(551,368,l),
(596,590,o),
(484,724,o),
(366,724,cs),
(8,724,o),
(-90,-4,o),
(211,-4,cs)
);
},
{
closed = 1;
nodes = (
(625,145,o),
(699,514,o),
(765,658,c),
(729,765,o),
(580,729,o),
(571,671,c),
(468,177,l),
(429,-3,o),
(550,-56,o),
(645,36,c)
);
}
);
width = 749;
},
{
associatedMasterId = "CDFC0212-EC7A-4000-86F8-EA19B9E6D7F9";
layerId = "95C7C34E-7583-4DE6-A319-4DDAA0CA3FC0";
name = "Sep 21, 23, 20:27";
shapes = (
{
closed = 1;
nodes = (
(370,-4,o),
(530,188,o),
(574,525,c),
(538,541,l),
(497,332,o),
(389,123,o),
(320,123,cs),
(170,123,o),
(240,604,o),
(432,604,cs),
(480,604,o),
(517,527,o),
(527,370,c),
(551,368,l),
(596,590,o),
(511,724,o),
(393,724,cs),
(35,724,o),
(-63,-4,o),
(238,-4,cs)
);
},
{
closed = 1;
nodes = (
(625,145,o),
(699,514,o),
(765,658,c),
(729,765,o),
(580,729,o),
(571,671,c),
(468,177,l),
(429,-3,o),
(550,-56,o),
(645,36,c)
);
}
);
width = 749;
},
{
associatedMasterId = "CDFC0212-EC7A-4000-86F8-EA19B9E6D7F9";
layerId = "96C701BC-3D1C-43BD-81EE-AA559AA98759";
name = "Sep 30, 23, 19:36";
shapes = (
{
closed = 1;
nodes = (
(350,-4,o),
(510,188,o),
(554,525,c),
(518,541,l),
(477,332,o),
(369,123,o),
(282,123,cs),
(150,123,o),
(218,606,o),
(389,606,cs),
(458,606,o),
(497,527,o),
(507,370,c),
(531,368,l),
(576,590,o),
(491,724,o),
(348,724,cs),
(15,724,o),
(-83,-4,o),
(203,-4,cs)
);
},
{
closed = 1;
nodes = (
(605,145,o),
(679,514,o),
(745,658,c),
(709,765,o),
(560,729,o),
(551,671,c),
(448,177,l),
(409,-3,o),
(530,-56,o),
(625,36,c)
);
}
);
width = 719;
}
);
unicode = 11373;
},
{
glyphname = Astroke;
lastChange = "2023-09-30 23:18:12 +0000";
layers = (
{
anchors = (
{
name = bottom;
pos = (319,0);
},
{
name = ogonek;
pos = (658,10);
},
{
name = top;
pos = (361,710);
}
);
layerId = "CDFC0212-EC7A-4000-86F8-EA19B9E6D7F9";
shapes = (
{
closed = 1;
nodes = (
(269,-142,o),
(283,-137,o),
(296,-125,c),
(319,-29,o),
(349,73,o),
(381,173,c),
(383,173,l),
(397,49,o),
(462,-4,o),
(524,-4,cs),
(588,-4,o),
(650,53,o),
(650,146,c),
(643,151,l),
(638,139,o),
(619,122,o),
(597,122,cs),
(506,122,o),
(545,424,o),
(519,576,c),
(553,666,o),
(579,733,o),
(589,758,c),
(590,792,o),
(564,812,o),
(537,812,cs),
(514,812,o),
(490,797,o),
(482,765,cs),
(479,756,o),
(470,729,o),
(458,692,c),
(429,715,o),
(393,726,o),
(356,726,cs),
(267,726,o),
(174,664,o),
(174,550,c),
(185,548,l),
(193,593,o),
(215,617,o),
(230,617,cs),
(239,617,o),
(246,608,o),
(246,584,cs),
(246,448,o),
(14,245,o),
(14,61,c),
(14,14,o),
(52,-4,o),
(93,-4,cs),
(142,-4,o),
(190,21,o),
(190,52,c),
(190,92,o),
(198,134,o),
(210,176,c),
(228,177,o),
(247,178,o),
(268,178,cs),
(288,178,l),
(263,98,o),
(240,22,o),
(230,-12,cs),
(217,-58,o),
(215,-72,o),
(215,-84,cs),
(215,-122,o),
(234,-142,o),
(257,-142,cs)
);
},
{
closed = 1;
nodes = (
(285,374,o),
(336,482,o),
(347,578,c),
(361,534,o),
(368,485,o),
(372,435,c),
(355,385,o),
(338,333,o),
(321,280,c),
(293,279,o),
(267,275,o),
(243,269,c)
);
}
);
width = 670;
},
{
associatedMasterId = "CDFC0212-EC7A-4000-86F8-EA19B9E6D7F9";
layerId = "7B038569-5317-4166-84FA-0130BAC1FD0B";
name = "Sep 30, 23, 19:14";
shapes = (
{
ref = A;
},
{
alignment = -1;
pos = (231,0);
ref = capslash_part.;
}
);
width = 670;
}
);
metricLeft = A;
metricRight = A;
unicode = 570;
},
{
color = 0;
glyphname = AE;
lastChange = "2023-10-02 01:44:12 +0000";
layers = (
{
associatedMasterId = "CDFC0212-EC7A-4000-86F8-EA19B9E6D7F9";
layerId = "E1735C6C-006F-4784-848E-962571FE9FC7";
name = "Jul 14, 23, 20:59";
shapes = (
{
closed = 1;
nodes = (
(602,-65,o),
(357,-64,o),
(380,170,c),
(471,671,l),
(479,729,o),
(620,765,o),
(651,658,c),
(536,365,o),
(503,9,o),
(630,190,c),
(639,184,l)
);
},
{
closed = 1;
nodes = (
(433,370,l),
(425,527,o),
(387,589,o),
(345,589,cs),
(216,589,o),
(156,156,o),
(249,156,cs),
(308,156,o),
(407,332,o),
(443,541,c),
(474,495,l),
(436,158,o),
(292,-4,o),
(178,-4,cs),
(-82,-4,o),
(3,724,o),
(312,724,cs),
(413,724,o),
(493,620,o),
(454,398,c)
);
},
{
closed = 1;
nodes = (
(703,282,o),
(790,445,o),
(790,522,cs),
(790,661,o),
(600,639,o),
(576,348,cs),
(556,107,o),
(766,42,o),
(923,281,c),
(933,274,l),
(910,95,o),
(768,-7,o),
(636,-7,cs),
(513,-7,o),
(398,83,o),
(398,283,cs),
(398,488,o),
(531,726,o),
(774,726,cs),
(877,726,o),
(961,665,o),
(961,537,cs),
(961,321,o),
(707,164,o),
(506,385,c),
(504,447,l)
);
}
);
width = 1298;
},
{
anchors = (
{
name = bottom;
pos = (483,0);
},
{
name = top;
pos = (546,720);
}
);
associatedMasterId = "CDFC0212-EC7A-4000-86F8-EA19B9E6D7F9";
layerId = "9AF09F10-EC5F-4D8E-B667-F22FCD6F94DE";
name = "Sep 15, 23, 18:28";
shapes = (
{
closed = 1;
nodes = (
(789,-7,o),
(931,95,o),
(954,274,c),
(944,281,l),
(787,42,o),
(577,107,o),
(597,348,cs),
(621,639,o),
(811,661,o),
(811,522,cs),
(811,445,o),
(724,282,o),
(525,447,c),
(527,385,l),
(726,166,o),
(984,314,o),
(984,552,cs),
(984,645,o),
(937,726,o),
(839,726,cs),
(667,726,o),
(568,536,o),
(419,283,c),
(419,83,o),
(534,-7,o),
(657,-7,cs)
);
},
{
closed = 1;
nodes = (
(307,-4,o),
(458,166,o),
(495,495,c),
(464,541,l),
(428,332,o),
(319,156,o),
(260,156,cs),
(167,156,o),
(227,589,o),
(356,589,cs),
(398,589,o),
(446,527,o),
(454,370,c),
(475,398,l),
(513,617,o),
(429,722,o),
(325,722,cs),
(11,722,o),
(-68,-4,o),
(188,-4,cs)
);
},
{
closed = 1;
nodes = (
(592,434,l),
(609,506,o),
(633,584,o),
(662,658,c),
(631,765,o),
(490,729,o),
(482,671,c),
(421,282,l)
);
}
);
width = 1009;
},
{
anchors = (
{
name = bottom;
pos = (483,0);
},
{
name = top;
pos = (546,720);
}
);
associatedMasterId = "CDFC0212-EC7A-4000-86F8-EA19B9E6D7F9";
layerId = "4BEDCE24-E3C5-4422-86CF-BFCACF48A5AB";
name = "Sep 15, 23, 18:34";
shapes = (
{
closed = 1;
nodes = (
(789,-7,o),
(931,95,o),
(954,274,c),
(944,281,l),
(787,42,o),
(562,107,o),
(582,348,cs),
(606,639,o),
(811,640,o),
(811,521,cs),
(811,444,o),
(724,282,o),
(525,447,c),
(527,385,l),
(726,166,o),
(984,314,o),
(984,552,cs),
(984,645,o),
(937,726,o),
(839,726,cs),
(667,726,o),
(562,628,o),
(419,283,c),
(419,83,o),
(534,-7,o),
(657,-7,cs)
);
},
{
closed = 1;
nodes = (
(307,-4,o),
(468,166,o),
(505,495,c),
(464,541,l),
(428,332,o),
(319,156,o),
(260,156,cs),
(169,156,o),
(229,589,o),
(356,589,cs),
(398,589,o),
(446,527,o),
(454,370,c),
(475,398,l),
(513,617,o),
(429,722,o),
(325,722,cs),
(11,722,o),
(-68,-4,o),
(188,-4,cs)
);
},
{
closed = 1;
nodes = (
(562,434,l),
(579,506,o),
(603,584,o),
(632,658,c),
(606,752,o),
(490,729,o),
(482,671,c),
(421,282,l)
);
}
);
width = 1009;
},
{
anchors = (
{
name = bottom;
pos = (483,0);
},
{
name = top;
pos = (546,720);
}
);
associatedMasterId = "CDFC0212-EC7A-4000-86F8-EA19B9E6D7F9";
layerId = "064BCB85-7C4A-4E8C-9F74-D28B0BF86B01";
name = "Sep 15, 23, 18:35";
shapes = (
{
closed = 1;
nodes = (
(789,-7,o),
(931,95,o),
(954,274,c),
(944,281,l),
(787,42,o),
(562,107,o),
(582,348,cs),
(606,639,o),
(811,640,o),
(811,521,cs),
(811,444,o),
(724,282,o),
(525,447,c),
(527,385,l),
(726,166,o),
(984,314,o),
(984,552,cs),
(984,806,o),
(538,836,o),
(419,283,c),
(419,83,o),
(534,-7,o),
(657,-7,cs)
);
},
{
closed = 1;
nodes = (
(307,-4,o),
(468,166,o),
(505,495,c),
(464,541,l),
(428,332,o),
(319,156,o),
(260,156,cs),
(169,156,o),
(229,589,o),
(356,589,cs),
(398,589,o),
(446,527,o),
(454,370,c),
(475,398,l),
(513,617,o),
(429,722,o),
(325,722,cs),
(11,722,o),
(-68,-4,o),
(188,-4,cs)
);
},
{
closed = 1;
nodes = (
(562,434,l),
(579,506,o),
(603,584,o),
(632,658,c),
(606,752,o),
(490,729,o),
(482,671,c),
(421,282,l)
);
}
);
width = 1009;
},
{
anchors = (
{
name = bottom;
pos = (483,0);
},
{
name = top;
pos = (546,720);
}
);
associatedMasterId = "CDFC0212-EC7A-4000-86F8-EA19B9E6D7F9";
layerId = "B41B4C16-AB2C-4D3F-A05F-0B0DFD0FCCBF";
name = "Sep 15, 23, 18:39";
shapes = (
{
closed = 1;
nodes = (
(769,-7,o),
(911,95,o),
(934,274,c),
(924,281,l),
(767,42,o),
(562,107,o),
(582,348,cs),
(606,639,o),
(791,640,o),
(791,521,cs),
(791,444,o),
(704,292,o),
(525,457,c),
(527,385,l),
(706,166,o),
(964,314,o),
(964,552,cs),
(964,806,o),
(538,836,o),
(419,283,c),
(419,83,o),
(514,-7,o),
(637,-7,cs)
);
},
{
closed = 1;
nodes = (
(307,-4,o),
(468,166,o),
(505,495,c),
(464,541,l),
(428,332,o),
(319,156,o),
(260,156,cs),
(167,156,o),
(227,589,o),
(356,589,cs),
(398,589,o),
(446,527,o),
(454,370,c),
(475,398,l),
(513,617,o),
(429,722,o),
(325,722,cs),
(11,722,o),
(-68,-4,o),
(188,-4,cs)
);
},
{
closed = 1;
nodes = (
(562,434,l),
(579,506,o),
(603,584,o),
(632,658,c),
(606,752,o),
(490,729,o),
(482,671,c),
(421,282,l)
);
}
);
width = 1009;
},
{
anchors = (
{
name = bottom;
pos = (454,0);
},
{
name = top;
pos = (557,720);
}
);
layerId = "CDFC0212-EC7A-4000-86F8-EA19B9E6D7F9";
name = Regular;
shapes = (
{
closed = 1;
nodes = (
(765,-7,o),
(887,95,o),
(930,244,c),
(920,251,l),
(859,172,o),
(782,132,o),
(716,132,cs),
(636,132,o),
(572,192,o),
(572,327,cs),
(572,335,l),
(620,296,o),
(671,278,o),
(720,278,cs),
(845,278,o),
(953,396,o),
(953,540,cs),
(953,660,o),
(878,727,o),
(782,727,cs),
(733,727,o),
(678,709,o),
(625,669,c),
(628,679,l),
(615,724,o),
(582,743,o),
(549,743,cs),
(515,743,o),
(482,722,o),
(478,692,cs),
(462,584,l),
(436,669,o),
(382,722,o),
(306,722,cs),
(137,722,o),
(27,456,o),
(27,246,cs),
(27,109,o),
(74,-4,o),
(173,-4,cs),
(251,-4,o),
(350,67,o),
(420,207,c),
(442,60,o),
(527,-7,o),
(634,-7,cs)
);
},
{
closed = 1;
nodes = (
(215,146,o),
(202,191,o),
(202,252,cs),
(202,386,o),
(264,599,o),
(353,599,cs),
(395,599,o),
(427,552,o),
(442,452,c),
(431,379,l),
(380,246,o),
(305,146,o),
(251,146,cs)
);
},
{
closed = 1;
nodes = (
(642,383,o),
(613,391,o),
(580,411,c),
(605,541,o),
(671,595,o),
(722,595,cs),
(758,595,o),
(787,567,o),
(787,522,cs),
(787,469,o),
(747,383,o),
(667,383,cs)
);
}
);
width = 951;
},
{
anchors = (
{
name = bottom;
pos = (483,0);
},
{
name = top;
pos = (546,720);
}
);
associatedMasterId = "CDFC0212-EC7A-4000-86F8-EA19B9E6D7F9";
layerId = "658D7D9E-CA85-40AE-A707-5327BC07F3BA";
name = "Sep 15, 23, 18:40";
shapes = (
{
closed = 1;
nodes = (
(769,-7,o),
(911,95,o),
(934,274,c),
(924,281,l),
(767,42,o),
(562,107,o),
(582,348,cs),
(606,639,o),
(791,640,o),
(791,521,cs),
(791,444,o),
(704,292,o),
(525,457,c),
(527,385,l),
(706,166,o),
(964,314,o),
(964,552,cs),
(964,806,o),
(538,836,o),
(419,283,c),
(419,83,o),
(514,-7,o),
(637,-7,cs)
);
},
{
closed = 1;
nodes = (
(307,-4,o),
(468,166,o),
(505,495,c),
(464,541,l),
(428,332,o),
(319,156,o),
(260,156,cs),
(167,156,o),
(227,589,o),
(356,589,cs),
(398,589,o),
(446,527,o),
(454,370,c),
(475,398,l),
(513,617,o),
(429,722,o),
(325,722,cs),
(11,722,o),
(-68,-4,o),
(188,-4,cs)
);
},
{
closed = 1;
nodes = (
(562,434,l),
(579,506,o),
(603,584,o),
(632,658,c),
(606,752,o),
(490,729,o),
(482,671,c),
(421,282,l)
);
}
);
width = 1009;
},
{
anchors = (
{
name = bottom;
pos = (474,0);
},
{
name = top;
pos = (537,720);
}
);
associatedMasterId = "CDFC0212-EC7A-4000-86F8-EA19B9E6D7F9";
layerId = "A8174BC6-AE44-4F8A-8631-38C6A2527D5D";
name = "Sep 15, 23, 18:55";
shapes = (
{
closed = 1;
nodes = (
(760,-7,o),
(882,95,o),
(925,244,c),
(915,251,l),
(773,68,o),
(548,92,o),
(568,348,cs),
(591,639,o),
(782,640,o),
(782,521,cs),
(782,444,o),
(695,292,o),
(516,457,c),
(518,385,l),
(697,166,o),
(948,314,o),
(948,552,cs),
(948,806,o),
(529,836,o),
(410,283,c),
(410,83,o),
(505,-7,o),
(628,-7,cs)
);
},
{
closed = 1;
nodes = (
(289,-4,o),
(459,166,o),
(496,495,c),
(455,541,l),
(419,332,o),
(310,156,o),
(251,156,cs),
(158,156,o),
(218,599,o),
(347,599,cs),
(389,599,o),
(437,527,o),
(445,370,c),
(466,398,l),
(504,617,o),
(426,722,o),
(322,722,cs),
(8,722,o),
(-86,-4,o),
(170,-4,cs)
);
},
{
closed = 1;
nodes = (
(553,434,l),
(570,506,o),
(594,584,o),
(623,658,c),
(597,752,o),
(481,729,o),
(473,671,c),
(412,282,l)
);
}
);
width = 946;
},
{
anchors = (
{
name = bottom;
pos = (474,0);
},
{
name = top;
pos = (537,720);
}
);
associatedMasterId = "CDFC0212-EC7A-4000-86F8-EA19B9E6D7F9";
layerId = "65198174-9EA6-4C5E-B271-3057665AE159";
name = "Sep 15, 23, 19:11";
shapes = (
{
closed = 1;
nodes = (
(760,-7,o),
(882,95,o),
(925,244,c),
(915,251,l),
(773,68,o),
(548,92,o),
(568,348,cs),
(591,639,o),
(782,640,o),
(782,521,cs),
(782,444,o),
(695,292,o),
(516,457,c),
(518,385,l),
(697,166,o),
(948,314,o),
(948,552,cs),
(948,806,o),
(529,836,o),
(410,283,c),
(410,83,o),
(505,-7,o),
(628,-7,cs)
);
},
{
closed = 1;
nodes = (
(289,-4,o),
(459,166,o),
(496,495,c),
(455,541,l),
(419,332,o),
(310,156,o),
(251,156,cs),
(158,156,o),
(218,599,o),
(347,599,cs),
(389,599,o),
(437,527,o),
(445,370,c),
(466,398,l),
(504,617,o),
(426,722,o),
(322,722,cs),
(8,722,o),
(-86,-4,o),
(170,-4,cs)
);
},
{
closed = 1;
nodes = (
(553,434,l),
(570,506,o),
(594,584,o),
(623,679,c),
(597,773,o),
(481,750,o),
(473,692,c),
(412,282,l)
);
}
);
width = 946;
},
{
anchors = (
{
name = bottom;
pos = (454,0);
},
{
name = top;
pos = (517,720);
}
);
associatedMasterId = "CDFC0212-EC7A-4000-86F8-EA19B9E6D7F9";
layerId = "5BA91C1E-7B7F-433D-ABEA-7726A99B14D4";
name = "Sep 30, 23, 16:40";
shapes = (
{
closed = 1;
nodes = (
(765,-7,o),
(887,95,o),
(930,244,c),
(920,251,l),
(778,68,o),
(553,92,o),
(573,348,cs),
(596,639,o),
(787,640,o),
(787,521,cs),
(787,444,o),
(700,292,o),
(521,457,c),
(523,385,l),
(702,166,o),
(953,314,o),
(953,552,cs),
(953,806,o),
(534,836,o),
(415,283,c),
(415,83,o),
(510,-7,o),
(633,-7,cs)
);
},
{
closed = 1;
nodes = (
(294,-4,o),
(464,166,o),
(501,495,c),
(460,541,l),
(424,332,o),
(303,156,o),
(244,156,cs),
(151,156,o),
(223,599,o),
(352,599,cs),
(405,599,o),
(442,527,o),
(450,370,c),
(471,398,l),
(509,617,o),
(431,722,o),
(327,722,cs),
(13,722,o),
(-81,-4,o),
(175,-4,cs)
);
},
{
closed = 1;
nodes = (
(558,434,l),
(575,506,o),
(599,584,o),
(628,679,c),
(602,773,o),
(486,750,o),
(478,692,c),
(417,282,l)
);
}
);
width = 951;
},
{
anchors = (
{
name = bottom;
pos = (454,0);
},
{
name = top;
pos = (557,720);
}
);
associatedMasterId = "CDFC0212-EC7A-4000-86F8-EA19B9E6D7F9";
layerId = "D36DCFBA-2D4B-4A10-B238-897772C0C70A";
name = "Oct 1, 23, 21:43";
shapes = (
{
closed = 1;
nodes = (
(765,-7,o),
(887,95,o),
(930,244,c),
(920,251,l),
(859,172,o),
(782,132,o),
(716,132,cs),
(636,132,o),
(572,192,o),
(572,327,cs),
(572,327,o),
(572,337,o),
(573,355,cs),
(587,526,o),
(664,595,o),
(721,595,cs),
(758,595,o),
(787,567,o),
(787,522,cs),
(787,469,o),
(747,383,o),
(667,383,cs),
(628,383,o),
(579,403,o),
(521,457,c),
(523,385,l),
(584,310,o),
(654,278,o),
(719,278,cs),
(845,278,o),
(953,396,o),
(953,540,cs),
(953,660,o),
(878,727,o),
(782,727,cs),
(652,727,o),
(484,602,o),
(415,283,c),
(415,83,o),
(510,-7,o),
(634,-7,cs)
);
},
{
closed = 1;
nodes = (
(294,-4,o),
(464,166,o),
(501,495,c),
(480,553,l),
(444,344,o),
(327,146,o),
(251,146,cs),
(215,146,o),
(202,191,o),
(202,252,cs),
(202,386,o),
(264,599,o),
(353,599,cs),
(405,599,o),
(442,527,o),
(450,370,c),
(471,368,l),
(477,401,o),
(479,433,o),
(479,460,cs),
(479,613,o),
(414,722,o),
(306,722,cs),
(137,722,o),
(27,456,o),
(27,246,cs),
(27,109,o),
(74,-4,o),
(173,-4,cs)
);
},
{
closed = 1;
nodes = (
(558,434,l),
(575,506,o),
(599,584,o),
(628,679,c),
(615,724,o),
(582,743,o),
(549,743,cs),
(515,743,o),
(482,722,o),
(478,692,c),
(417,282,l)
);
}
);
width = 951;
}
);
unicode = 198;
},
{
glyphname = B;
lastChange = "2023-10-03 14:56:14 +0000";
layers = (
{
associatedMasterId = "CDFC0212-EC7A-4000-86F8-EA19B9E6D7F9";
layerId = "C8823E7E-9E14-4AA0-AA18-54484AD878E0";
name = "Jun 2, 23, 16:10";
shapes = (
{
closed = 1;
nodes = (
(96.26,610.64,l),
(74.83,487.475,o),
(31.995,229.626,o),
(26.551,73.687,cs),
(23.554,-12.164,o),
(151.708,-21.544,o),
(210.347,36.417,c),
(212.919,263.456,o),
(247.194,487.344,o),
(274.525,596.66,c)
);
},
{
closed = 1;
nodes = (
(527.077,722.27,l),
(508.552,724.413,o),
(488.774,725.544,o),
(467.736,725.544,cs),
(251.966,725.544,o),
(241.838,483.438,o),
(420.804,483.438,c),
(414.126,604.84,o),
(473.557,635.978,o),
(515.738,612.722,c)
);
},
{
closed = 0;
nodes = (
(240.439,716.65,l),
(219.47,718.689,o),
(199.837,720.07,o),
(182.469,720.07,cs),
(52.597,720.07,o),
(30.004,663.355,o),
(30.004,537.358,c),
(89.583,582.294,o),
(155.957,588.235,o),
(222.17,580.385,c)
);
},
{
closed = 1;
nodes = (
(515.738,612.722,l),
(566.082,584.967,o),
(591.855,479.732,o),
(451.348,357.999,c),
(539.969,383.238,l),
(326.284,607.942,o),
(254.063,86.945,o),
(569.976,357.6,c),
(487.66,313.805,l),
(582.575,242.302,o),
(467.66,41.523,o),
(281.948,137.292,c),
(266.527,113.233,l),
(329.476,11.764,o),
(396.929,-6.519,o),
(458.33,-6.519,cs),
(570.196,-6.519,o),
(682.641,53.519,o),
(705.691,173.495,cs),
(722.304,259.974,o),
(680.877,353.309,o),
(577.756,383.238,c),
(575.727,358.478,l),
(800.845,452.882,o),
(792.663,691.547,o),
(527.077,722.27,c)
);
}
);
width = 726.5;
},
{
associatedMasterId = "CDFC0212-EC7A-4000-86F8-EA19B9E6D7F9";
layerId = "794BD1F5-24DC-40AC-B10B-74D31111BBF1";
name = "Jun 2, 23, 16:24";
shapes = (
{
closed = 1;
nodes = (
(131.91,600.533,l),
(151.079,413.834,o),
(60.35,282.479,o),
(56.415,96.464,cs),
(54.052,-15.22,o),
(178.208,-24.544,o),
(236.847,33.417,c),
(218.255,244.951,o),
(319.444,418.723,o),
(266.808,594.334,c)
);
},
{
closed = 1;
nodes = (
(575.733,725.07,o),
(152.469,725.07,cs),
(22.597,725.07,o),
(0.004,663.355,o),
(0.004,537.358,c),
(305.777,663.355,o),
(565.806,500,o),
(367.803,342.855,c),
(389.328,296.316,l),
(736.235,452.085,o)
);
}
);
width = 726.5;
},
{
associatedMasterId = "CDFC0212-EC7A-4000-86F8-EA19B9E6D7F9";
layerId = "9A0FA740-3943-4AEE-A6D6-CF0EDB634533";
name = "Jun 2, 23, 16:26";
shapes = (
{
closed = 1;
nodes = (
(131.91,600.533,l),
(151.079,413.834,o),
(60.35,282.479,o),
(56.415,96.464,cs),
(54.052,-15.22,o),
(178.208,-24.544,o),
(236.847,33.417,c),
(218.255,244.951,o),
(319.444,418.723,o),
(266.808,594.334,c)
);
},
{
closed = 1;
nodes = (
(575.733,725.07,o),
(152.469,725.07,cs),
(22.597,725.07,o),
(0.004,663.355,o),
(0.004,537.358,c),
(305.777,663.355,o),
(565.806,500,o),
(367.803,342.855,c),
(389.328,296.316,l),
(736.235,452.085,o)
);
},
{
closed = 1;
nodes = (
(444.766,333.774,l),
(258.531,531.833,o),
(244.766,150.579,o),
(438.449,315.012,c),
(438.449,333.774,l)
);
},
{
closed = 0;
nodes = (
(360.655,284.823,l),
(504.602,192.213,o),
(325.433,-7.816,o),
(130.085,272.75,c),
(122.305,268.202,l),
(128.459,91.38,o),
(269.57,2.111,o),
(401.896,2.111,cs),
(508.304,2.111,o),
(602.305,59.22,o),
(598.334,173.343,cs),
(595.471,255.603,o),
(500.585,320.11,o),
(396.035,348.579,c)
);
}
);
width = 726.5;
},
{
associatedMasterId = "CDFC0212-EC7A-4000-86F8-EA19B9E6D7F9";
background = {
shapes = (
{
closed = 0;
nodes = (
(360.655,284.823,l)
);
},
{
closed = 0;
nodes = (
(396.035,348.579,l)
);
}
);
};
layerId = "D5F48D4B-B797-40F1-8943-F28BA5757759";
name = "Jun 2, 23, 16:41";
shapes = (
{
closed = 1;
nodes = (
(131.91,614.533,l),
(151.079,403.834,o),
(60.35,282.479,o),
(56.415,96.464,cs),
(54.052,-15.22,o),
(178.208,-24.544,o),
(236.847,33.417,c),
(218.255,244.951,o),
(319.444,408.723,o),
(266.808,608.334,c)
);
},
{
closed = 1;
nodes = (
(741.456,529.505,o),
(575.733,725.07,o),
(251.935,725.07,cs),
(22.597,725.07,o),
(0.004,630.355,o),
(0.004,504.358,c),
(76.315,570.427,o),
(156.932,599.43,o),
(237.09,599.43,c),
(412.531,642.011,o),
(472.502,510.414,o),
(380.729,380.322,c),
(419.328,316.316,l)
);
},
{
closed = 1;
nodes = (
(474.708,380.391,l),
(337.196,463.062,o),
(297.584,391.036,o),
(313.643,334.09,cs),
(328.875,280.074,o),
(394.199,239.627,o),
(473.572,357.654,c),
(467.716,378.42,l)
);
},
{
closed = 1;
nodes = (
(390.655,304.823,l),
(500.772,271.343,o),
(455.041,50.687,o),
(309.123,97.804,c),
(301.994,83.523,l),
(322.23,22.134,o),
(387.556,2.111,o),
(431.896,2.111,cs),
(538.304,2.111,o),
(602.305,59.22,o),
(598.334,173.343,cs),
(595.471,255.603,o),
(530.585,340.11,o),
(426.035,368.579,c)
);
}
);
width = 726.5;
},
{
associatedMasterId = "CDFC0212-EC7A-4000-86F8-EA19B9E6D7F9";
background = {
shapes = (
{
closed = 0;
nodes = (
(362.635,284.823,l)
);
},
{
closed = 0;
nodes = (
(398.015,348.579,l)
);
}
);
};
layerId = "0D6A3645-8777-4ED1-B92D-5465EA2D428C";
name = "Jun 5, 23, 10:32";
shapes = (
{
closed = 1;
nodes = (
(75.394,551.075,o),
(101.704,586.713,o),
(147.977,601.771,c),
(145.918,410.204,o),
(57.409,272.93,o),
(44.435,96.464,cs),
(36.224,-15.22,o),
(159.891,-24.544,o),
(221.565,33.417,c),
(214.089,243.87,o),
(323.168,426.048,o),
(284.738,624.278,c),
(477.603,624.278,o),
(468.058,404.466,o),
(238.043,412.611,c),
(234.712,349,l),
(518.481,380.611,o),
(415.411,0.839,o),
(139.402,150.804,c),
(136.216,105.523,l),
(529.765,-292.663,o),
(826.645,503.438,o),
(270.17,389.263,c),
(266.928,363.122,l),
(647.837,379.907,o),
(699.36,734.07,o),
(275.344,734.07,cs),
(44.005,734.07,o),
(8.981,651.011,o),
(39.331,503.358,c)
);
}
);
width = 616.79;
},
{
associatedMasterId = "CDFC0212-EC7A-4000-86F8-EA19B9E6D7F9";
background = {
shapes = (
{
closed = 0;
nodes = (
(382.965,284.823,l)
);
},
{
closed = 0;
nodes = (
(418.345,348.579,l)
);
}
);
};
layerId = "D1BCD4B8-AD8A-4BC2-813F-AE0DE1AD065D";
name = "Jun 5, 23, 10:34";
shapes = (
{
closed = 1;
nodes = (
(82.182,551.075,o),
(109.533,586.713,o),
(157.635,601.771,c),
(155.496,410.204,o),
(63.486,272.93,o),
(49.999,96.464,cs),
(41.463,-15.22,o),
(170.021,-24.544,o),
(234.134,33.417,c),
(226.362,243.87,o),
(339.755,426.048,o),
(299.805,624.278,c),
(500.297,624.278,o),
(490.375,404.466,o),
(251.264,412.611,c),
(247.801,349,l),
(542.792,380.611,o),
(435.646,0.839,o),
(148.722,150.804,c),
(145.41,105.523,l),
(554.523,-292.663,o),
(863.143,503.438,o),
(284.661,389.263,c),
(281.291,363.122,l),
(677.263,379.907,o),
(730.824,734.07,o),
(290.039,734.07,cs),
(49.552,734.07,o),
(13.143,651.011,o),
(44.693,503.358,c)
);
}
);
width = 633.41;
},
{
associatedMasterId = "CDFC0212-EC7A-4000-86F8-EA19B9E6D7F9";
background = {
shapes = (
{
closed = 0;
nodes = (
(382.965,284.823,l)
);
},
{
closed = 0;
nodes = (
(418.345,348.579,l)
);
}
);
};
layerId = "1CA12A05-2F3C-4DD1-A9A2-8307501BED9F";
name = "Jun 5, 23, 11:10";
shapes = (
{
closed = 1;
nodes = (
(82.182,551.075,o),
(109.533,586.713,o),
(157.635,601.771,c),
(155.496,410.204,o),
(63.486,272.93,o),
(49.999,96.464,cs),
(41.463,-15.22,o),
(170.021,-24.544,o),
(234.134,33.417,c),
(226.362,243.87,o),
(339.755,426.048,o),
(299.805,624.278,c),
(500.297,624.278,o),
(490.375,414.466,o),
(251.264,422.611,c),
(247.801,339,l),
(542.792,370.611,o),
(435.646,0.839,o),
(148.722,150.804,c),
(145.41,105.523,l),
(554.523,-292.663,o),
(863.143,503.438,o),
(284.661,389.263,c),
(281.291,363.122,l),
(677.263,379.907,o),
(730.824,734.07,o),
(290.039,734.07,cs),
(49.552,734.07,o),
(13.143,651.011,o),
(44.693,503.358,c)
);
}
);
width = 633.41;
},
{
associatedMasterId = "CDFC0212-EC7A-4000-86F8-EA19B9E6D7F9";
background = {
shapes = (
{
closed = 0;
nodes = (
(426.855,284.823,l)
);
},
{
closed = 0;
nodes = (
(462.235,348.579,l)
);
}
);
};
layerId = "3526CE33-6C11-48C5-8C84-9E4C37CF616B";
name = "Jun 5, 23, 12:04";
shapes = (
{
closed = 1;
nodes = (
(83.385,548.756,o),
(125.24,578.56,o),
(145.891,578.56,cs),
(195.694,578.56,o),
(55.037,266.664,o),
(42.524,96.464,cs),
(34.313,-15.22,o),
(157.981,-24.544,o),
(219.655,33.417,c),
(212.443,236.41,o),
(313.715,404.629,o),
(284.997,601.348,c),
(416.17,601.554,o),
(492.206,530.414,o),
(433.266,415.315,c),
(264.427,515.712,o),
(284.997,195.798,o),
(439.896,317.093,c),
(516.063,261.765,o),
(458.446,64.389,o),
(260.512,64.389,c),
(257.893,59.337,l),
(474.42,-172.918,o),
(834.581,283.074,o),
(458.446,391.264,c),
(463.212,347.477,l),
(916.9,673.414,o),
(10.062,939.718,o),
(43.119,475.335,c)
);
}
);
width = 637.76;
},
{
anchors = (
{
name = bottom;
pos = (303,0);
},
{
name = center;
pos = (334,355);
},
{
name = top;
pos = (365,710);
}
);
background = {
shapes = (
{
closed = 0;
nodes = (
(502,285,l)
);
},
{
closed = 0;
nodes = (
(538,349,l)
);
}
);
};
layerId = "CDFC0212-EC7A-4000-86F8-EA19B9E6D7F9";
name = Regular;
shapes = (
{
closed = 1;
nodes = (
(486,-7,o),
(627,127,o),
(627,241,cs),
(627,306,o),
(582,364,o),
(482,387,c),
(565,425,o),
(609,482,o),
(609,549,cs),
(609,664,o),
(482,730,o),
(349,730,cs),
(204,730,o),
(51,651,o),
(51,475,c),
(57,472,l),
(98,540,o),
(138,580,o),
(163,580,cs),
(175,580,o),
(180,570,o),
(180,554,cs),
(180,478,o),
(74,257,o),
(62,163,cs),
(61,158,o),
(60,149,o),
(60,138,cs),
(60,35,o),
(145,-7,o),
(267,-7,cs)
);
},
{
closed = 1;
nodes = (
(248,115,o),
(234,133,o),
(234,161,cs),
(234,209,o),
(277,287,o),
(285,350,c),
(393,339,o),
(442,287,o),
(442,234,cs),
(442,175,o),
(381,115,o),
(295,115,cs)
);
},
{
closed = 1;
nodes = (
(313,457,o),
(318,495,o),
(318,534,cs),
(318,558,o),
(316,583,o),
(311,609,c),
(414,609,o),
(460,567,o),
(460,522,cs),
(460,470,o),
(398,415,o),
(306,417,c)
);
}
);
width = 658;
},
{
anchors = (
{
name = bottom;
pos = (306,0);
},
{
name = center;
pos = (337,355);
},
{
name = top;
pos = (368,710);
}
);
associatedMasterId = "CDFC0212-EC7A-4000-86F8-EA19B9E6D7F9";
background = {
shapes = (
{
closed = 0;
nodes = (
(505,285,l)
);
},
{
closed = 0;
nodes = (
(541,349,l)
);
}
);
};
layerId = "85763F5B-DE5C-4797-9F91-1BC6FD54B790";
name = "Aug 29, 23, 12:45";
shapes = (
{
closed = 1;
nodes = (
(489,-7,o),
(630,127,o),
(630,241,cs),
(630,313,o),
(574,377,o),
(448,394,c),
(449,373,l),
(556,410,o),
(612,474,o),
(612,544,cs),
(612,664,o),
(485,730,o),
(352,730,cs),
(207,730,o),
(54,651,o),
(54,475,c),
(60,472,l),
(101,540,o),
(141,580,o),
(166,580,cs),
(178,580,o),
(183,570,o),
(183,554,cs),
(183,478,o),
(77,257,o),
(65,167,cs),
(64,158,o),
(63,149,o),
(63,141,cs),
(63,35,o),
(148,-7,o),
(253,-7,cs)
);
},
{
closed = 1;
nodes = (
(251,115,o),
(237,133,o),
(237,160,cs),
(237,209,o),
(280,287,o),
(288,350,c),
(396,339,o),
(445,287,o),
(445,234,cs),
(445,175,o),
(384,115,o),
(293,115,cs)
);
},
{
closed = 1;
nodes = (
(316,457,o),
(321,495,o),
(321,533,cs),
(321,558,o),
(319,583,o),
(314,609,c),
(417,609,o),
(463,567,o),
(463,522,cs),
(463,470,o),
(401,415,o),
(309,417,c)
);
}
);
width = 656;
},
{
anchors = (
{
name = bottom;
pos = (303,0);
},
{
name = center;
pos = (334,355);
},
{
name = top;
pos = (365,710);
}
);
associatedMasterId = "CDFC0212-EC7A-4000-86F8-EA19B9E6D7F9";
background = {
shapes = (
{
closed = 0;
nodes = (
(502,285,l)
);
},
{
closed = 0;
nodes = (
(538,349,l)
);
}
);
};
layerId = "91BB6000-F76E-48E8-B5A3-BB0B79D3D77B";
name = "Oct 1, 23, 18:36";
shapes = (
{
closed = 1;
nodes = (
(486,-7,o),
(627,127,o),
(627,241,cs),
(627,306,o),
(582,364,o),
(482,387,c),
(565,425,o),
(609,482,o),
(609,549,cs),
(609,664,o),
(482,730,o),
(349,730,cs),
(204,730,o),
(51,651,o),
(51,475,c),
(57,472,l),
(98,540,o),
(138,580,o),
(163,580,cs),
(175,580,o),
(180,570,o),
(180,554,cs),
(180,478,o),
(74,257,o),
(62,163,cs),
(61,158,o),
(60,149,o),
(60,138,cs),
(60,35,o),
(145,-7,o),
(267,-7,cs)
);
},
{
closed = 1;
nodes = (
(248,115,o),
(234,133,o),
(234,161,cs),
(234,209,o),
(277,287,o),
(285,350,c),
(393,339,o),
(442,287,o),
(442,234,cs),
(442,175,o),
(381,115,o),
(295,115,cs)
);
},
{
closed = 1;
nodes = (
(313,457,o),
(318,495,o),
(318,534,cs),
(318,558,o),
(316,583,o),
(311,609,c),
(414,609,o),
(460,567,o),
(460,522,cs),
(460,470,o),
(398,415,o),
(306,417,c)
);
}
);
width = 658;
}
);
unicode = 66;
userData = {
KernOnName = B;
};
},
{
glyphname = "Beta-latin";
lastChange = "2023-09-30 23:36:19 +0000";
layers = (
{
layerId = "CDFC0212-EC7A-4000-86F8-EA19B9E6D7F9";
shapes = (
{
closed = 1;
nodes = (
(138,-187,o),
(170,-175,o),
(193,-152,c),
(191,-135,o),
(190,-118,o),
(190,-106,cs),
(190,-74,o),
(197,-31,o),
(207,20,c),
(261,1,o),
(309,-7,o),
(353,-7,cs),
(528,-7,o),
(622,123,o),
(622,231,cs),
(622,306,o),
(577,364,o),
(477,387,c),
(560,425,o),
(604,482,o),
(604,549,cs),
(604,664,o),
(477,730,o),
(344,730,cs),
(199,730,o),
(46,651,o),
(46,475,c),
(52,472,l),
(93,540,o),
(133,580,o),
(158,580,cs),
(170,580,o),
(175,570,o),
(175,556,cs),
(175,521,o),
(146,423,o),
(96,251,cs),
(71,165,o),
(22,-4,o),
(21,-83,cs),
(21,-157,o),
(63,-187,o),
(109,-187,cs)
);
},
{
closed = 1;
nodes = (
(282,112,o),
(255,115,o),
(229,121,c),
(251,217,o),
(275,313,o),
(280,350,c),
(388,339,o),
(437,287,o),
(437,217,cs),
(437,141,o),
(379,112,o),
(306,112,cs)
);
},
{
closed = 1;
nodes = (
(308,457,o),
(313,495,o),
(313,534,cs),
(313,558,o),
(311,583,o),
(306,609,c),
(409,609,o),
(455,567,o),
(455,522,cs),
(455,470,o),
(393,415,o),
(301,417,c)
);
}
);
width = 649;
},
{
associatedMasterId = "CDFC0212-EC7A-4000-86F8-EA19B9E6D7F9";
layerId = "1CC40D76-45F0-4D2B-B91E-E3699A814776";
name = "Sep 14, 23, 20:51";
shapes = (
{
closed = 1;
nodes = (
(486,-7,o),
(627,127,o),
(627,241,cs),
(627,306,o),
(582,364,o),
(482,387,c),
(565,425,o),
(609,482,o),
(609,549,cs),
(609,664,o),
(482,730,o),
(349,730,cs),
(204,730,o),
(51,651,o),
(51,475,c),
(57,472,l),
(98,540,o),
(138,580,o),
(163,580,cs),
(175,580,o),
(180,570,o),
(180,554,cs),
(180,478,o),
(74,257,o),
(62,163,cs),
(61,158,o),
(60,149,o),
(60,138,cs),
(60,35,o),
(145,-7,o),
(267,-7,cs)
);
},
{
closed = 1;
nodes = (
(248,115,o),
(234,133,o),
(234,161,cs),
(234,209,o),
(277,287,o),
(285,350,c),
(393,339,o),
(442,287,o),
(442,234,cs),
(442,175,o),
(381,115,o),
(295,115,cs)
);
},
{
closed = 1;
nodes = (
(313,457,o),
(318,495,o),
(318,534,cs),
(318,558,o),
(316,583,o),
(311,609,c),
(414,609,o),
(460,567,o),
(460,522,cs),
(460,470,o),
(398,415,o),
(306,417,c)
);
},
{
closed = 0;
nodes = (
(138,417,ls),
(138,339,o),
(27,105,o),
(26,-27,cs),
(26,-109,o),
(68,-139,o),
(114,-139,cs),
(143,-139,o),
(175,-127,o),
(198,-104,c),
(196,-87,o),
(195,-70,o),
(195,-52,cs),
(195,18,o),
(211,85,o),
(228,151,c)
);
}
);
width = 600;
},
{
associatedMasterId = "CDFC0212-EC7A-4000-86F8-EA19B9E6D7F9";
layerId = "797FA2CA-720E-48F9-80A6-F3BFE85EC202";
name = "Sep 14, 23, 20:53";
shapes = (
{
closed = 1;
nodes = (
(313,457,o),
(318,495,o),
(318,534,cs),
(318,558,o),
(316,583,o),
(311,609,c),
(414,609,o),
(460,567,o),
(460,522,cs),
(460,470,o),
(398,415,o),
(306,417,c)
);
},
{
closed = 1;
nodes = (
(203,-4,o),
(234,-7,o),
(267,-7,cs),
(486,-7,o),
(627,127,o),
(627,241,cs),
(627,306,o),
(582,364,o),
(482,387,c),
(565,425,o),
(609,482,o),
(609,549,cs),
(609,664,o),
(482,730,o),
(349,730,cs),
(204,730,o),
(51,651,o),
(51,475,c),
(57,472,l),
(98,540,o),
(138,580,o),
(163,580,cs),
(175,580,o),
(180,570,o),
(180,554,cs),
(180,476,o),
(27,105,o),
(26,-27,cs),
(26,-109,o),
(68,-139,o),
(114,-139,cs),
(143,-139,o),
(175,-127,o),
(198,-104,c),
(196,-87,o),
(195,-70,o),
(195,-52,cs),
(195,36,o),
(276,278,o),
(285,350,c),
(393,339,o),
(442,287,o),
(442,234,cs),
(442,175,o),
(381,115,o),
(295,115,cs),
(248,115,o),
(217,138,o),
(217,166,c),
(177,84,l)
);
}
);
width = 600;
},
{
associatedMasterId = "CDFC0212-EC7A-4000-86F8-EA19B9E6D7F9";
layerId = "356402A5-91C1-456C-90E0-7E8FAD89C735";
name = "Sep 30, 23, 19:36";
shapes = (
{
closed = 1;
nodes = (
(138,-187,o),
(170,-175,o),
(193,-152,c),
(191,-135,o),
(190,-118,o),
(190,-100,cs),
(190,-12,o),
(271,278,o),
(280,350,c),
(388,339,o),
(437,287,o),
(437,217,cs),
(437,141,o),
(379,112,o),
(306,112,cs),
(243,112,o),
(169,134,o),
(112,166,c),
(72,84,l),
(181,19,o),
(275,-7,o),
(353,-7,cs),
(528,-7,o),
(622,123,o),
(622,232,cs),
(622,306,o),
(577,364,o),
(477,387,c),
(560,425,o),
(604,482,o),
(604,549,cs),
(604,664,o),
(477,730,o),
(344,730,cs),
(199,730,o),
(46,651,o),
(46,475,c),
(52,472,l),
(93,540,o),
(133,580,o),
(158,580,cs),
(170,580,o),
(175,570,o),
(175,554,cs),
(175,476,o),
(22,57,o),
(21,-75,cs),
(21,-157,o),
(63,-187,o),
(109,-187,cs)
);
},
{
closed = 1;
nodes = (
(308,457,o),
(313,495,o),
(313,534,cs),
(313,558,o),
(311,583,o),
(306,609,c),
(409,609,o),
(455,567,o),
(455,522,cs),
(455,470,o),
(393,415,o),
(301,417,c)
);
}
);
width = 649;
}
);
unicode = 42932;
},
{
glyphname = Bhook;
lastChange = "2023-10-02 01:45:08 +0000";
layers = (
{
layerId = "CDFC0212-EC7A-4000-86F8-EA19B9E6D7F9";
shapes = (
{
closed = 1;
nodes = (
(549,-7,o),
(690,127,o),
(690,241,cs),
(690,306,o),
(645,364,o),
(545,387,c),
(628,425,o),
(672,483,o),
(672,546,cs),
(672,665,o),
(516,730,o),
(358,730,cs),
(197,730,o),
(34,662,o),
(34,527,cs),
(34,462,o),
(72,432,o),
(114,432,cs),
(140,432,o),
(167,443,o),
(187,466,c),
(173,479,o),
(167,494,o),
(167,509,cs),
(167,545,o),
(199,580,o),
(224,580,cs),
(238,580,o),
(243,570,o),
(243,554,cs),
(243,514,o),
(214,434,o),
(189,367,cs),
(157,280,o),
(131,207,o),
(125,164,cs),
(124,158,o),
(123,149,o),
(123,138,cs),
(123,35,o),
(208,-7,o),
(330,-7,cs)
);
},
{
closed = 1;
nodes = (
(311,115,o),
(297,133,o),
(297,161,cs),
(297,186,o),
(309,219,o),
(323,258,cs),
(332,286,o),
(344,320,o),
(348,350,c),
(456,339,o),
(505,287,o),
(505,234,cs),
(505,175,o),
(444,115,o),
(358,115,cs)
);
},
{
closed = 1;
nodes = (
(376,457,o),
(381,495,o),
(381,534,cs),
(381,558,o),
(379,583,o),
(374,609,c),
(477,609,o),
(523,567,o),
(523,522,cs),
(523,470,o),
(461,415,o),
(369,417,c)
);
}
);
width = 722;
},
{
associatedMasterId = "CDFC0212-EC7A-4000-86F8-EA19B9E6D7F9";
layerId = "06FFCD2F-349C-417F-B172-1EC0E78AA9A8";
name = "Sep 29, 23, 18:08";
shapes = (
{
closed = 1;
nodes = (
(698,-7,o),
(832,350,o),
(508,394,c),
(509,373,l),
(616,410,o),
(672,474,o),
(672,544,cs),
(672,789,o),
(34,805,o),
(34,515,cs),
(34,429,o),
(133,405,o),
(187,466,c),
(140,508,o),
(187,580,o),
(226,580,cs),
(294,580,o),
(139,277,o),
(125,167,cs),
(110,42,o),
(200,-7,o),
(313,-7,cs)
);
},
{
closed = 1;
nodes = (
(236,115,o),
(335,251,o),
(348,350,c),
(456,339,o),
(505,287,o),
(505,234,cs),
(505,175,o),
(444,115,o),
(353,115,cs)
);
},
{
closed = 1;
nodes = (
(381,484,o),
(387,543,o),
(374,609,c),
(477,609,o),
(523,567,o),
(523,522,cs),
(523,470,o),
(461,415,o),
(369,417,c)
);
}
);
width = 722;
}
);
unicode = 385;
},
{
glyphname = Bstroke;
lastChange = "2023-09-30 23:19:23 +0000";
layers = (
{
anchors = (
{
name = bottom;
pos = (335,0);
},
{
name = center;
pos = (366,355);
},
{
name = top;
pos = (397,710);
}
);
layerId = "CDFC0212-EC7A-4000-86F8-EA19B9E6D7F9";
shapes = (
{
closed = 1;
nodes = (
(518,-7,o),
(659,127,o),
(659,241,cs),
(659,306,o),
(614,364,o),
(514,387,c),
(597,425,o),
(641,482,o),
(641,549,cs),
(641,664,o),
(514,730,o),
(381,730,cs),
(236,730,o),
(83,651,o),
(83,475,c),
(89,472,l),
(130,540,o),
(170,580,o),
(195,580,cs),
(207,580,o),
(212,570,o),
(212,554,cs),
(212,500,o),
(159,375,o),
(124,273,c),
(96,274,o),
(67,277,o),
(37,280,c),
(22,268,o),
(14,252,o),
(14,236,cs),
(14,211,o),
(35,186,o),
(79,183,cs),
(86,183,o),
(92,182,o),
(97,182,c),
(94,163,ls),
(93,158,o),
(92,149,o),
(92,138,cs),
(92,35,o),
(177,-7,o),
(299,-7,cs)
);
},
{
closed = 1;
nodes = (
(280,115,o),
(266,133,o),
(266,166,cs),
(266,166,o),
(266,171,o),
(267,176,c),
(312,176,ls),
(379,176,o),
(403,205,o),
(403,235,cs),
(403,251,o),
(396,268,o),
(385,280,c),
(358,276,o),
(328,273,o),
(296,271,c),
(305,298,o),
(314,325,o),
(317,350,c),
(425,339,o),
(474,287,o),
(474,234,cs),
(474,175,o),
(413,115,o),
(327,115,cs)
);
},
{
closed = 1;
nodes = (
(345,457,o),
(350,495,o),
(350,534,cs),
(350,558,o),
(348,583,o),
(343,609,c),
(446,609,o),
(492,567,o),
(492,522,cs),
(492,470,o),
(430,415,o),
(338,417,c)
);
}
);
width = 690;
},
{
associatedMasterId = "CDFC0212-EC7A-4000-86F8-EA19B9E6D7F9";
layerId = "A8547FDF-0F60-411A-A589-959DE3A2D2C3";
name = "Sep 30, 23, 19:14";
shapes = (
{
pos = (32,0);
ref = B;
},
{
closed = 1;
nodes = (
(-4,249,o),
(8,188,o),
(81,183,cs),
(146,178,o),
(266,176,o),
(312,176,cs),
(416,176,o),
(416,245,o),
(385,280,c),
(295,266,o),
(177,265,o),
(37,280,c)
);
}
);
width = 690;
}
);
unicode = 579;
},
{
glyphname = C;
lastChange = "2023-10-03 15:00:07 +0000";
layers = (
{
associatedMasterId = "CDFC0212-EC7A-4000-86F8-EA19B9E6D7F9";
layerId = "F7C9CAA9-9311-4D4C-9208-5B20728C26C0";
name = "May 29, 23, 14:09";
shapes = (
{
closed = 1;
nodes = (
(356,-4,o),
(521,75,o),
(521,272,c),
(509,278,l),
(483,204,o),
(417,163,o),
(354,163,cs),
(280,163,o),
(212,219,o),
(212,348,cs),
(212,523,o),
(280,608,o),
(330,608,cs),
(366,608,o),
(378,575,o),
(378,536,cs),
(378,509,o),
(373,480,o),
(367,451,c),
(477,451,o),
(535,522,o),
(535,592,cs),
(535,659,o),
(479,724,o),
(366,724,cs),
(136,724,o),
(6,500,o),
(6,297,cs),
(6,139,o),
(87,-5,o),
(265,-4,cs)
);
}
);
width = 600;
},
{
anchors = (
{
name = bottom;
pos = (282,0);
},
{
name = top;
pos = (344,710);
}
);
associatedMasterId = "CDFC0212-EC7A-4000-86F8-EA19B9E6D7F9";
layerId = "B09A6429-C210-48E2-BCEA-AD63309DA322";
name = "Aug 29, 23, 12:45";
shapes = (
{
closed = 1;
nodes = (
(398,-6,o),
(529,91,o),
(556,272,c),
(543,278,l),
(473,181,o),
(399,133,o),
(340,133,cs),
(264,133,o),
(210,210,o),
(215,358,cs),
(219,475,o),
(285,601,o),
(363,601,cs),
(396,601,o),
(421,586,o),
(419,536,cs),
(418,513,o),
(412,483,o),
(398,444,c),
(523,444,o),
(585,510,o),
(587,579,cs),
(591,672,o),
(509,725,o),
(408,725,cs),
(251,725,o),
(46,599,o),
(36,308,cs),
(31,144,o),
(107,-6,o),
(274,-6,cs)
);
}
);
width = 607;
},
{
anchors = (
{
name = bottom;
pos = (285,0);
},
{
name = top;
pos = (388,710);
}
);
layerId = "CDFC0212-EC7A-4000-86F8-EA19B9E6D7F9";
name = Regular;
shapes = (
{
closed = 1;
nodes = (
(401,-6,o),
(532,91,o),
(559,272,c),
(546,278,l),
(476,181,o),
(402,133,o),
(343,133,cs),
(267,133,o),
(213,210,o),
(218,358,cs),
(222,475,o),
(288,601,o),
(366,601,cs),
(398,601,o),
(422,587,o),
(422,541,cs),
(422,518,o),
(416,486,o),
(401,444,c),
(530,444,o),
(590,514,o),
(590,585,cs),
(590,675,o),
(510,726,o),
(411,726,cs),
(254,726,o),
(49,599,o),
(39,308,cs),
(34,144,o),
(110,-6,o),
(277,-6,cs)
);
}
);
width = 599;
},
{
anchors = (
{
name = bottom;
pos = (284,0);
},
{
name = top;
pos = (387,710);
}
);
associatedMasterId = "CDFC0212-EC7A-4000-86F8-EA19B9E6D7F9";
layerId = "CDA9BAE7-0631-4C4C-B3FE-1005E21EB2C4";
name = "Oct 1, 23, 18:37";
shapes = (
{
closed = 1;
nodes = (
(400,-6,o),
(531,91,o),
(558,272,c),
(545,278,l),
(475,181,o),
(401,133,o),
(342,133,cs),
(266,133,o),
(212,210,o),
(217,358,cs),
(221,475,o),
(287,601,o),
(365,601,cs),
(397,601,o),
(421,587,o),
(421,541,cs),
(421,518,o),
(415,486,o),
(400,444,c),
(529,444,o),
(589,514,o),
(589,585,cs),
(589,675,o),
(509,726,o),
(410,726,cs),
(253,726,o),
(48,599,o),
(38,308,cs),
(33,144,o),
(109,-6,o),
(276,-6,cs)
);
}
);
width = 598;
}
);
metricLeft = "=O";
unicode = 67;
userData = {
KernOnName = C;
};
},
{
glyphname = Chook;
lastChange = "2023-09-29 21:43:42 +0000";
layers = (
{
layerId = "CDFC0212-EC7A-4000-86F8-EA19B9E6D7F9";
shapes = (
{
closed = 1;
nodes = (
(400,-6,o),
(531,91,o),
(558,272,c),
(545,278,l),
(475,181,o),
(401,133,o),
(341,133,cs),
(266,133,o),
(212,210,o),
(216,340,cs),
(221,475,o),
(287,601,o),
(370,601,cs),
(397,601,o),
(421,587,o),
(421,541,cs),
(421,518,o),
(415,486,o),
(400,444,c),
(525,444,o),
(589,510,o),
(589,582,cs),
(589,629,o),
(561,676,o),
(554,716,cs),
(551,730,o),
(549,753,o),
(549,772,cs),
(549,827,o),
(567,855,o),
(590,855,cs),
(609,855,o),
(620,837,o),
(620,804,cs),
(620,780,o),
(614,748,o),
(602,708,c),
(707,708,o),
(761,767,o),
(761,825,cs),
(761,882,o),
(709,938,o),
(610,938,cs),
(518,938,o),
(421,890,o),
(421,799,cs),
(421,776,o),
(427,751,o),
(440,724,c),
(430,725,o),
(420,726,o),
(406,726,cs),
(253,726,o),
(48,599,o),
(39,321,cs),
(33,144,o),
(109,-6,o),
(270,-6,cs)
);
}
);
width = 601;
},
{
associatedMasterId = "CDFC0212-EC7A-4000-86F8-EA19B9E6D7F9";
layerId = "4C465116-00FE-46C8-9974-B9290F263B28";
name = "Sep 29, 23, 15:25";
shapes = (
{
closed = 1;
nodes = (
(400,-6,o),
(531,91,o),
(558,272,c),
(545,278,l),
(475,181,o),
(401,133,o),
(342,133,cs),
(266,133,o),
(212,210,o),
(217,358,cs),
(221,475,o),
(287,601,o),
(365,601,cs),
(398,601,o),
(423,586,o),
(421,536,cs),
(420,513,o),
(414,483,o),
(400,444,c),
(525,444,o),
(587,510,o),
(589,579,cs),
(593,672,o),
(511,726,o),
(410,726,cs),
(253,726,o),
(48,599,o),
(38,308,cs),
(33,144,o),
(109,-6,o),
(276,-6,cs)
);
},
{
closed = 1;
nodes = (
(582,649,o),
(561,678,o),
(556,705,cs),
(537,804,o),
(559,855,o),
(591,855,cs),
(623,855,o),
(631,802,o),
(602,708,c),
(810,708,o),
(819,938,o),
(602,938,cs),
(478,938,o),
(328,834,o),
(495,644,c),
(582,612,l)
);
}
);
width = 600;
},
{
associatedMasterId = "CDFC0212-EC7A-4000-86F8-EA19B9E6D7F9";
layerId = "622A6FB2-AB57-4452-A919-1C3302C56314";
name = "Sep 29, 23, 17:43";
shapes = (
{
closed = 1;
nodes = (
(400,-6,o),
(531,91,o),
(558,272,c),
(545,278,l),
(475,181,o),
(401,133,o),
(342,133,cs),
(266,133,o),
(212,210,o),
(217,358,cs),
(221,475,o),
(287,601,o),
(365,601,cs),
(398,601,o),
(423,586,o),
(421,536,cs),
(420,513,o),
(414,483,o),
(400,444,c),
(525,444,o),
(587,510,o),
(589,579,cs),
(593,672,o),
(511,726,o),
(410,726,cs),
(253,726,o),
(48,599,o),
(38,308,cs),
(33,144,o),
(109,-6,o),
(276,-6,cs)
);
},
{
closed = 1;
nodes = (
(582,649,o),
(561,678,o),
(556,705,cs),
(537,804,o),
(559,855,o),
(591,855,cs),
(623,855,o),
(631,802,o),
(602,708,c),
(810,708,o),
(819,938,o),
(602,938,cs),
(478,938,o),
(328,834,o),
(495,644,c),
(582,612,l)
);
}
);
width = 601;
},
{
associatedMasterId = "CDFC0212-EC7A-4000-86F8-EA19B9E6D7F9";
layerId = "BEC46651-9BEE-494F-8797-451C7065CB01";
name = "Sep 29, 23, 17:43";
shapes = (
{
closed = 1;
nodes = (
(400,-6,o),
(531,91,o),
(558,272,c),
(545,278,l),
(475,181,o),
(401,133,o),
(342,133,cs),
(266,133,o),
(212,210,o),
(217,358,cs),
(221,475,o),
(287,601,o),
(365,601,cs),
(398,601,o),
(423,586,o),
(421,536,cs),
(420,513,o),
(414,483,o),
(400,444,c),
(525,444,o),
(589,510,o),
(589,582,cs),
(589,629,o),
(561,676,o),
(556,705,cs),
(537,804,o),
(559,855,o),
(591,855,cs),
(623,855,o),
(631,802,o),
(602,708,c),
(810,708,o),
(819,938,o),
(602,938,cs),
(497,938,o),
(373,863,o),
(440,724,c),
(430,725,o),
(420,726,o),
(410,726,cs),
(253,726,o),
(48,599,o),
(38,308,cs),
(33,144,o),
(109,-6,o),
(276,-6,cs)
);
}
);
width = 601;
}
);
unicode = 391;
},
{
glyphname = Cstroke;
lastChange = "2023-10-03 15:00:13 +0000";
layers = (
{
anchors = (
{
name = bottom;
pos = (285,0);
},
{
name = top;
pos = (388,710);
}
);
layerId = "CDFC0212-EC7A-4000-86F8-EA19B9E6D7F9";
shapes = (
{
closed = 1;
nodes = (
(121,-106,o),
(128,-104,o),
(136,-100,c),
(152,-61,o),
(168,-24,o),
(183,13,c),
(211,1,o),
(242,-6,o),
(277,-6,cs),
(401,-6,o),
(532,91,o),
(559,272,c),
(546,278,l),
(476,181,o),
(402,133,o),
(342,133,cs),
(308,133,o),
(278,149,o),
(256,181,c),
(312,309,o),
(366,424,o),
(422,535,c),
(421,512,o),
(415,482,o),
(401,444,c),
(526,444,o),
(588,510,o),
(591,583,cs),
(593,638,o),
(561,681,o),
(511,705,c),
(538,753,l),
(539,757,o),
(539,761,o),
(539,764,cs),
(539,789,o),
(521,803,o),
(499,803,cs),
(479,803,o),
(455,791,o),
(441,764,cs),
(434,751,o),
(427,739,o),
(420,726,c),
(411,726,ls),
(254,726,o),
(49,599,o),
(39,308,cs),
(36,213,o),
(60,123,o),
(114,63,c),
(90,1,ls),
(82,-21,o),
(78,-40,o),
(78,-55,cs),
(78,-88,o),
(93,-106,o),
(114,-106,cs)
);
},
{
closed = 1;
nodes = (
(218,327,o),
(217,342,o),
(218,358,cs),
(222,469,o),
(282,588,o),
(354,600,c),
(307,507,o),
(261,410,o),
(218,313,c)
);
}
);
width = 600;
},
{
associatedMasterId = "CDFC0212-EC7A-4000-86F8-EA19B9E6D7F9";
layerId = "CEA51241-E04E-4081-A0F6-C6A5D27CBA3A";
name = "Sep 14, 23, 17:27";
shapes = (
{
ref = C;
},
{
alignment = -1;
pos = (126,0);
ref = capslash_part.;
},
{
closed = 1;
nodes = (
(330,248,o),
(445,500,o),
(587,753,c),
(598,811,o),
(522,823,o),
(490,764,cs),
(359,527,o),
(232,248,o),
(139,1,cs),
(108,-79,o),
(142,-123,o),
(185,-100,c)
);
}
);
width = 598;
},
{
associatedMasterId = "CDFC0212-EC7A-4000-86F8-EA19B9E6D7F9";
layerId = "07810B3C-34D9-486A-93C9-C853B0B2205C";
name = "Sep 30, 23, 19:14";
shapes = (
{
ref = C;
},
{
closed = 1;
nodes = (
(280,248,o),
(395,500,o),
(537,753,c),
(548,811,o),
(472,823,o),
(440,764,cs),
(309,527,o),
(182,248,o),
(89,1,cs),
(58,-79,o),
(92,-123,o),
(135,-100,c)
);
}
);
width = 598;
}
);
metricLeft = C;
metricRight = C;
unicode = 571;
},
{
glyphname = D;
lastChange = "2023-10-03 14:49:22 +0000";
layers = (
{
associatedMasterId = "CDFC0212-EC7A-4000-86F8-EA19B9E6D7F9";
background = {
shapes = (
{
closed = 1;
nodes = (
(578.499,111.89,o),
(541.321,583.989,o),
(69,497,c),
(51.909,576.885,l),
(1005.68,700,o),
(570,-86.04,o),
(145.436,0.284,c),
(-18.535,42.925,o),
(149.506,326.858,o),
(86.941,431.132,c),
(86.941,437.75,l),
(167.456,528.191,o),
(280.912,505.029,o),
(280.912,381.5,cs),
(280.912,285.262,o),
(192.655,186.132,o),
(192.878,138.182,cs),
(192.896,134.304,o),
(193.297,130.761,o),
(194.142,127.581,c)
);
}
);
};
layerId = "98883255-46CE-495A-8761-23A81B06C395";
name = "Jun 5, 23, 10:53";
shapes = (
{
closed = 1;
nodes = (
(578.499,111.89,o),
(541.321,583.989,o),
(69,497,c),
(51.909,576.885,l),
(1005.68,700,o),
(570,-86.04,o),
(145.436,0.284,c),
(-18.535,42.925,o),
(149.506,326.858,o),
(86.941,431.132,c),
(86.941,437.75,l),
(167.456,528.191,o),
(280.912,505.029,o),
(280.912,381.5,cs),
(280.912,285.262,o),
(192.655,186.132,o),
(192.878,138.182,cs),
(192.896,134.304,o),
(193.297,130.761,o),
(194.142,127.581,c)
);
}
);
width = 600;
},
{
associatedMasterId = "CDFC0212-EC7A-4000-86F8-EA19B9E6D7F9";
background = {
shapes = (
{
closed = 1;
nodes = (
(578.499,111.89,o),
(541.321,583.989,o),
(69,497,c),
(51.909,576.885,l),
(1005.68,700,o),
(570,-86.04,o),
(145.436,0.284,c),
(-18.535,42.925,o),
(149.506,326.858,o),
(86.941,431.132,c),
(86.941,437.75,l),
(167.456,528.191,o),
(280.912,505.029,o),
(280.912,381.5,cs),
(280.912,285.262,o),
(192.655,186.132,o),
(192.878,138.182,cs),
(192.896,134.304,o),
(193.297,130.761,o),
(194.142,127.581,c)
);
}
);
};
layerId = "67CB0AB3-8482-4E34-A9EA-7D049443661A";
name = "Jun 5, 23, 10:58";
shapes = (
{
closed = 1;
nodes = (
(757.263,19.449,o),
(730.824,734.07,o),
(290.039,734.07,cs),
(49.552,734.07,o),
(13.143,651.011,o),
(44.693,503.358,c),
(82.182,551.075,o),
(109.533,586.713,o),
(157.635,601.771,c),
(155.496,410.204,o),
(63.486,272.93,o),
(49.999,96.464,cs),
(41.463,-15.22,o),
(170.021,-24.544,o),
(234.134,33.417,c),
(226.362,243.87,o),
(339.755,426.048,o),
(299.805,624.278,c),
(500.297,624.278,o),
(570.375,94.466,o),
(181.264,90.611,c),
(211.291,31.122,l)
);
}
);
width = 745.45;
},
{
associatedMasterId = "CDFC0212-EC7A-4000-86F8-EA19B9E6D7F9";
background = {
shapes = (
{
closed = 1;
nodes = (
(578.499,111.89,o),
(541.321,583.989,o),
(69,497,c),
(51.909,576.885,l),
(1005.68,700,o),
(570,-86.04,o),
(145.436,0.284,c),
(-18.535,42.925,o),
(149.506,326.858,o),
(86.941,431.132,c),
(86.941,437.75,l),
(167.456,528.191,o),
(280.912,505.029,o),
(280.912,381.5,cs),
(280.912,285.262,o),
(192.655,186.132,o),
(192.878,138.182,cs),
(192.896,134.304,o),
(193.297,130.761,o),
(194.142,127.581,c)
);
}
);
};
layerId = "6C9CD73B-C0C9-4E6B-88B5-DF43CA4978A6";
name = "Jun 5, 23, 11:50";
shapes = (
{
closed = 1;
nodes = (
(274.901,-6.474,o),
(372.24,-6.474,cs),
(610.912,-6.474,o),
(785.119,219.692,o),
(785.119,420.517,cs),
(785.119,764.496,o),
(237.287,848.392,o),
(140.943,510.414,c),
(143.559,508.765,l),
(206.771,569.146,o),
(238.156,582.771,o),
(254.058,582.771,cs),
(311.756,582.771,o),
(178.486,287.93,o),
(167.868,184.202,cs),
(153.598,44.791,o)
);
},
{
closed = 1;
nodes = (
(383.054,132.417,cs),
(261.496,132.417,o),
(445.755,397.048,o),
(405.805,595.278,c),
(710.376,595.278,o),
(621.829,132.417,o)
);
}
);
width = 745.45;
},
{
anchors = (
{
name = bottom;
pos = (288,0);
},
{
name = center;
pos = (349,355);
},
{
name = top;
pos = (380,710);
}
);
background = {
shapes = (
{
closed = 1;
nodes = (
(542,112,o),
(505,584,o),
(33,497,c),
(16,577,l),
(970,700,o),
(534,-86,o),
(109,0,c),
(-55,43,o),
(113,327,o),
(51,431,c),
(51,438,l),
(131,528,o),
(245,505,o),
(245,382,cs),
(245,285,o),
(157,186,o),
(157,138,cs),
(157,134,o),
(157,131,o),
(158,128,c)
);
}
);
};
layerId = "CDFC0212-EC7A-4000-86F8-EA19B9E6D7F9";
name = Regular;
shapes = (
{
closed = 1;
nodes = (
(524,-7,o),
(671,218,o),
(671,419,cs),
(671,584,o),
(573,733,o),
(344,733,cs),
(160,733,o),
(44,637,o),
(44,476,c),
(50,474,l),
(95,551,o),
(132,582,o),
(149,582,cs),
(158,582,o),
(162,573,o),
(162,558,cs),
(162,486,o),
(74,268,o),
(65,178,cs),
(64,169,o),
(64,163,o),
(64,157,cs),
(64,39,o),
(186,-7,o),
(291,-7,cs)
);
},
{
closed = 1;
nodes = (
(263,125,o),
(248,151,o),
(248,192,cs),
(248,271,o),
(303,408,o),
(303,532,cs),
(303,560,o),
(300,587,o),
(293,612,c),
(431,612,o),
(487,506,o),
(487,393,cs),
(487,264,o),
(414,125,o),
(308,125,cs)
);
}
);
width = 688;
},
{
anchors = (
{
name = bottom;
pos = (328,0);
},
{
name = center;
pos = (359,355);
},
{
name = top;
pos = (390,710);
}
);
associatedMasterId = "CDFC0212-EC7A-4000-86F8-EA19B9E6D7F9";
background = {
shapes = (
{
closed = 1;
nodes = (
(552,112,o),
(515,584,o),
(43,497,c),
(26,577,l),
(980,700,o),
(544,-86,o),
(119,0,c),
(-45,43,o),
(123,327,o),
(61,431,c),
(61,438,l),
(141,528,o),
(255,505,o),
(255,382,cs),
(255,285,o),
(167,186,o),
(167,138,cs),
(167,134,o),
(167,131,o),
(168,128,c)
);
}
);
};
layerId = "8E4B34E3-9111-4004-A788-F2E4D6547D51";
name = "Aug 29, 23, 12:45";
shapes = (
{
closed = 1;
nodes = (
(723,-7,o),
(864,733,o),
(318,733,cs),
(170,733,o),
(54,637,o),
(54,476,c),
(60,474,l),
(105,551,o),
(142,582,o),
(163,582,cs),
(212,582,o),
(86,287,o),
(75,183,cs),
(61,44,o),
(190,-7,o),
(287,-7,cs)
);
},
{
closed = 1;
nodes = (
(165,125,o),
(356,414,o),
(303,612,c),
(600,612,o),
(517,125,o),
(298,125,cs)
);
}
);
width = 699;
},
{
anchors = (
{
name = bottom;
pos = (295,0);
},
{
name = center;
pos = (356,355);
},
{
name = top;
pos = (387,710);
}
);
associatedMasterId = "CDFC0212-EC7A-4000-86F8-EA19B9E6D7F9";
background = {
shapes = (
{
closed = 1;
nodes = (
(549,112,o),
(512,584,o),
(40,497,c),
(23,577,l),
(977,700,o),
(541,-86,o),
(116,0,c),
(-48,43,o),
(120,327,o),
(58,431,c),
(58,438,l),
(138,528,o),
(252,505,o),
(252,382,cs),
(252,285,o),
(164,186,o),
(164,138,cs),
(164,134,o),
(164,131,o),
(165,128,c)
);
}
);
};
layerId = "8AFA14D6-925D-47B0-9444-169C305068AE";
name = "Sep 15, 23, 19:04";
shapes = (
{
closed = 1;
nodes = (
(531,-7,o),
(678,218,o),
(678,419,cs),
(678,584,o),
(580,733,o),
(351,733,cs),
(167,733,o),
(51,637,o),
(51,476,c),
(57,474,l),
(102,551,o),
(139,582,o),
(156,582,cs),
(165,582,o),
(169,573,o),
(169,558,cs),
(169,486,o),
(81,268,o),
(72,178,cs),
(71,169,o),
(71,163,o),
(71,157,cs),
(71,39,o),
(193,-7,o),
(298,-7,cs)
);
},
{
closed = 1;
nodes = (
(270,125,o),
(255,151,o),
(255,192,cs),
(255,271,o),
(310,408,o),
(310,532,cs),
(310,560,o),
(307,587,o),
(300,612,c),
(438,612,o),
(494,506,o),
(494,393,cs),
(494,264,o),
(421,125,o),
(315,125,cs)
);
}
);
width = 698;
},
{
anchors = (
{
name = bottom;
pos = (288,0);
},
{
name = center;
pos = (349,355);
},
{
name = top;
pos = (380,710);
}
);
associatedMasterId = "CDFC0212-EC7A-4000-86F8-EA19B9E6D7F9";
background = {
shapes = (
{
closed = 1;
nodes = (
(542,112,o),
(505,584,o),
(33,497,c),
(16,577,l),
(970,700,o),
(534,-86,o),
(109,0,c),
(-55,43,o),
(113,327,o),
(51,431,c),
(51,438,l),
(131,528,o),
(245,505,o),
(245,382,cs),
(245,285,o),
(157,186,o),
(157,138,cs),
(157,134,o),
(157,131,o),
(158,128,c)
);
}
);
};
layerId = "455FF151-8BEF-4D71-BC17-60C34284AB3C";
name = "Oct 1, 23, 18:37";
shapes = (
{
closed = 1;
nodes = (
(524,-7,o),
(671,218,o),
(671,419,cs),
(671,584,o),
(573,733,o),
(344,733,cs),
(160,733,o),
(44,637,o),
(44,476,c),
(50,474,l),
(95,551,o),
(132,582,o),
(149,582,cs),
(158,582,o),
(162,573,o),
(162,558,cs),
(162,486,o),
(74,268,o),
(65,178,cs),
(64,169,o),
(64,163,o),
(64,157,cs),
(64,39,o),
(186,-7,o),
(291,-7,cs)
);
},
{
closed = 1;
nodes = (
(263,125,o),
(248,151,o),
(248,192,cs),
(248,271,o),
(303,408,o),
(303,532,cs),
(303,560,o),
(300,587,o),
(293,612,c),
(431,612,o),
(487,506,o),
(487,393,cs),
(487,264,o),
(414,125,o),
(308,125,cs)
);
}
);
width = 688;
}
);
unicode = 68;
userData = {
KernOnName = D;
};
},
{
glyphname = Dhook;
lastChange = "2023-10-02 01:45:18 +0000";
layers = (
{
anchors = (
{
name = bottom;
pos = (366,0);
},
{
name = top;
pos = (429,720);
}
);
layerId = "CDFC0212-EC7A-4000-86F8-EA19B9E6D7F9";
shapes = (
{
closed = 1;
nodes = (
(600,-7,o),
(750,209,o),
(750,407,cs),
(750,577,o),
(640,735,o),
(390,735,cs),
(209,735,o),
(40,652,o),
(40,523,cs),
(40,458,o),
(82,434,o),
(122,434,cs),
(153,434,o),
(184,449,o),
(192,469,c),
(182,483,o),
(178,498,o),
(178,512,cs),
(178,548,o),
(203,579,o),
(224,579,cs),
(236,579,o),
(241,568,o),
(241,549,cs),
(241,471,o),
(160,266,o),
(151,185,cs),
(150,176,o),
(150,169,o),
(150,163,cs),
(150,39,o),
(271,-7,o),
(363,-7,cs)
);
},
{
closed = 1;
nodes = (
(338,125,o),
(326,146,o),
(326,180,cs),
(326,213,o),
(338,260,o),
(351,313,cs),
(369,381,o),
(389,460,o),
(389,533,cs),
(389,560,o),
(386,587,o),
(379,612,c),
(515,612,o),
(571,510,o),
(571,399,cs),
(571,268,o),
(493,125,o),
(374,125,cs)
);
}
);
width = 776;
},
{
anchors = (
{
name = bottom;
pos = (366,0);
},
{
name = top;
pos = (429,720);
}
);
associatedMasterId = "CDFC0212-EC7A-4000-86F8-EA19B9E6D7F9";
layerId = "743A7073-D396-49B0-A5F3-B0A8BBB9FD74";
name = "Sep 30, 23, 19:35";
shapes = (
{
closed = 1;
nodes = (
(600,-7,o),
(750,209,o),
(750,407,cs),
(750,577,o),
(640,735,o),
(381,735,cs),
(209,735,o),
(40,652,o),
(40,527,cs),
(40,403,o),
(174,424,o),
(192,469,c),
(156,518,o),
(195,579,o),
(224,579,cs),
(286,579,o),
(162,287,o),
(151,183,cs),
(137,44,o),
(266,-7,o),
(363,-7,cs)
);
},
{
closed = 1;
nodes = (
(241,125,o),
(432,414,o),
(379,612,c),
(676,612,o),
(593,125,o),
(374,125,cs)
);
}
);
width = 776;
}
);
unicode = 394;
},
{
glyphname = Dtail;
lastChange = "2023-09-29 14:48:39 +0000";
layers = (
{
anchors = (
{
name = bottom;
pos = (316,0);
},
{
name = center;
pos = (377,355);
},
{
name = top;
pos = (408,710);
}
);
layerId = "CDFC0212-EC7A-4000-86F8-EA19B9E6D7F9";
shapes = (
{
ref = Eth;
}
);
width = 716;
},
{
associatedMasterId = "CDFC0212-EC7A-4000-86F8-EA19B9E6D7F9";
layerId = "AFFA74AB-2B60-4436-BEC5-11C39034E3E8";
name = "Sep 26, 23, 17:32";
shapes = (
{
ref = Eth;
}
);
width = 716;
},
{
associatedMasterId = "CDFC0212-EC7A-4000-86F8-EA19B9E6D7F9";
layerId = "2686FD92-B141-47E6-9B4C-10FD5FC83C3D";
name = "Sep 29, 23, 10:18";
shapes = (
{
closed = 1;
nodes = (
(6,383,o),
(17,317,o),
(89,315,cs),
(171,313,o),
(236,308,o),
(351,312,cs),
(430,315,o),
(429,391,o),
(392,414,c),
(257,399,o),
(200,398,o),
(57,414,c)
);
},
{
locked = 1;
pos = (28,0);
ref = D;
}
);
width = 716;
}
);
metricRight = D;
unicode = 393;
},
{
glyphname = Eth;
lastChange = "2023-09-30 23:35:53 +0000";
layers = (
{
layerId = "CDFC0212-EC7A-4000-86F8-EA19B9E6D7F9";
shapes = (
{
closed = 1;
nodes = (
(552,-7,o),
(699,218,o),
(699,419,cs),
(699,584,o),
(601,733,o),
(372,733,cs),
(188,733,o),
(72,637,o),
(72,476,c),
(78,474,l),
(123,551,o),
(160,582,o),
(177,582,cs),
(186,582,o),
(190,573,o),
(190,558,cs),
(190,527,o),
(174,468,o),
(154,405,c),
(126,407,o),
(94,410,o),
(57,414,c),
(36,401,o),
(25,382,o),
(25,364,cs),
(25,339,o),
(47,316,o),
(93,315,cs),
(102,315,o),
(114,314,o),
(126,314,c),
(110,260,o),
(96,211,o),
(93,177,cs),
(92,169,o),
(92,163,o),
(92,157,cs),
(92,39,o),
(214,-7,o),
(319,-7,cs)
);
},
{
closed = 1;
nodes = (
(291,125,o),
(276,151,o),
(276,192,cs),
(276,224,o),
(285,265,o),
(295,311,c),
(313,311,o),
(331,311,o),
(351,312,cs),
(398,314,o),
(416,341,o),
(416,368,cs),
(416,386,o),
(407,405,o),
(392,414,c),
(364,411,o),
(339,408,o),
(317,407,c),
(325,448,o),
(331,491,o),
(331,532,cs),
(331,560,o),
(328,587,o),
(321,612,c),
(459,612,o),
(515,506,o),
(515,393,cs),
(515,264,o),
(442,125,o),
(336,125,cs)
);
}
);
width = 716;
},
{
associatedMasterId = "CDFC0212-EC7A-4000-86F8-EA19B9E6D7F9";
layerId = "68719487-A175-409F-BF18-403250CB8EB0";
name = "Sep 8, 23, 22:26";
shapes = (
{
closed = 1;
nodes = (
(735,-7,o),
(876,733,o),
(330,733,cs),
(182,733,o),
(66,637,o),
(66,476,c),
(72,474,l),
(117,551,o),
(154,582,o),
(175,582,cs),
(224,582,o),
(98,287,o),
(87,183,cs),
(73,44,o),
(202,-7,o),
(299,-7,cs)
);
},
{
closed = 1;
nodes = (
(397,271,o),
(435,340,o),
(410,424,c),
(355,395,o),
(250,431,o),
(147,442,cs),
(63,451,o),
(1,398,o),
(18,300,c),
(81,334,o),
(151,296,o),
(284,283,cs)
);
},
{
closed = 1;
nodes = (
(177,125,o),
(368,414,o),
(315,612,c),
(612,612,o),
(529,125,o),
(310,125,cs)
);
}
);
width = 706;
},
{
associatedMasterId = "CDFC0212-EC7A-4000-86F8-EA19B9E6D7F9";
layerId = "27462819-05AF-4B02-A52E-8429DBD3CB41";
name = "Sep 29, 23, 10:18";
shapes = (
{
closed = 1;
nodes = (
(536,-7,o),
(686,211,o),
(686,410,cs),
(686,578,o),
(579,733,o),
(357,733,cs),
(182,733,o),
(66,637,o),
(66,476,c),
(72,474,l),
(117,551,o),
(154,582,o),
(173,582,cs),
(183,582,o),
(186,574,o),
(186,561,cs),
(186,536,o),
(175,492,o),
(159,441,c),
(155,441,o),
(151,442,o),
(143,443,cs),
(72,450,o),
(15,409,o),
(15,331,cs),
(15,321,o),
(16,311,o),
(18,300,c),
(37,310,o),
(56,314,o),
(76,314,cs),
(90,314,o),
(104,312,o),
(119,310,c),
(103,260,o),
(90,213,o),
(87,185,cs),
(86,176,o),
(86,169,o),
(86,163,cs),
(86,39,o),
(207,-7,o),
(299,-7,cs)
);
},
{
closed = 1;
nodes = (
(293,282,o),
(301,282,o),
(309,282,cs),
(383,282,o),
(417,322,o),
(417,377,cs),
(417,392,o),
(415,408,o),
(410,424,c),
(395,416,o),
(376,413,o),
(354,413,cs),
(341,413,o),
(326,414,o),
(311,416,c),
(319,455,o),
(325,494,o),
(325,533,cs),
(325,560,o),
(322,587,o),
(315,612,c),
(451,612,o),
(507,510,o),
(507,399,cs),
(507,268,o),
(429,125,o),
(310,125,cs),
(274,125,o),
(262,146,o),
(262,180,cs),
(262,207,o),
(270,243,o),
(280,283,c),
(284,283,ls)
);
}
);
width = 707;
},
{
associatedMasterId = "CDFC0212-EC7A-4000-86F8-EA19B9E6D7F9";
layerId = "66DE7CFC-DC0B-4CD4-B2F3-77031F2D5B1E";
name = "Sep 30, 23, 19:35";
shapes = (
{
closed = 1;
nodes = (
(6,383,o),
(17,317,o),
(89,315,cs),
(171,313,o),
(236,308,o),
(351,312,cs),
(430,315,o),
(429,391,o),
(392,414,c),
(257,399,o),
(200,398,o),
(57,414,c)
);
},
{
closed = 1;
nodes = (
(552,-7,o),
(699,218,o),
(699,419,cs),
(699,584,o),
(601,733,o),
(372,733,cs),
(188,733,o),
(72,637,o),
(72,476,c),
(78,474,l),
(123,551,o),
(160,582,o),
(177,582,cs),
(186,582,o),
(190,573,o),
(190,558,cs),
(190,486,o),
(102,268,o),
(93,178,cs),
(92,169,o),
(92,163,o),
(92,157,cs),
(92,39,o),
(214,-7,o),
(319,-7,cs)
);
},
{
closed = 1;
nodes = (
(291,125,o),
(276,151,o),
(276,192,cs),
(276,271,o),
(331,408,o),
(331,532,cs),
(331,560,o),
(328,587,o),
(321,612,c),
(459,612,o),
(515,506,o),
(515,393,cs),
(515,264,o),
(442,125,o),
(336,125,cs)
);
}
);
width = 716;
}
);
metricRight = D;
unicode = 208;
},
{
glyphname = E;
lastChange = "2023-10-03 14:52:14 +0000";
layers = (
{
anchors = (
{
name = bottom;
pos = (214,0);
},
{
name = ogonek;
pos = (397,10);
},
{
name = top;
pos = (346,710);
},
{
name = topleft;
pos = (59,710);
}
);
layerId = "CDFC0212-EC7A-4000-86F8-EA19B9E6D7F9";
name = Regular;
shapes = (
{
closed = 1;
nodes = (
(353,-7,o),
(502,87,o),
(508,273,c),
(500,278,l),
(434,183,o),
(342,136,o),
(274,136,cs),
(221,136,o),
(183,164,o),
(183,219,cs),
(183,254,o),
(199,286,o),
(236,312,c),
(270,288,o),
(296,278,o),
(320,278,cs),
(372,278,o),
(399,326,o),
(399,370,cs),
(399,407,o),
(380,441,o),
(338,441,cs),
(318,441,o),
(293,433,o),
(263,414,c),
(246,445,o),
(239,474,o),
(239,500,cs),
(239,571,o),
(293,620,o),
(334,620,cs),
(359,620,o),
(379,602,o),
(379,561,cs),
(379,541,o),
(374,515,o),
(363,483,c),
(470,483,o),
(532,553,o),
(532,618,cs),
(532,674,o),
(485,726,o),
(360,726,cs),
(177,726,o),
(71,616,o),
(71,512,cs),
(71,459,o),
(98,408,o),
(153,373,c),
(63,335,o),
(13,248,o),
(13,167,cs),
(13,76,o),
(75,-7,o),
(210,-7,cs)
);
}
);
width = 537;
},
{
associatedMasterId = "CDFC0212-EC7A-4000-86F8-EA19B9E6D7F9";
layerId = "3A0AC700-67DB-4E4E-9C54-60A48E922762";
name = "Jun 21, 23, 14:43";
shapes = (
{
closed = 1;
nodes = (
(435.692,86.945,o),
(481.694,607.942,o),
(217.02,383.238,c),
(299.914,357.999,l),
(92.447,581.731,o),
(433.997,749.732,o),
(358.922,483.438,c),
(537.888,483.438,o),
(582.698,725.544,o),
(366.928,725.544,cs),
(67.277,725.544,o),
(-23.327,450.692,o),
(175.643,358.478,c),
(179.233,383.238,l),
(-37.743,324.156,o),
(-38.251,-6.519,o),
(210.217,-6.519,cs),
(349.329,-6.519,o),
(497.678,87.328,o),
(504.147,273.219,c),
(495.968,278,l),
(290.601,-16.955,o),
(102.243,216.445,o),
(253.573,313.805,c),
(181.195,357.6,l)
);
}
);
width = 541.61;
},
{
anchors = (
{
name = bottom;
pos = (249,0);
},
{
name = ogonek;
pos = (398,10);
},
{
name = top;
pos = (312,720);
},
{
name = topleft;
pos = (61,720);
}
);
associatedMasterId = "CDFC0212-EC7A-4000-86F8-EA19B9E6D7F9";
layerId = "E5978A12-A500-41B7-9B80-9839AF2F33D0";
name = "Aug 9, 23, 20:54";
shapes = (
{
closed = 1;
nodes = (
(354,-7,o),
(503,87,o),
(509,273,c),
(501,278,l),
(296,-17,o),
(107,216,o),
(259,314,c),
(186,358,l),
(441,87,o),
(487,608,o),
(222,383,c),
(305,358,l),
(97,582,o),
(459,750,o),
(364,483,c),
(563,483,o),
(608,726,o),
(380,726,cs),
(62,726,o),
(-18,451,o),
(181,358,c),
(184,383,l),
(-33,324,o),
(-63,-7,o),
(215,-7,cs)
);
}
);
width = 541;
},
{
anchors = (
{
name = bottom;
pos = (228,0);
},
{
name = ogonek;
pos = (466,10);
},
{
name = top;
pos = (347,710);
},
{
name = topleft;
pos = (60,710);
}
);
associatedMasterId = "CDFC0212-EC7A-4000-86F8-EA19B9E6D7F9";
layerId = "86F31D09-AEEF-4BF1-9890-C740FF1445CB";
name = "Aug 29, 23, 12:45";
shapes = (
{
closed = 1;
nodes = (
(354,-7,o),
(503,87,o),
(509,273,c),
(501,278,l),
(427,171,o),
(355,134,o),
(300,134,cs),
(242,134,o),
(204,177,o),
(204,224,cs),
(204,252,o),
(217,281,o),
(247,305,c),
(276,286,o),
(300,278,o),
(321,278,cs),
(373,278,o),
(400,326,o),
(400,370,cs),
(400,407,o),
(381,441,o),
(339,441,cs),
(319,441,o),
(294,433,o),
(264,414,c),
(247,445,o),
(240,474,o),
(240,500,cs),
(240,571,o),
(294,620,o),
(335,620,cs),
(360,620,o),
(380,602,o),
(380,561,cs),
(380,541,o),
(375,515,o),
(364,483,c),
(471,483,o),
(533,553,o),
(533,617,cs),
(533,674,o),
(486,726,o),
(380,726,cs),
(178,726,o),
(72,616,o),
(72,511,cs),
(72,459,o),
(99,408,o),
(154,373,c),
(64,335,o),
(14,248,o),
(14,166,cs),
(14,76,o),
(76,-7,o),
(215,-7,cs)
);
}
);
width = 541;
},
{
anchors = (
{
name = bottom;
pos = (214,0);
},
{
name = ogonek;
pos = (397,10);
},
{
name = top;
pos = (346,710);
},
{
name = topleft;
pos = (59,710);
}
);
associatedMasterId = "CDFC0212-EC7A-4000-86F8-EA19B9E6D7F9";
layerId = "6F0BB26C-4667-46B9-B45C-C5EA50B8B491";
name = "Oct 1, 23, 11:36";
shapes = (
{
closed = 1;
nodes = (
(353,-7,o),
(502,87,o),
(508,273,c),
(500,278,l),
(426,171,o),
(354,134,o),
(299,134,cs),
(241,134,o),
(203,177,o),
(203,224,cs),
(203,252,o),
(216,281,o),
(246,305,c),
(275,286,o),
(299,278,o),
(320,278,cs),
(372,278,o),
(399,326,o),
(399,370,cs),
(399,407,o),
(380,441,o),
(338,441,cs),
(318,441,o),
(293,433,o),
(263,414,c),
(246,445,o),
(239,474,o),
(239,500,cs),
(239,571,o),
(293,620,o),
(334,620,cs),
(359,620,o),
(379,602,o),
(379,561,cs),
(379,541,o),
(374,515,o),
(363,483,c),
(470,483,o),
(532,553,o),
(532,617,cs),
(532,674,o),
(485,726,o),
(379,726,cs),
(177,726,o),
(71,616,o),
(71,511,cs),
(71,459,o),
(98,408,o),
(153,373,c),
(63,335,o),
(13,248,o),
(13,166,cs),
(13,76,o),
(75,-7,o),
(214,-7,cs)
);
}
);
width = 537;
}
);
unicode = 69;
userData = {
KernOnName = E;
};
},
{
glyphname = Eopen;
lastChange = "2023-10-01 15:44:55 +0000";
layers = (
{
anchors = (
{
name = bottom;
pos = (247,0);
},
{
name = top;
pos = (311,720);
}
);
layerId = "CDFC0212-EC7A-4000-86F8-EA19B9E6D7F9";
shapes = (
{
closed = 1;
nodes = (
(354,-7,o),
(503,87,o),
(509,273,c),
(501,278,l),
(427,171,o),
(340,134,o),
(286,134,cs),
(227,134,o),
(189,177,o),
(189,225,cs),
(189,254,o),
(203,286,o),
(238,310,c),
(271,287,o),
(298,278,o),
(320,278,cs),
(372,278,o),
(400,326,o),
(400,370,cs),
(400,407,o),
(381,441,o),
(339,441,cs),
(319,441,o),
(293,433,o),
(263,414,c),
(245,444,o),
(237,473,o),
(237,499,cs),
(237,565,o),
(291,610,o),
(351,610,cs),
(397,610,o),
(448,583,o),
(480,518,c),
(490,518,l),
(497,541,o),
(500,563,o),
(500,582,cs),
(500,679,o),
(417,725,o),
(324,725,cs),
(206,725,o),
(72,652,o),
(71,520,cs),
(71,461,o),
(98,408,o),
(154,373,c),
(65,335,o),
(14,247,o),
(14,166,cs),
(14,76,o),
(76,-7,o),
(211,-7,cs)
);
}
);
width = 528;
},
{
anchors = (
{
name = bottom;
pos = (247,0);
},
{
name = top;
pos = (310,720);
}
);
associatedMasterId = "CDFC0212-EC7A-4000-86F8-EA19B9E6D7F9";
layerId = "C0033663-301C-40BE-8E96-14299868B223";
name = "Oct 1, 23, 11:29";
shapes = (
{
closed = 1;
nodes = (
(354,-7,o),
(503,87,o),
(509,273,c),
(501,278,l),
(296,-17,o),
(107,216,o),
(259,314,c),
(186,358,l),
(441,87,o),
(487,608,o),
(222,383,c),
(305,358,l),
(85,594,o),
(461,718,o),
(440,487,c),
(450,484,l),
(660,803,o),
(95,793,o),
(72,529,cs),
(66,462,o),
(101,395,o),
(181,358,c),
(184,383,l),
(-33,324,o),
(-63,-7,o),
(215,-7,cs)
);
}
);
width = 538;
},
{
anchors = (
{
name = bottom;
pos = (247,0);
},
{
name = top;
pos = (311,720);
}
);
associatedMasterId = "CDFC0212-EC7A-4000-86F8-EA19B9E6D7F9";
layerId = "4F7209E5-5482-4D47-BAE4-FA910E747D2F";
name = "Oct 1, 23, 11:40";
shapes = (
{
closed = 1;
nodes = (
(354,-7,o),
(503,87,o),
(509,273,c),
(501,278,l),
(427,171,o),
(340,134,o),
(286,134,cs),
(227,134,o),
(189,177,o),
(189,225,cs),
(189,261,o),
(210,300,o),
(266,326,c),
(212,331,l),
(256,293,o),
(292,278,o),
(321,278,cs),
(372,278,o),
(400,326,o),
(400,370,cs),
(400,407,o),
(381,441,o),
(339,441,cs),
(319,441,o),
(293,433,o),
(263,414,c),
(244,445,o),
(236,474,o),
(236,499,cs),
(236,568,o),
(294,610,o),
(349,610,cs),
(406,610,o),
(441,596,o),
(440,487,c),
(450,484,l),
(483,534,o),
(497,576,o),
(497,610,cs),
(497,688,o),
(424,725,o),
(338,725,cs),
(218,725,o),
(71,652,o),
(71,518,cs),
(71,461,o),
(98,408,o),
(154,373,c),
(65,335,o),
(14,247,o),
(14,166,cs),
(14,76,o),
(76,-7,o),
(211,-7,cs)
);
}
);
width = 538;
},
{
anchors = (
{
name = bottom;
pos = (247,0);
},
{
name = top;
pos = (311,720);
}
);
associatedMasterId = "CDFC0212-EC7A-4000-86F8-EA19B9E6D7F9";
layerId = "4123EC68-9279-404C-B086-4C6F54E70D7E";
name = "Oct 1, 23, 11:44";
shapes = (
{
closed = 1;
nodes = (
(354,-7,o),
(503,87,o),
(509,273,c),
(501,278,l),
(427,171,o),
(340,134,o),
(286,134,cs),
(227,134,o),
(189,177,o),
(189,225,cs),
(189,261,o),
(210,300,o),
(266,326,c),
(212,331,l),
(256,293,o),
(292,278,o),
(321,278,cs),
(372,278,o),
(400,326,o),
(400,370,cs),
(400,407,o),
(381,441,o),
(339,441,cs),
(319,441,o),
(293,433,o),
(263,414,c),
(160,586,o),
(390,698,o),
(480,518,c),
(490,518,l),
(579,809,o),
(72,778,o),
(71,518,cs),
(71,461,o),
(98,408,o),
(154,373,c),
(65,335,o),
(14,247,o),
(14,166,cs),
(14,76,o),
(76,-7,o),
(211,-7,cs)
);
}
);
width = 538;
}
);
unicode = 400;
},
{
glyphname = Ereversed;
lastChange = "2023-09-26 21:57:26 +0000";
layers = (
{
anchors = (
{
name = bottom;
pos = (260,0);
},
{
name = ogonek;
pos = (77,10);
},
{
name = top;
pos = (128,710);
},
{
name = topright;
pos = (415,710);
}
);
layerId = "CDFC0212-EC7A-4000-86F8-EA19B9E6D7F9";
shapes = (
{
closed = 1;
nodes = (
(386,-7,o),
(484,102,o),
(484,220,cs),
(484,275,o),
(462,341,o),
(395,373,c),
(475,416,o),
(524,478,o),
(524,546,cs),
(524,634,o),
(443,726,o),
(281,726,cs),
(148,726,o),
(80,661,o),
(80,591,cs),
(80,539,o),
(119,483,o),
(215,483,c),
(215,495,o),
(215,509,o),
(216,523,cs),
(220,570,o),
(237,620,o),
(288,620,cs),
(333,620,o),
(351,582,o),
(347,534,cs),
(343,495,o),
(325,449,o),
(296,414,c),
(271,433,o),
(248,441,o),
(228,441,cs),
(186,441,o),
(158,407,o),
(148,370,cs),
(135,326,o),
(150,278,o),
(202,278,cs),
(223,278,o),
(249,286,o),
(283,305,c),
(302,285,o),
(309,263,o),
(307,240,cs),
(302,186,o),
(246,134,o),
(182,134,cs),
(127,134,o),
(66,171,o),
(22,278,c),
(11,273,l),
(-34,87,o),
(89,-7,o),
(228,-7,cs)
);
}
);
width = 524;
},
{
associatedMasterId = "CDFC0212-EC7A-4000-86F8-EA19B9E6D7F9";
layerId = "06A9439E-D48F-41F6-BD89-9891A7FC77D8";
name = "Sep 26, 23, 17:52";
shapes = (
{
pos = (493,0);
ref = E;
scale = (-1,1);
}
);
width = 537;
},
{
anchors = (
{
name = bottom;
pos = (250,0);
},
{
name = ogonek;
pos = (67,10);
},
{
name = top;
pos = (118,710);
},
{
name = topright;
pos = (405,710);
}
);
associatedMasterId = "CDFC0212-EC7A-4000-86F8-EA19B9E6D7F9";
layerId = "1F9B16FF-769A-45C2-A500-36211B069F71";
name = "Sep 26, 23, 17:55";
shapes = (
{
closed = 1;
nodes = (
(357,-7,o),
(442,76,o),
(467,166,cs),
(490,248,o),
(465,335,o),
(385,373,c),
(450,408,o),
(491,459,o),
(506,511,cs),
(534,616,o),
(459,726,o),
(257,726,cs),
(151,726,o),
(89,674,o),
(73,617,cs),
(56,553,o),
(98,483,o),
(205,483,c),
(204,515,o),
(206,541,o),
(212,561,cs),
(222,602,o),
(248,620,o),
(273,620,cs),
(314,620,o),
(354,571,o),
(334,500,cs),
(327,474,o),
(311,445,o),
(286,414,c),
(261,433,o),
(238,441,o),
(218,441,cs),
(176,441,o),
(148,407,o),
(138,370,cs),
(125,326,o),
(140,278,o),
(192,278,cs),
(213,278,o),
(239,286,o),
(273,305,c),
(296,281,o),
(301,252,o),
(294,224,cs),
(280,177,o),
(230,134,o),
(172,134,cs),
(117,134,o),
(56,171,o),
(12,278,c),
(1,273,l),
(-44,87,o),
(79,-7,o),
(218,-7,cs)
);
}
);
width = 496;
},
{
anchors = (
{
name = bottom;
pos = (250,0);
},
{
name = ogonek;
pos = (67,10);
},
{
name = top;
pos = (118,710);
},
{
name = topright;
pos = (405,710);
}
);
associatedMasterId = "CDFC0212-EC7A-4000-86F8-EA19B9E6D7F9";
layerId = "8711D896-A7F3-4947-A735-A6A713816C6C";
name = "Sep 26, 23, 17:55";
shapes = (
{
closed = 1;
nodes = (
(376,-7,o),
(466,102,o),
(475,206,cs),
(481,275,o),
(452,341,o),
(385,373,c),
(465,416,o),
(507,478,o),
(512,538,cs),
(521,634,o),
(433,726,o),
(257,726,cs),
(138,726,o),
(75,661,o),
(70,598,cs),
(65,539,o),
(109,483,o),
(205,483,c),
(204,515,o),
(206,541,o),
(212,561,cs),
(222,602,o),
(248,620,o),
(273,620,cs),
(314,620,o),
(354,571,o),
(334,500,cs),
(327,474,o),
(311,445,o),
(286,414,c),
(261,433,o),
(238,441,o),
(218,441,cs),
(176,441,o),
(148,407,o),
(138,370,cs),
(125,326,o),
(140,278,o),
(192,278,cs),
(213,278,o),
(239,286,o),
(273,305,c),
(296,281,o),
(301,252,o),
(294,224,cs),
(280,177,o),
(230,134,o),
(172,134,cs),
(117,134,o),
(56,171,o),
(12,278,c),
(1,273,l),
(-44,87,o),
(79,-7,o),
(218,-7,cs)
);
}
);
width = 496;
}
);
unicode = 398;
},
{
glyphname = Esh;
lastChange = "2023-09-30 23:35:10 +0000";
layers = (
{
layerId = "CDFC0212-EC7A-4000-86F8-EA19B9E6D7F9";
name = Regular;
shapes = (
{
closed = 1;
nodes = (
(380,-4,ls),
(480,-4,o),
(516,63,o),
(516,131,cs),
(516,157,o),
(511,183,o),
(503,205,c),
(474,174,o),
(428,157,o),
(346,158,cs),
(153,161,l),
(367,310,ls),
(386,322,o),
(397,356,o),
(397,381,cs),
(397,388,o),
(396,395,o),
(394,400,c),
(240,563,l),
(418,564,ls),
(471,564,o),
(495,543,o),
(501,521,c),
(539,557,o),
(556,598,o),
(556,634,cs),
(556,683,o),
(524,721,o),
(436,721,cs),
(201,721,ls),
(111,721,o),
(69,674,o),
(69,619,cs),
(69,588,o),
(82,554,o),
(109,525,cs),
(267,353,l),
(22,168,l),
(-6,144,o),
(-19,114,o),
(-19,85,cs),
(-19,38,o),
(16,-4,o),
(77,-4,cs)
);
}
);
width = 557;
},
{
associatedMasterId = "CDFC0212-EC7A-4000-86F8-EA19B9E6D7F9";
layerId = "4420DAE5-E2BB-4D5C-A983-453F8D4A4486";
name = "Sep 29, 23, 17:18";
shapes = (
{
closed = 1;
nodes = (
(-253,1017,l),
(-239,1030,o),
(-228,1055,o),
(-228,1069,cs),
(-228,1113,o),
(-265,1141,o),
(-334,1141,cs),
(-404,1141,o),
(-475,1137,o),
(-524,1131,cs),
(-554,1127,o),
(-573,1093,o),
(-573,1083,cs),
(-573,1072,o),
(-569,1065,o),
(-563,1054,cs),
(-543,1019,o),
(-456,910,o),
(-402,851,c),
(-402,848,l),
(-440,805,o),
(-506,739,o),
(-555,689,cs),
(-575,669,o),
(-583,656,o),
(-583,644,cs),
(-583,631,o),
(-573,605,o),
(-552,602,cs),
(-515,595,o),
(-408,591,o),
(-326,591,cs),
(-248,591,o),
(-214,624,o),
(-214,668,cs),
(-214,691,o),
(-225,722,o),
(-236,735,c),
(-237,735,l),
(-260,713,o),
(-292,701,o),
(-346,701,cs),
(-390,701,o),
(-424,703,o),
(-458,707,c),
(-393,775,o),
(-354,816,o),
(-312,872,c),
(-312,896,l),
(-350,937,o),
(-396,998,o),
(-417,1031,c),
(-417,1034,l),
(-395,1036,o),
(-356,1038,o),
(-323,1038,cs),
(-298,1038,o),
(-269,1028,o),
(-254,1017,c)
);
},
{
closed = 1;
nodes = (
(349,355,o),
(351,377,o),
(342,400,c),
(189,586,l),
(151,543,l),
(443,546,ls),
(462,546,o),
(480,543,o),
(496,533,c),
(515,550,o),
(528,582,o),
(530,616,cs),
(535,668,o),
(516,721,o),
(455,721,cs),
(414,721,o),
(201,721,o),
(167,721,cs),
(100,721,o),
(52,678,o),
(43,577,c),
(253,315,l),
(257,384,l),
(170,306,o),
(67,214,o),
(16,168,cs),
(-62,99,o),
(-5,-4,o),
(92,-4,cs),
(126,-4,o),
(389,-4,o),
(430,-4,cs),
(536,-4,o),
(528,108,o),
(515,205,c),
(487,174,o),
(442,157,o),
(360,158,cs),
(109,162,l),
(104,131,l),
(338,332,l)
);
}
);
width = 600;
},
{
associatedMasterId = "CDFC0212-EC7A-4000-86F8-EA19B9E6D7F9";
layerId = "7027A8C0-40D8-4F2F-92DA-EE5BC8AFAF67";
name = "Sep 29, 23, 17:25";
shapes = (
{
closed = 1;
nodes = (
(-253,1017,l),
(-239,1030,o),
(-228,1055,o),
(-228,1069,cs),
(-228,1113,o),
(-265,1141,o),
(-334,1141,cs),
(-404,1141,o),
(-475,1137,o),
(-524,1131,cs),
(-554,1127,o),
(-573,1093,o),
(-573,1083,cs),
(-573,1072,o),
(-569,1065,o),
(-563,1054,cs),
(-543,1019,o),
(-456,910,o),
(-402,851,c),
(-402,848,l),
(-440,805,o),
(-506,739,o),
(-555,689,cs),
(-575,669,o),
(-583,656,o),
(-583,644,cs),
(-583,631,o),
(-573,605,o),
(-552,602,cs),
(-515,595,o),
(-408,591,o),
(-326,591,cs),
(-248,591,o),
(-214,624,o),
(-214,668,cs),
(-214,691,o),
(-225,722,o),
(-236,735,c),
(-237,735,l),
(-260,713,o),
(-292,701,o),
(-346,701,cs),
(-390,701,o),
(-424,703,o),
(-458,707,c),
(-393,775,o),
(-354,816,o),
(-312,872,c),
(-312,896,l),
(-350,937,o),
(-396,998,o),
(-417,1031,c),
(-417,1034,l),
(-395,1036,o),
(-356,1038,o),
(-323,1038,cs),
(-298,1038,o),
(-269,1028,o),
(-254,1017,c)
);
},
{
closed = 1;
nodes = (
(349,355,o),
(351,377,o),
(342,400,c),
(189,586,l),
(151,558,l),
(392,560,ls),
(455,561,o),
(470,543,o),
(476,521,c),
(563,608,o),
(536,721,o),
(425,721,cs),
(354,721,o),
(201,721,o),
(167,721,cs),
(41,721,o),
(-2,629,o),
(82,525,cs),
(118,480,o),
(183,402,o),
(253,315,c),
(257,384,l),
(170,306,o),
(67,214,o),
(16,168,cs),
(-62,99,o),
(-5,-4,o),
(92,-4,cs),
(126,-4,o),
(359,-4,o),
(400,-4,cs),
(536,-4,o),
(549,121,o),
(515,205,c),
(487,174,o),
(442,157,o),
(360,158,cs),
(109,162,l),
(104,131,l),
(338,332,l)
);
}
);
width = 600;
},
{
associatedMasterId = "CDFC0212-EC7A-4000-86F8-EA19B9E6D7F9";
layerId = "EEA12712-915E-42D3-9AEE-5D1DC0127C46";
name = "Sep 29, 23, 17:30";
shapes = (
{
closed = 1;
nodes = (
(371,322,o),
(382,356,o),
(382,381,cs),
(382,388,o),
(381,395,o),
(379,400,c),
(203,586,l),
(164,562,l),
(403,564,ls),
(456,564,o),
(480,543,o),
(486,521,c),
(524,557,o),
(541,598,o),
(541,633,cs),
(541,683,o),
(509,721,o),
(421,721,c),
(186,721,l),
(103,721,o),
(54,681,o),
(54,623,cs),
(54,594,o),
(67,560,o),
(94,525,cs),
(129,480,o),
(202,402,o),
(287,315,c),
(294,384,l),
(196,314,o),
(68,214,o),
(15,168,cs),
(-12,145,o),
(-24,118,o),
(-24,92,cs),
(-24,41,o),
(22,-4,o),
(86,-4,cs),
(120,-4,o),
(332,-4,o),
(373,-4,cs),
(473,-4,o),
(509,63,o),
(509,132,cs),
(509,157,o),
(504,183,o),
(496,205,c),
(467,174,o),
(421,157,o),
(339,158,cs),
(108,162,l),
(102,131,l),
(352,310,l)
);
}
);
width = 545;
},
{
associatedMasterId = "CDFC0212-EC7A-4000-86F8-EA19B9E6D7F9";
layerId = "D489910D-9948-4AFD-B05D-88F940F38F2C";
name = "Sep 30, 23, 19:35";
shapes = (
{
closed = 1;
nodes = (
(386,322,o),
(397,356,o),
(397,381,cs),
(397,388,o),
(396,395,o),
(394,400,c),
(218,586,l),
(179,562,l),
(418,564,ls),
(471,564,o),
(495,543,o),
(501,521,c),
(539,557,o),
(556,598,o),
(556,634,cs),
(556,683,o),
(524,721,o),
(436,721,c),
(201,721,l),
(111,721,o),
(69,674,o),
(69,619,cs),
(69,588,o),
(82,554,o),
(109,525,cs),
(302,315,l),
(309,384,l),
(22,168,l),
(-6,144,o),
(-19,114,o),
(-19,85,cs),
(-19,38,o),
(16,-4,o),
(77,-4,c),
(380,-4,l),
(480,-4,o),
(516,63,o),
(516,131,cs),
(516,157,o),
(511,183,o),
(503,205,c),
(474,174,o),
(428,157,o),
(346,158,cs),
(115,162,l),
(109,131,l),
(367,310,l)
);
}
);
width = 557;
}
);
unicode = 425;
},
{
glyphname = Estroke;
lastChange = "2023-10-01 22:47:30 +0000";
layers = (
{
anchors = (
{
name = bottom;
pos = (214,0);
},
{
name = ogonek;
pos = (397,10);
},
{
name = top;
pos = (346,710);
},
{
name = topleft;
pos = (59,710);
}
);
layerId = "CDFC0212-EC7A-4000-86F8-EA19B9E6D7F9";
name = Regular;
shapes = (
{
closed = 1;
nodes = (
(82,-142,o),
(96,-137,o),
(109,-125,c),
(123,-85,o),
(139,-43,o),
(154,-1,c),
(172,-5,o),
(192,-7,o),
(212,-7,cs),
(353,-7,o),
(502,87,o),
(508,273,c),
(500,278,l),
(426,171,o),
(354,134,o),
(300,134,cs),
(265,134,o),
(237,149,o),
(221,171,c),
(269,292,l),
(288,282,o),
(305,278,o),
(320,278,cs),
(372,278,o),
(399,326,o),
(399,370,cs),
(399,407,o),
(380,441,o),
(336,441,cs),
(336,441,o),
(333,441,o),
(331,441,c),
(379,552,l),
(378,534,o),
(372,511,o),
(363,483,c),
(470,483,o),
(532,553,o),
(532,618,cs),
(532,659,o),
(507,698,o),
(451,716,c),
(460,735,o),
(467,749,o),
(472,758,c),
(473,792,o),
(450,810,o),
(424,810,cs),
(402,810,o),
(378,796,o),
(365,767,cs),
(348,725,l),
(166,714,o),
(71,610,o),
(71,512,cs),
(71,459,o),
(98,408,o),
(153,373,c),
(63,335,o),
(13,248,o),
(13,167,cs),
(13,117,o),
(32,69,o),
(72,37,c),
(39,-43,ls),
(31,-62,o),
(28,-78,o),
(28,-91,cs),
(28,-124,o),
(47,-142,o),
(70,-142,cs)
);
},
{
closed = 1;
nodes = (
(240,477,o),
(239,489,o),
(239,499,cs),
(239,553,o),
(269,594,o),
(302,611,c),
(285,568,o),
(265,518,o),
(243,464,c)
);
}
);
width = 537;
},
{
associatedMasterId = "CDFC0212-EC7A-4000-86F8-EA19B9E6D7F9";
layerId = "F232734D-C3E1-49F5-9236-92DFC0F35323";
name = "Sep 14, 23, 17:20";
shapes = (
{
ref = E;
},
{
alignment = -1;
pos = (84,0);
ref = capslash_part.;
}
);
width = 537;
},
{
associatedMasterId = "CDFC0212-EC7A-4000-86F8-EA19B9E6D7F9";
layerId = "01B635C5-A94C-4A9D-95CF-19D39B05424E";
name = "Sep 30, 23, 19:14";
shapes = (
{
closed = 1;
nodes = (
(236,232,o),
(432,682,o),
(472,758,c),
(473,822,o),
(393,830,o),
(365,767,cs),
(339,708,o),
(148,220,o),
(55,-41,cs),
(23,-131,o),
(83,-166,o),
(129,-125,c)
);
},
{
locked = 1;
ref = E;
}
);
width = 537;
},
{
anchors = (
{
name = bottom;
pos = (214,0);
},
{
name = ogonek;
pos = (397,10);
},
{
name = top;
pos = (346,710);
},
{
name = topleft;
pos = (59,710);
}
);
associatedMasterId = "CDFC0212-EC7A-4000-86F8-EA19B9E6D7F9";
layerId = "864AC63D-4F63-4A1E-9C63-992C2B9731DB";
name = "Sep 30, 23, 19:20";
shapes = (
{
closed = 1;
nodes = (
(236,232,o),
(432,682,o),
(472,758,c),
(473,822,o),
(393,830,o),
(365,767,cs),
(339,708,o),
(148,220,o),
(39,-43,cs),
(3,-131,o),
(63,-166,o),
(109,-125,c)
);
},
{
closed = 1;
nodes = (
(353,-7,o),
(502,87,o),
(508,273,c),
(500,278,l),
(426,171,o),
(354,134,o),
(299,134,cs),
(241,134,o),
(203,177,o),
(203,224,cs),
(203,252,o),
(216,281,o),
(246,305,c),
(275,286,o),
(299,278,o),
(320,278,cs),
(372,278,o),
(399,326,o),
(399,370,cs),
(399,407,o),
(380,441,o),
(338,441,cs),
(318,441,o),
(293,433,o),
(263,414,c),
(246,445,o),
(239,474,o),
(239,500,cs),
(239,571,o),
(293,620,o),
(334,620,cs),
(359,620,o),
(379,602,o),
(379,561,cs),
(379,541,o),
(374,515,o),
(363,483,c),
(470,483,o),
(532,553,o),
(532,617,cs),
(532,674,o),
(485,726,o),
(379,726,cs),
(177,726,o),
(71,616,o),
(71,511,cs),
(71,459,o),
(98,408,o),
(153,373,c),
(63,335,o),
(13,248,o),
(13,166,cs),
(13,76,o),
(75,-7,o),
(214,-7,cs)
);
}
);
width = 537;
}
);
metricLeft = E;
metricRight = E;
unicode = 582;
},
{
glyphname = Schwa;
lastChange = "2023-09-30 23:34:30 +0000";
layers = (
{
background = {
shapes = (
{
closed = 1;
nodes = (
(366,-7,o),
(570,120,o),
(594,397,cs),
(609,567,o),
(531,726,o),
(352,726,cs),
(227,726,o),
(107,648,o),
(69,448,c),
(82,442,l),
(203,673,o),
(433,620,o),
(411,362,cs),
(380,7,o),
(85,70,o),
(206,309,c),
(83,309,o),
(25,219,o),
(25,147,cs),
(25,48,o),
(107,-7,o),
(210,-7,cs)
);
}
);
};
layerId = "CDFC0212-EC7A-4000-86F8-EA19B9E6D7F9";
shapes = (
{
closed = 1;
nodes = (
(372,-7,o),
(576,128,o),
(599,392,cs),
(600,403,o),
(601,418,o),
(601,436,cs),
(601,603,o),
(510,726,o),
(360,726,cs),
(226,726,o),
(89,629,o),
(69,448,c),
(82,442,l),
(138,542,o),
(210,586,o),
(273,586,cs),
(353,586,o),
(418,516,o),
(418,390,c),
(418,390,o),
(418,380,o),
(416,362,cs),
(416,360,o),
(416,358,o),
(415,355,c),
(364,403,o),
(309,423,o),
(256,423,cs),
(133,423,o),
(25,313,o),
(25,177,cs),
(25,55,o),
(111,-7,o),
(216,-7,cs)
);
},
{
closed = 1;
nodes = (
(225,114,o),
(196,143,o),
(196,190,cs),
(196,245,o),
(235,328,o),
(304,328,cs),
(332,328,o),
(365,314,o),
(403,279,c),
(374,166,o),
(310,114,o),
(262,114,cs)
);
}
);
width = 617;
},
{
associatedMasterId = "CDFC0212-EC7A-4000-86F8-EA19B9E6D7F9";
background = {
shapes = (
{
closed = 1;
nodes = (
(366,-7,o),
(570,120,o),
(594,397,cs),
(609,567,o),
(531,726,o),
(352,726,cs),
(227,726,o),
(107,648,o),
(69,448,c),
(82,442,l),
(203,673,o),
(433,620,o),
(411,362,cs),
(380,7,o),
(85,70,o),
(206,309,c),
(83,309,o),
(25,219,o),
(25,147,cs),
(25,48,o),
(107,-7,o),
(210,-7,cs)
);
}
);
};
layerId = "C5B5B805-2591-442A-873D-2C6856620244";
name = "Sep 8, 23, 22:03";
shapes = (
{
closed = 1;
nodes = (
(491,726,o),
(356,726,cs),
(226,726,o),
(89,629,o),
(69,448,c),
(82,442,l),
(213,676,o),
(436,605,o),
(417,371,cs),
(393,80,o),
(196,57,o),
(196,197,cs),
(196,273,o),
(291,432,o),
(450,227,c),
(487,264,l),
(316,555,o),
(25,398,o),
(25,182,cs),
(25,55,o),
(111,-7,o),
(217,-7,cs),
(372,-7,o),
(576,128,o),
(599,395,cs),
(618,621,o)
);
}
);
width = 616;
}
);
metricRight = Oopen;
unicode = 399;
},
{
glyphname = Ezh;
lastChange = "2023-09-30 23:34:35 +0000";
layers = (
{
layerId = "CDFC0212-EC7A-4000-86F8-EA19B9E6D7F9";
shapes = (
{
closed = 1;
nodes = (
(385,-7,o),
(513,118,o),
(523,230,cs),
(530,307,o),
(480,379,o),
(355,398,c),
(459,472,o),
(529,548,o),
(569,616,c),
(573,677,o),
(503,729,o),
(449,736,c),
(442,712,o),
(429,684,o),
(413,655,c),
(333,670,o),
(282,723,o),
(202,723,cs),
(115,723,o),
(66,661,o),
(66,601,cs),
(66,545,o),
(109,492,o),
(206,494,c),
(205,500,o),
(205,507,o),
(205,512,cs),
(205,578,o),
(251,606,o),
(293,606,cs),
(316,606,o),
(343,597,o),
(368,590,c),
(311,514,o),
(229,438,o),
(142,388,c),
(140,346,o),
(170,305,o),
(195,300,c),
(222,314,o),
(248,329,o),
(272,343,c),
(315,326,o),
(334,308,o),
(334,269,cs),
(334,183,o),
(235,71,o),
(108,71,cs),
(67,71,o),
(23,83,o),
(-21,110,c),
(-28,96,l),
(1,28,o),
(92,-7,o),
(192,-7,cs)
);
}
);
width = 557;
}
);
unicode = 439;
},
{
glyphname = Ezhreversed;
lastChange = "2023-09-30 23:34:49 +0000";
layers = (
{
layerId = "CDFC0212-EC7A-4000-86F8-EA19B9E6D7F9";
shapes = (
{
closed = 1;
nodes = (
(366,-7,o),
(464,27,o),
(511,95,c),
(507,109,l),
(457,81,o),
(411,70,o),
(371,70,cs),
(262,70,o),
(194,153,o),
(194,231,cs),
(194,286,o),
(228,330,o),
(285,351,c),
(305,337,o),
(326,322,o),
(350,308,c),
(375,314,o),
(412,353,o),
(421,395,c),
(348,444,o),
(288,519,o),
(252,593,c),
(281,604,o),
(308,609,o),
(330,609,cs),
(373,609,o),
(400,589,o),
(400,551,cs),
(400,536,o),
(396,519,o),
(386,499,c),
(491,497,o),
(557,571,o),
(557,635,cs),
(557,682,o),
(522,724,o),
(446,724,cs),
(378,724,o),
(298,691,o),
(228,647,c),
(218,679,o),
(212,710,o),
(212,736,c),
(157,729,o),
(78,678,o),
(66,619,c),
(87,552,o),
(136,477,o),
(218,404,c),
(78,383,o),
(6,288,o),
(6,194,cs),
(6,92,o),
(91,-7,o),
(264,-7,cs)
);
}
);
width = 545;
},
{
associatedMasterId = "CDFC0212-EC7A-4000-86F8-EA19B9E6D7F9";
layerId = "D1959018-1079-431E-B094-38D418FE44AF";
name = "Sep 30, 23, 19:34";
shapes = (
{
closed = 1;
nodes = (
(366,-7,o),
(464,27,o),
(511,95,c),
(507,109,l),
(457,81,o),
(411,70,o),
(371,70,cs),
(262,70,o),
(194,153,o),
(194,231,cs),
(194,286,o),
(228,330,o),
(285,351,c),
(305,337,o),
(326,322,o),
(350,308,c),
(375,314,o),
(412,353,o),
(421,395,c),
(348,444,o),
(288,519,o),
(252,593,c),
(281,604,o),
(308,609,o),
(330,609,cs),
(373,609,o),
(400,589,o),
(400,551,cs),
(400,536,o),
(396,519,o),
(386,499,c),
(491,497,o),
(557,571,o),
(557,635,cs),
(557,682,o),
(522,724,o),
(446,724,cs),
(368,724,o),
(274,680,o),
(197,627,c),
(236,624,l),
(222,663,o),
(212,703,o),
(212,736,c),
(157,729,o),
(78,678,o),
(66,619,c),
(87,552,o),
(136,477,o),
(218,404,c),
(78,383,o),
(6,288,o),
(6,194,cs),
(6,92,o),
(91,-7,o),
(264,-7,cs)
);
}
);
width = 545;
}
);
unicode = 440;
},
{
glyphname = F;
lastChange = "2023-10-03 14:50:43 +0000";
layers = (
{
anchors = (
{
name = bottom;
pos = (266,0);
},
{
name = top;
pos = (367,710);
}
);
layerId = "CDFC0212-EC7A-4000-86F8-EA19B9E6D7F9";
shapes = (
{
closed = 1;
nodes = (
(198,-4,o),
(227,8,o),
(248,29,c),
(246,47,o),
(246,66,o),
(246,84,cs),
(246,166,o),
(261,245,o),
(274,321,c),
(344,316,o),
(411,301,o),
(461,275,c),
(468,278,l),
(483,309,o),
(492,345,o),
(492,376,cs),
(492,395,o),
(489,412,o),
(482,427,c),
(474,429,o),
(465,430,o),
(454,430,cs),
(404,430,o),
(327,410,o),
(285,389,c),
(290,423,o),
(293,456,o),
(293,489,cs),
(293,519,o),
(290,549,o),
(283,578,c),
(356,564,o),
(427,540,o),
(486,540,cs),
(569,540,o),
(605,597,o),
(605,651,cs),
(605,685,o),
(590,718,o),
(564,735,c),
(541,708,o),
(498,700,o),
(446,700,cs),
(365,700,o),
(266,720,o),
(199,720,cs),
(73,720,o),
(50,668,o),
(50,542,c),
(83,567,o),
(118,580,o),
(154,585,c),
(164,409,o),
(76,274,o),
(76,125,cs),
(76,33,o),
(122,-4,o),
(170,-4,cs)
);
}
);
width = 576;
},
{
associatedMasterId = "CDFC0212-EC7A-4000-86F8-EA19B9E6D7F9";
layerId = "AA4958D9-BDC5-4AAD-B4D3-71AA9CE81043";
name = "Jun 1, 23, 16:52";
shapes = (
{
closed = 1;
nodes = (
(144.866,620.136,o),
(357.939,535.16,o),
(531.965,535.16,cs),
(654.128,535.16,o),
(653.753,702.084,o),
(585.707,725.16,c),
(528.27,655.814,o),
(311.341,720.07,o),
(202.469,720.07,cs),
(72.597,720.07,o),
(50.004,663.355,o),
(50.004,537.358,c)
);
},
{
closed = 1;
nodes = (
(151.91,600.533,l),
(171.079,413.834,o),
(80.35,282.479,o),
(77.128,130.187,cs),
(74.052,-15.22,o),
(198.208,-24.544,o),
(256.847,33.417,c),
(238.255,244.951,o),
(339.444,418.723,o),
(286.808,594.334,c)
);
},
{
closed = 1;
nodes = (
(323.179,307.777,o),
(357.939,300.485,o),
(439.874,267.678,c),
(457.464,310.656,o),
(469.232,380.575,o),
(455.303,426.759,c),
(401.423,440.019,o),
(256.209,406.181,o),
(153.906,288.147,c),
(151.91,279.729,l)
);
}
);
width = 681.59;
},
{
associatedMasterId = "CDFC0212-EC7A-4000-86F8-EA19B9E6D7F9";
layerId = "E3920A27-E195-4410-ABF8-15E8BE1BF120";
name = "Jun 9, 23, 17:54";
shapes = (
{
closed = 1;
nodes = (
(185.761,642.011,o),
(361.375,535.16,o),
(485.965,535.16,cs),
(621.128,535.16,o),
(631.753,691.084,o),
(563.707,735.16,c),
(506.27,665.814,o),
(308.341,720.07,o),
(199.469,720.07,cs),
(73,720,o),
(50,663,o),
(50,537,c)
);
},
{
closed = 1;
nodes = (
(152,601,l),
(171,414,o),
(80,282,o),
(74.401,96.018,cs),
(71.052,-15.22,o),
(195.208,-24.544,o),
(253.847,33.417,c),
(235.255,244.951,o),
(336.444,418.723,o),
(283.808,594.334,c)
);
},
{
closed = 1;
nodes = (
(217.925,322.308,l),
(308.601,323.091,o),
(404.727,302.962,o),
(467.874,277.678,c),
(485.464,320.656,o),
(496.232,380.575,o),
(482.303,426.759,c),
(443.865,436.219,o),
(298.94,421.708,o),
(215.761,341.015,c)
);
}
);
width = 594.7;
},
{
anchors = (
{
name = bottom;
pos = (266,0);
},
{
name = top;
pos = (328,710);
}
);
associatedMasterId = "CDFC0212-EC7A-4000-86F8-EA19B9E6D7F9";
layerId = "E5FBB215-FDC6-4932-A2A8-55E11E73A375";
name = "Aug 29, 23, 12:45";
shapes = (
{
closed = 1;
nodes = (
(229,241,o),
(330,424,o),
(278,599,c),
(152,606,l),
(171,419,o),
(76,280,o),
(76,125,cs),
(76,-19,o),
(189,-29,o),
(248,29,c)
);
},
{
closed = 1;
nodes = (
(468,278,l),
(492,328,o),
(500,388,o),
(482,427,c),
(444,436,o),
(299,422,o),
(216,341,c),
(218,322,l),
(308,323,o),
(398,308,o),
(461,275,c)
);
},
{
closed = 1;
nodes = (
(621.128,540.16,o),
(631.753,691.084,o),
(563.707,735.16,c),
(506.27,665.814,o),
(308.341,720.07,o),
(199.469,720.07,cs),
(73,720,o),
(50,668,o),
(50,542,c),
(185.761,647.011,o),
(361.375,540.16,o),
(485.965,540.16,cs)
);
}
);
width = 576;
},
{
anchors = (
{
name = bottom;
pos = (266,0);
},
{
name = top;
pos = (328,710);
}
);
associatedMasterId = "CDFC0212-EC7A-4000-86F8-EA19B9E6D7F9";
layerId = "8B1A0639-5D46-49ED-9F5A-EE94938F2E7B";
name = "Sep 15, 23, 17:39";
shapes = (
{
closed = 1;
nodes = (
(239,132,o),
(258,229,o),
(274,321,c),
(344,316,o),
(411,301,o),
(461,275,c),
(468,278,l),
(492,328,o),
(500,388,o),
(482,427,c),
(453,434,o),
(363,427,o),
(285,389,c),
(294,454,o),
(298,517,o),
(283,578,c),
(356,564,o),
(427,540,o),
(486,540,cs),
(621,540,o),
(632,691,o),
(564,735,c),
(506,666,o),
(308,720,o),
(199,720,cs),
(73,720,o),
(50,668,o),
(50,542,c),
(83,567,o),
(118,580,o),
(154,585,c),
(164,409,o),
(76,274,o),
(76,125,cs),
(76,-19,o),
(189,-29,o),
(248,29,c)
);
}
);
width = 576;
},
{
anchors = (
{
name = bottom;
pos = (266,0);
},
{
name = top;
pos = (367,710);
}
);
associatedMasterId = "CDFC0212-EC7A-4000-86F8-EA19B9E6D7F9";
layerId = "239A473E-4598-4538-B5B3-88655C08EEF3";
name = "Oct 1, 23, 18:38";
shapes = (
{
closed = 1;
nodes = (
(246,47,o),
(246,66,o),
(246,84,cs),
(246,166,o),
(261,245,o),
(274,321,c),
(344,316,o),
(411,301,o),
(461,275,c),
(468,278,l),
(483,309,o),
(492,345,o),
(492,376,cs),
(492,395,o),
(489,412,o),
(482,427,c),
(476,429,o),
(466,429,o),
(455,429,cs),
(414,429,o),
(346,419,o),
(285,389,c),
(290,423,o),
(293,456,o),
(293,489,cs),
(293,519,o),
(290,549,o),
(283,578,c),
(356,564,o),
(427,540,o),
(486,540,cs),
(569,540,o),
(605,597,o),
(605,651,cs),
(605,685,o),
(590,718,o),
(564,735,c),
(541,708,o),
(498,700,o),
(446,700,cs),
(365,700,o),
(266,720,o),
(199,720,cs),
(73,720,o),
(50,668,o),
(50,542,c),
(83,567,o),
(118,580,o),
(154,585,c),
(164,409,o),
(76,274,o),
(76,125,cs),
(76,33,o),
(122,-4,o),
(170,-4,cs),
(198,-4,o),
(227,8,o),
(248,29,c)
);
}
);
width = 576;
}
);
metricLeft = "=22";
unicode = 70;
userData = {
KernOnName = F;
};
},
{
glyphname = Fhook;
lastChange = "2023-10-01 22:47:55 +0000";
layers = (
{
anchors = (
{
name = bottom;
pos = (266,0);
},
{
name = top;
pos = (367,710);
}
);
associatedMasterId = "CDFC0212-EC7A-4000-86F8-EA19B9E6D7F9";
layerId = "030E47A8-EDF9-4D51-8A5B-040A13666D3D";
name = "Sep 29, 23, 19:19";
shapes = (
{
closed = 1;
nodes = (
(151,522,o),
(146,464,cs),
(130,280,o),
(89,-34,o),
(26,-34,cs),
(8,-34,o),
(15,22,o),
(24,68,c),
(-189,68,o),
(-164,-139,o),
(22,-139,cs),
(201,-139,o),
(252,14,o),
(284,321,c),
(344,316,o),
(411,301,o),
(461,275,c),
(468,278,l),
(492,328,o),
(500,388,o),
(482,427,c),
(453,434,o),
(363,427,o),
(292,389,c),
(295,464,o),
(300,537,o),
(295,607,c),
(261,584,l),
(334,572,o),
(418,540,o),
(486,540,cs),
(621,540,o),
(632,691,o),
(564,735,c),
(506,666,o),
(308,720,o),
(199,720,cs),
(73,720,o),
(50,668,o),
(50,542,c),
(83,567,o),
(118,580,o),
(154,585,c),
(154,567,o)
);
}
);
width = 576;
},
{
anchors = (
{
name = bottom;
pos = (297,0);
},
{
name = top;
pos = (398,710);
}
);
associatedMasterId = "CDFC0212-EC7A-4000-86F8-EA19B9E6D7F9";
layerId = "E6A239B9-54A7-47DD-9248-1A1C75F97FE0";
name = "Sep 29, 23, 19:21";
shapes = (
{
closed = 1;
nodes = (
(182,522,o),
(178,473,cs),
(161,280,o),
(120,-54,o),
(61,-54,cs),
(49,-54,o),
(46,-42,o),
(46,-25,cs),
(46,-5,o),
(50,23,o),
(55,48,c),
(-48,48,o),
(-96,-1,o),
(-96,-51,cs),
(-96,-104,o),
(-43,-159,o),
(60,-159,cs),
(232,-159,o),
(283,14,o),
(315,321,c),
(375,316,o),
(442,301,o),
(492,275,c),
(499,278,l),
(514,309,o),
(523,345,o),
(523,377,cs),
(523,395,o),
(520,412,o),
(513,427,c),
(507,429,o),
(497,429,o),
(486,429,cs),
(445,429,o),
(378,419,o),
(323,389,c),
(325,441,o),
(328,492,o),
(328,542,cs),
(328,564,o),
(328,586,o),
(326,607,c),
(292,584,l),
(365,572,o),
(449,540,o),
(517,540,cs),
(600,540,o),
(636,597,o),
(636,651,cs),
(636,685,o),
(621,718,o),
(595,735,c),
(572,708,o),
(529,700,o),
(477,700,cs),
(396,700,o),
(297,720,o),
(230,720,cs),
(104,720,o),
(81,668,o),
(81,542,c),
(114,567,o),
(149,580,o),
(185,585,c),
(185,567,o)
);
}
);
width = 607;
},
{
anchors = (
{
name = bottom;
pos = (319,0);
},
{
name = top;
pos = (420,710);
}
);
layerId = "CDFC0212-EC7A-4000-86F8-EA19B9E6D7F9";
name = Regular;
shapes = (
{
closed = 1;
nodes = (
(254,-139,o),
(305,14,o),
(337,321,c),
(397,316,o),
(464,301,o),
(514,275,c),
(521,278,l),
(536,309,o),
(545,345,o),
(545,377,cs),
(545,395,o),
(542,412,o),
(535,427,c),
(529,429,o),
(519,429,o),
(508,429,cs),
(467,429,o),
(400,419,o),
(345,389,c),
(347,441,o),
(350,492,o),
(350,542,cs),
(350,577,l),
(413,563,o),
(482,540,o),
(539,540,cs),
(622,540,o),
(658,597,o),
(658,651,cs),
(658,685,o),
(643,718,o),
(617,735,c),
(594,708,o),
(551,700,o),
(499,700,cs),
(418,700,o),
(319,720,o),
(252,720,cs),
(126,720,o),
(103,668,o),
(103,542,c),
(136,567,o),
(171,580,o),
(207,585,c),
(207,567,o),
(204,522,o),
(200,473,cs),
(183,280,o),
(142,-34,o),
(83,-34,cs),
(71,-34,o),
(68,-22,o),
(68,-5,cs),
(68,15,o),
(72,43,o),
(77,68,c),
(-26,68,o),
(-74,19,o),
(-74,-31,cs),
(-74,-84,o),
(-21,-139,o),
(82,-139,cs)
);
}
);
width = 629;
},
{
anchors = (
{
name = bottom;
pos = (319,0);
},
{
name = top;
pos = (420,710);
}
);
associatedMasterId = "CDFC0212-EC7A-4000-86F8-EA19B9E6D7F9";
layerId = "04713EBF-C2CF-430C-84B3-70A4626B29BE";
name = "Oct 1, 23, 18:47";
shapes = (
{
closed = 1;
nodes = (
(204,522,o),
(200,473,cs),
(183,280,o),
(142,-34,o),
(83,-34,cs),
(71,-34,o),
(68,-22,o),
(68,-5,cs),
(68,15,o),
(72,43,o),
(77,68,c),
(-26,68,o),
(-74,19,o),
(-74,-31,cs),
(-74,-84,o),
(-21,-139,o),
(82,-139,cs),
(254,-139,o),
(305,14,o),
(337,321,c),
(397,316,o),
(464,301,o),
(514,275,c),
(521,278,l),
(536,309,o),
(545,345,o),
(545,377,cs),
(545,395,o),
(542,412,o),
(535,427,c),
(529,429,o),
(519,429,o),
(508,429,cs),
(467,429,o),
(400,419,o),
(345,389,c),
(347,441,o),
(350,492,o),
(350,542,cs),
(350,564,o),
(350,586,o),
(348,607,c),
(314,584,l),
(387,572,o),
(471,540,o),
(539,540,cs),
(622,540,o),
(658,597,o),
(658,651,cs),
(658,685,o),
(643,718,o),
(617,735,c),
(594,708,o),
(551,700,o),
(499,700,cs),
(418,700,o),
(319,720,o),
(252,720,cs),
(126,720,o),
(103,668,o),
(103,542,c),
(136,567,o),
(171,580,o),
(207,585,c),
(207,567,o)
);
}
);
width = 629;
}
);
unicode = 401;
},
{
glyphname = G;
lastChange = "2023-10-03 14:58:19 +0000";
layers = (
{
associatedMasterId = "CDFC0212-EC7A-4000-86F8-EA19B9E6D7F9";
layerId = "93CE5017-4F8E-4DC4-8573-340595B63F69";
name = "May 30, 23, 12:32";
shapes = (
{
closed = 1;
nodes = (
(770.484,273.423,o),
(341.885,533.046,o),
(395.528,131.801,c),
(382.116,75.211,o),
(450.022,-151.313,o),
(399.064,-161.672,c),
(400.215,-170.161,l),
(472.339,-182.504,o),
(569.892,-124.539,o),
(576.586,-68.609,cs),
(585,1.699,o),
(511.386,61.691,o),
(522.868,109.303,c)
);
},
{
closed = 1;
nodes = (
(448.646,169.315,l),
(414.818,145.16,o),
(381.822,133.259,o),
(351.885,133.259,cs),
(275.782,133.259,o),
(219.444,210.168,o),
(219.444,358.2,cs),
(219.444,475.235,o),
(281,601.067,o),
(358.932,601.067,cs),
(406.423,601.067,o),
(438.595,568.495,o),
(399.167,444.037,c),
(658.157,444.037,o),
(635.102,725.578,o),
(392.287,725.578,cs),
(157.098,725.578,o),
(25,501.254,o),
(25,300.944,cs),
(25,-13.358,o),
(315.61,-76.291,o),
(470.611,73.475,c)
);
}
);
width = 606.71;
},
{
associatedMasterId = "CDFC0212-EC7A-4000-86F8-EA19B9E6D7F9";
layerId = "283CF548-4BE6-4F70-A392-A13686B29521";
name = "May 30, 23, 12:32";
shapes = (
{
closed = 1;
nodes = (
(770.484,273.423,o),
(341.885,533.046,o),
(395.528,131.801,c),
(382.116,75.211,o),
(450.022,-151.313,o),
(399.064,-161.672,c),
(400.215,-170.161,l),
(472.339,-182.504,o),
(569.892,-124.539,o),
(576.586,-68.609,cs),
(585,1.699,o),
(511.386,61.691,o),
(522.868,109.303,c)
);
},
{
closed = 1;
nodes = (
(448.646,169.315,l),
(414.818,145.16,o),
(381.822,133.259,o),
(351.885,133.259,cs),
(275.782,133.259,o),
(219.444,210.168,o),
(219.444,358.2,cs),
(219.444,475.235,o),
(281,601.067,o),
(358.932,601.067,cs),
(406.423,601.067,o),
(438.595,568.495,o),
(399.167,444.037,c),
(658.157,444.037,o),
(635.102,725.578,o),
(392.287,725.578,cs),
(157.098,725.578,o),
(25,501.254,o),
(25,300.944,cs),
(25,-13.358,o),
(315.61,-76.291,o),
(470.611,73.475,c)
);
}
);
width = 606.71;
},
{
anchors = (
{
name = bottom;
pos = (299,0);
},
{
name = top;
pos = (378,710);
}
);
layerId = "CDFC0212-EC7A-4000-86F8-EA19B9E6D7F9";
name = Regular;
shapes = (
{
closed = 1;
nodes = (
(491,-152,o),
(554,-116,o),
(567,-69,c),
(533,12,o),
(519,51,o),
(519,87,cs),
(519,97,o),
(520,108,o),
(523,119,c),
(572,149,o),
(591,189,o),
(591,227,cs),
(591,288,o),
(540,345,o),
(491,345,cs),
(444,345,o),
(398,293,o),
(398,143,cs),
(398,142,l),
(382,136,o),
(367,133,o),
(352,133,cs),
(276,133,o),
(219,210,o),
(219,340,cs),
(219,475,o),
(281,601,o),
(364,601,cs),
(392,601,o),
(417,586,o),
(417,536,cs),
(417,513,o),
(412,483,o),
(399,444,c),
(525,444,o),
(584,510,o),
(584,583,cs),
(584,670,o),
(499,725,o),
(395,725,cs),
(239,725,o),
(41,600,o),
(41,317,cs),
(41,98,o),
(160,-6,o),
(288,-6,cs),
(321,-6,o),
(354,1,o),
(387,16,c),
(388,-35,o),
(392,-93,o),
(400,-150,c),
(409,-152,o),
(418,-152,o),
(427,-152,cs)
);
}
);
width = 623;
},
{
anchors = (
{
name = bottom;
pos = (301,0);
},
{
name = top;
pos = (363,710);
}
);
associatedMasterId = "CDFC0212-EC7A-4000-86F8-EA19B9E6D7F9";
layerId = "AA028C12-7B6A-4341-B3A4-6774E882BE2E";
name = "Aug 29, 23, 12:45";
shapes = (
{
closed = 1;
nodes = (
(353,-6,o),
(418,21,o),
(473,73,c),
(451,169,l),
(417,145,o),
(384,133,o),
(354,133,cs),
(278,133,o),
(221,210,o),
(221,358,cs),
(221,475,o),
(283,601,o),
(361,601,cs),
(394,601,o),
(419,586,o),
(419,536,cs),
(419,513,o),
(414,483,o),
(401,444,c),
(527,444,o),
(586,510,o),
(586,579,cs),
(586,670,o),
(501,725,o),
(398,725,cs),
(241,725,o),
(43,600,o),
(43,301,cs),
(43,98,o),
(162,-6,o),
(289,-6,cs)
);
},
{
closed = 1;
nodes = (
(493,-152,o),
(556,-116,o),
(569,-69,c),
(535,12,o),
(521,51,o),
(521,87,cs),
(521,97,o),
(522,108,o),
(525,119,c),
(574,149,o),
(593,189,o),
(593,227,cs),
(593,288,o),
(542,345,o),
(493,345,cs),
(446,345,o),
(400,293,o),
(400,143,c),
(393,114,o),
(389,73,o),
(389,25,cs),
(389,-28,o),
(394,-90,o),
(402,-150,c),
(411,-152,o),
(420,-152,o),
(429,-152,cs)
);
}
);
width = 645;
},
{
anchors = (
{
name = bottom;
pos = (297,0);
},
{
name = top;
pos = (376,710);
}
);
associatedMasterId = "CDFC0212-EC7A-4000-86F8-EA19B9E6D7F9";
layerId = "769AD835-DF9C-4BA4-8272-1C40BA0FFDC2";
name = "Oct 1, 23, 18:38";
shapes = (
{
closed = 1;
nodes = (
(489,-152,o),
(552,-116,o),
(565,-69,c),
(531,12,o),
(517,51,o),
(517,87,cs),
(517,97,o),
(518,108,o),
(521,119,c),
(570,149,o),
(589,189,o),
(589,227,cs),
(589,288,o),
(538,345,o),
(489,345,cs),
(442,345,o),
(396,293,o),
(396,143,cs),
(396,142,l),
(380,136,o),
(365,133,o),
(350,133,cs),
(274,133,o),
(217,210,o),
(217,358,cs),
(217,475,o),
(279,601,o),
(357,601,cs),
(390,601,o),
(415,586,o),
(415,536,cs),
(415,513,o),
(410,483,o),
(397,444,c),
(523,444,o),
(582,510,o),
(582,579,cs),
(582,670,o),
(497,725,o),
(394,725,cs),
(237,725,o),
(39,600,o),
(39,301,cs),
(39,98,o),
(158,-6,o),
(285,-6,cs),
(319,-6,o),
(352,1,o),
(385,16,c),
(386,-35,o),
(390,-93,o),
(398,-150,c),
(407,-152,o),
(416,-152,o),
(425,-152,cs)
);
}
);
width = 621;
}
);
metricLeft = "=O";
unicode = 71;
userData = {
KernOnName = G;
};
},
{
glyphname = Ghook;
lastChange = "2023-10-03 15:00:13 +0000";
layers = (
{
anchors = (
{
name = bottom;
pos = (299,0);
},
{
name = top;
pos = (378,710);
}
);
layerId = "CDFC0212-EC7A-4000-86F8-EA19B9E6D7F9";
shapes = (
{
closed = 1;
nodes = (
(491,-152,o),
(554,-116,o),
(567,-69,c),
(533,12,o),
(519,51,o),
(519,87,cs),
(519,97,o),
(520,108,o),
(523,119,c),
(572,149,o),
(591,189,o),
(591,227,cs),
(591,288,o),
(540,345,o),
(491,345,cs),
(444,345,o),
(398,293,o),
(398,143,cs),
(398,142,l),
(382,136,o),
(367,133,o),
(352,133,cs),
(276,133,o),
(219,210,o),
(219,340,cs),
(219,475,o),
(281,601,o),
(364,601,cs),
(392,601,o),
(417,586,o),
(417,536,cs),
(417,513,o),
(412,483,o),
(399,444,c),
(525,444,o),
(584,510,o),
(584,573,cs),
(584,617,o),
(555,671,o),
(544,725,cs),
(541,742,o),
(540,756,o),
(540,768,cs),
(540,822,o),
(561,855,o),
(586,855,cs),
(605,855,o),
(616,837,o),
(616,804,cs),
(616,780,o),
(610,748,o),
(598,708,c),
(705,708,o),
(759,768,o),
(759,827,cs),
(759,883,o),
(710,938,o),
(610,938,cs),
(516,938,o),
(417,889,o),
(417,798,cs),
(417,776,o),
(423,750,o),
(437,722,c),
(424,724,o),
(410,725,o),
(396,725,cs),
(239,725,o),
(41,600,o),
(41,317,cs),
(41,98,o),
(160,-6,o),
(288,-6,cs),
(321,-6,o),
(354,1,o),
(387,16,c),
(388,-35,o),
(392,-93,o),
(400,-150,c),
(409,-152,o),
(418,-152,o),
(427,-152,cs)
);
}
);
width = 619;
},
{
anchors = (
{
name = bottom;
pos = (297,0);
},
{
name = top;
pos = (376,710);
}
);
associatedMasterId = "CDFC0212-EC7A-4000-86F8-EA19B9E6D7F9";
layerId = "C841A330-8BA7-4BAB-854B-B51BC43C28FB";
name = "Sep 29, 23, 17:41";
shapes = (
{
closed = 1;
nodes = (
(489,-152,o),
(552,-116,o),
(565,-69,c),
(531,12,o),
(517,51,o),
(517,87,cs),
(517,97,o),
(518,108,o),
(521,119,c),
(570,149,o),
(589,189,o),
(589,227,cs),
(589,288,o),
(538,345,o),
(489,345,cs),
(442,345,o),
(396,293,o),
(396,143,cs),
(396,142,l),
(380,136,o),
(365,133,o),
(350,133,cs),
(274,133,o),
(217,210,o),
(217,358,cs),
(217,475,o),
(279,601,o),
(357,601,cs),
(390,601,o),
(415,586,o),
(415,536,cs),
(415,513,o),
(410,483,o),
(397,444,c),
(523,444,o),
(582,510,o),
(582,579,cs),
(582,670,o),
(497,725,o),
(394,725,cs),
(237,725,o),
(39,600,o),
(39,301,cs),
(39,98,o),
(158,-6,o),
(285,-6,cs),
(319,-6,o),
(352,1,o),
(385,16,c),
(386,-35,o),
(390,-93,o),
(398,-150,c),
(407,-152,o),
(416,-152,o),
(425,-152,cs)
);
}
);
width = 621;
},
{
anchors = (
{
name = bottom;
pos = (297,0);
},
{
name = top;
pos = (376,710);
}
);
associatedMasterId = "CDFC0212-EC7A-4000-86F8-EA19B9E6D7F9";
layerId = "29CCA1A8-15BA-4114-8EAA-9E8E79F72741";
name = "Sep 29, 23, 17:41";
shapes = (
{
closed = 1;
nodes = (
(489,-152,o),
(552,-116,o),
(565,-69,c),
(531,12,o),
(517,51,o),
(517,87,cs),
(517,97,o),
(518,108,o),
(521,119,c),
(570,149,o),
(589,189,o),
(589,227,cs),
(589,288,o),
(538,345,o),
(489,345,cs),
(442,345,o),
(396,293,o),
(396,143,cs),
(396,142,l),
(380,136,o),
(365,133,o),
(350,133,cs),
(274,133,o),
(217,210,o),
(217,358,cs),
(217,475,o),
(279,601,o),
(357,601,cs),
(390,601,o),
(415,586,o),
(415,536,cs),
(415,513,o),
(410,483,o),
(397,444,c),
(523,444,o),
(582,510,o),
(582,579,cs),
(582,670,o),
(497,725,o),
(394,725,cs),
(237,725,o),
(39,600,o),
(39,301,cs),
(39,98,o),
(158,-6,o),
(285,-6,cs),
(319,-6,o),
(352,1,o),
(385,16,c),
(386,-35,o),
(390,-93,o),
(398,-150,c),
(407,-152,o),
(416,-152,o),
(425,-152,cs)
);
},
{
closed = 1;
nodes = (
(582,631,o),
(552,678,o),
(547,705,cs),
(528,804,o),
(553,855,o),
(585,855,cs),
(617,855,o),
(625,802,o),
(596,708,c),
(804,708,o),
(813,938,o),
(596,938,cs),
(472,938,o),
(322,834,o),
(489,644,c),
(582,579,l)
);
}
);
width = 621;
},
{
anchors = (
{
name = bottom;
pos = (297,0);
},
{
name = top;
pos = (376,710);
}
);
associatedMasterId = "CDFC0212-EC7A-4000-86F8-EA19B9E6D7F9";
layerId = "7F09563D-ECC3-44F4-875E-88A1F1C22879";
name = "Sep 29, 23, 17:42";
shapes = (
{
closed = 1;
nodes = (
(489,-152,o),
(552,-116,o),
(565,-69,c),
(531,12,o),
(517,51,o),
(517,87,cs),
(517,97,o),
(518,108,o),
(521,119,c),
(570,149,o),
(589,189,o),
(589,227,cs),
(589,288,o),
(538,345,o),
(489,345,cs),
(442,345,o),
(396,293,o),
(396,143,cs),
(396,142,l),
(380,136,o),
(365,133,o),
(350,133,cs),
(274,133,o),
(217,210,o),
(217,358,cs),
(217,475,o),
(279,601,o),
(357,601,cs),
(390,601,o),
(415,586,o),
(415,536,cs),
(415,513,o),
(410,483,o),
(397,444,c),
(523,444,o),
(582,510,o),
(582,573,cs),
(582,617,o),
(553,671,o),
(547,705,cs),
(528,804,o),
(553,855,o),
(585,855,cs),
(617,855,o),
(625,802,o),
(596,708,c),
(804,708,o),
(813,938,o),
(596,938,cs),
(490,938,o),
(365,862,o),
(435,722,c),
(422,724,o),
(408,725,o),
(394,725,cs),
(237,725,o),
(39,600,o),
(39,301,cs),
(39,98,o),
(158,-6,o),
(285,-6,cs),
(319,-6,o),
(352,1,o),
(385,16,c),
(386,-35,o),
(390,-93,o),
(398,-150,c),
(407,-152,o),
(416,-152,o),
(425,-152,cs)
);
}
);
width = 621;
},
{
anchors = (
{
name = bottom;
pos = (298,0);
},
{
name = top;
pos = (377,710);
}
);
associatedMasterId = "CDFC0212-EC7A-4000-86F8-EA19B9E6D7F9";
layerId = "9C9EBC98-9209-4FFB-8F95-FC693B78AD01";
name = "Sep 29, 23, 17:42";
shapes = (
{
closed = 1;
nodes = (
(490,-152,o),
(553,-116,o),
(566,-69,c),
(532,12,o),
(518,51,o),
(518,87,cs),
(518,97,o),
(519,108,o),
(522,119,c),
(571,149,o),
(590,189,o),
(590,227,cs),
(590,288,o),
(539,345,o),
(490,345,cs),
(443,345,o),
(397,293,o),
(397,143,cs),
(397,142,l),
(381,136,o),
(366,133,o),
(351,133,cs),
(275,133,o),
(218,210,o),
(218,340,cs),
(218,475,o),
(280,601,o),
(363,601,cs),
(391,601,o),
(416,586,o),
(416,536,cs),
(416,513,o),
(411,483,o),
(398,444,c),
(524,444,o),
(583,510,o),
(583,573,cs),
(583,617,o),
(554,671,o),
(543,727,cs),
(529,804,o),
(554,855,o),
(586,855,cs),
(618,855,o),
(626,802,o),
(597,708,c),
(805,708,o),
(814,938,o),
(609,938,cs),
(491,938,o),
(366,862,o),
(436,722,c),
(423,724,o),
(409,725,o),
(395,725,cs),
(238,725,o),
(40,600,o),
(40,317,cs),
(40,98,o),
(159,-6,o),
(287,-6,cs),
(320,-6,o),
(353,1,o),
(386,16,c),
(387,-35,o),
(391,-93,o),
(399,-150,c),
(408,-152,o),
(417,-152,o),
(426,-152,cs)
);
}
);
width = 618;
}
);
metricLeft = "=O";
unicode = 403;
},
{
glyphname = Glottalstopsmall;
lastChange = "2023-09-30 23:33:56 +0000";
layers = (
{
layerId = "CDFC0212-EC7A-4000-86F8-EA19B9E6D7F9";
shapes = (
{
closed = 1;
nodes = (
(214,-6,o),
(240,1,o),
(254,13,c),
(246,218,o),
(321,296,o),
(391,369,cs),
(433,413,o),
(475,457,o),
(475,537,cs),
(475,667,o),
(365,726,o),
(254,726,cs),
(118,726,o),
(37,636,o),
(37,559,cs),
(37,499,o),
(85,447,o),
(187,448,c),
(182,468,o),
(180,486,o),
(180,502,cs),
(180,579,o),
(225,618,o),
(264,618,cs),
(293,618,o),
(318,596,o),
(318,552,cs),
(318,499,o),
(283,459,o),
(251,422,cs),
(176,337,o),
(94,243,o),
(94,54,c),
(94,13,o),
(142,-6,o),
(187,-6,cs)
);
}
);
width = 470;
},
{
associatedMasterId = "CDFC0212-EC7A-4000-86F8-EA19B9E6D7F9";
layerId = "84CE9A41-E27A-41EE-97AF-5EC27AEEEBA6";
name = "Sep 30, 23, 19:33";
shapes = (
{
closed = 1;
nodes = (
(240,369,o),
(475,342,o),
(475,542,cs),
(475,667,o),
(365,726,o),
(262,726,cs),
(118,726,o),
(37,636,o),
(37,559,cs),
(37,499,o),
(85,447,o),
(187,448,c),
(182,468,o),
(180,486,o),
(180,502,cs),
(180,579,o),
(225,618,o),
(264,618,cs),
(293,618,o),
(318,596,o),
(318,551,cs),
(318,419,o),
(94,366,o),
(94,54,cs),
(94,13,o),
(142,-6,o),
(187,-6,cs),
(214,-6,o),
(240,1,o),
(254,13,c)
);
}
);
width = 470;
}
);
unicode = 577;
},
{
glyphname = Gstroke;
lastChange = "2023-10-03 15:00:13 +0000";
layers = (
{
anchors = (
{
name = bottom;
pos = (299,0);
},
{
name = top;
pos = (378,710);
}
);
layerId = "CDFC0212-EC7A-4000-86F8-EA19B9E6D7F9";
shapes = (
{
closed = 1;
nodes = (
(491,-152,o),
(554,-116,o),
(567,-69,c),
(533,12,o),
(519,51,o),
(519,87,cs),
(519,97,o),
(520,108,o),
(523,119,c),
(547,134,o),
(563,150,o),
(574,168,c),
(581,169,o),
(588,169,o),
(593,169,cs),
(639,171,o),
(657,198,o),
(657,224,cs),
(657,243,o),
(648,262,o),
(634,271,c),
(616,269,o),
(600,267,o),
(584,266,c),
(569,310,o),
(529,345,o),
(491,345,cs),
(460,345,o),
(429,322,o),
(412,262,c),
(384,264,o),
(354,267,o),
(318,271,c),
(298,258,o),
(288,239,o),
(288,221,cs),
(288,196,o),
(308,173,o),
(356,172,cs),
(365,172,o),
(382,171,o),
(399,170,c),
(398,162,o),
(398,153,o),
(398,143,cs),
(398,142,l),
(382,136,o),
(367,133,o),
(352,133,cs),
(276,133,o),
(219,210,o),
(219,340,cs),
(219,475,o),
(281,601,o),
(364,601,cs),
(392,601,o),
(417,586,o),
(417,536,cs),
(417,513,o),
(412,483,o),
(399,444,c),
(525,444,o),
(584,510,o),
(584,583,cs),
(584,670,o),
(499,725,o),
(395,725,cs),
(239,725,o),
(41,600,o),
(41,317,cs),
(41,98,o),
(160,-6,o),
(288,-6,cs),
(321,-6,o),
(354,1,o),
(387,16,c),
(388,-35,o),
(392,-93,o),
(400,-150,c),
(409,-152,o),
(418,-152,o),
(427,-152,cs)
);
}
);
width = 659;
},
{
associatedMasterId = "CDFC0212-EC7A-4000-86F8-EA19B9E6D7F9";
layerId = "1D2BDD2A-2EE4-45C3-91B0-205F88154F60";
name = "Sep 30, 23, 19:14";
shapes = (
{
ref = G;
},
{
closed = 1;
nodes = (
(268,240,o),
(278,174,o),
(346,172,cs),
(424,170,o),
(485,165,o),
(593,169,cs),
(668,172,o),
(667,248,o),
(632,271,c),
(505,256,o),
(451,255,o),
(316,271,c)
);
}
);
width = 657;
}
);
metricLeft = G;
unicode = 484;
},
{
glyphname = H;
lastChange = "2023-10-03 15:01:22 +0000";
layers = (
{
anchors = (
{
name = bottom;
pos = (323,0);
},
{
name = center;
pos = (354,355);
},
{
name = top;
pos = (385,710);
},
{
name = topleft;
pos = (47,710);
}
);
background = {
shapes = (
{
closed = 1;
nodes = (
(481,116,o),
(658,520,o),
(661,611,cs),
(664,685,o),
(631,720,o),
(583,720,cs),
(548,720,o),
(506,702,o),
(470,663,c),
(470,655,l),
(499,521,o),
(390,294,o),
(390,148,cs),
(390,-82,o),
(645,-23,o),
(650,138,c),
(644,141,l),
(633,121,o),
(617,111,o),
(599,112,cs)
);
},
{
closed = 1;
nodes = (
(197,208,o),
(292,397,o),
(298,576,cs),
(302,677,o),
(254,720,o),
(198,720,cs),
(125,720,o),
(39,648,o),
(36,532,c),
(43,530,l),
(82,606,o),
(132,604,o),
(130,535,cs),
(125,388,o),
(41,248,o),
(41,107,cs),
(41,-18,o),
(189,-50,o),
(240,76,c)
);
},
{
closed = 1;
nodes = (
(213,303,o),
(263,310,o),
(331,310,cs),
(382,310,o),
(442,306,o),
(517,297,c),
(527,320,o),
(535,350,o),
(536,376,cs),
(537,387,o),
(535,397,o),
(532,407,c),
(492,410,o),
(455,413,o),
(422,413,cs),
(307,413,o),
(231,387,o),
(162,301,c),
(163,291,l)
);
}
);
};
layerId = "CDFC0212-EC7A-4000-86F8-EA19B9E6D7F9";
shapes = (
{
closed = 1;
nodes = (
(181,-4,o),
(223,24,o),
(244,76,c),
(236,100,o),
(233,126,o),
(233,153,cs),
(233,201,o),
(243,253,o),
(255,306,c),
(279,309,o),
(306,310,o),
(335,310,cs),
(364,310,o),
(394,309,o),
(425,307,c),
(411,249,o),
(400,193,o),
(400,146,cs),
(400,40,o),
(456,-4,o),
(516,-4,cs),
(584,-4,o),
(657,53,o),
(660,138,c),
(654,141,l),
(644,122,o),
(628,112,o),
(609,112,cs),
(579,112,o),
(567,138,o),
(567,179,cs),
(567,240,o),
(593,334,o),
(620,429,cs),
(642,506,o),
(664,585,o),
(664,632,cs),
(664,694,o),
(625,722,o),
(581,722,cs),
(542,722,o),
(500,699,o),
(480,663,c),
(480,655,l),
(483,639,o),
(485,622,o),
(485,602,cs),
(485,546,o),
(470,480,o),
(453,413,c),
(427,413,ls),
(370,413,o),
(319,406,o),
(274,387,c),
(289,450,o),
(302,513,o),
(302,571,cs),
(302,680,o),
(256,720,o),
(200,720,cs),
(125,720,o),
(48,648,o),
(45,532,c),
(52,530,l),
(72,568,o),
(94,587,o),
(111,587,cs),
(127,587,o),
(138,572,o),
(138,527,cs),
(138,461,o),
(115,391,o),
(88,306,cs),
(71,254,o),
(50,188,o),
(50,126,cs),
(50,37,o),
(94,-4,o),
(142,-4,cs)
);
}
);
width = 685;
},
{
associatedMasterId = "CDFC0212-EC7A-4000-86F8-EA19B9E6D7F9";
background = {
shapes = (
{
closed = 1;
nodes = (
(160.2,365,l),
(290.2,341,o),
(391.2,342,o),
(501.2,385,c),
(501.2,303,l),
(391.2,260,o),
(290.2,259,o),
(160.2,283,c)
);
},
{
closed = 1;
nodes = (
(30.2,455,l),
(44.973,529.734,o),
(130.941,595.149,o),
(202.581,595.157,cs),
(257.239,595.163,o),
(303.557,557.098,o),
(303.557,456.054,cs),
(303.557,333.844,o),
(230.683,194.519,o),
(283.2,79,c),
(283.505,72.956,l),
(276.878,34.426,o),
(225.544,0.468,o),
(176.775,0.468,cs),
(129.846,0.468,o),
(85.293,32.077,o),
(85.241,121.472,cs),
(85.181,223.486,o),
(139.103,374.738,o),
(139.103,444.314,cs),
(139.103,504.135,o),
(78.751,493,o),
(54.2,441,c)
);
},
{
closed = 1;
nodes = (
(426.635,354.581,o),
(458.82,478.966,o),
(422.2,540,c),
(422.2,546,l),
(495.2,628,o),
(616.2,607,o),
(616.2,495,cs),
(616.2,373.833,o),
(514.347,98.503,o),
(594.058,98.503,cs),
(605.359,98.503,o),
(618.604,108.394,o),
(631.2,126,c),
(646.2,98,l),
(627.745,41.55,o),
(561.96,0.26,o),
(502.436,0.257,cs),
(392.228,0.253,o),
(387.728,124.382,o),
(401.319,204.794,cs)
);
}
);
};
layerId = "0CDD1436-3927-402D-A8E4-DD158B3F8A31";
name = "Jun 1, 23, 16:27";
shapes = (
{
closed = 1;
nodes = (
(43.464,-63.11,o),
(254.854,-16.531,o),
(259.555,118.11,cs),
(261.305,168.237,o),
(245.047,186.655,o),
(247.349,252.598,cs),
(250.427,340.747,o),
(306.112,455.056,o),
(310.208,572.365,cs),
(318.292,803.951,o),
(47.393,742.396,o),
(40.003,530.691,c),
(49.094,529.352,l),
(69.329,586.231,o),
(138.154,598.916,o),
(135.804,531.605,cs),
(132.889,448.097,o),
(54.544,254.251,o),
(50.309,132.966,cs)
);
},
{
closed = 1;
nodes = (
(393.074,-75.865,o),
(666.687,-17,o),
(672.301,143.813,c),
(665.541,147.205,l),
(655.273,127.274,o),
(639.059,117.371,o),
(620.551,118.112,cs),
(595.732,119.106,o),
(586.72,145.896,o),
(587.97,181.685,cs),
(591.648,287.064,o),
(679.983,510.746,o),
(683.488,611.154,cs),
(687.959,739.24,o),
(565.653,754.181,o),
(480.499,662.849,c),
(480.222,654.896,l),
(490.394,633.025,o),
(494.323,603.201,o),
(493.039,566.417,cs),
(490.332,488.874,o),
(443.385,368.583,o),
(414.297,247.298,cs),
(407.326,218.468,o),
(402.204,185.661,o),
(401.093,153.849,cs)
);
},
{
closed = 1;
nodes = (
(227.627,311,o),
(277.872,318,o),
(345.872,318,cs),
(396.872,318,o),
(456.732,314,o),
(532.418,305,c),
(542.221,328,o),
(550.268,358,o),
(551.176,384,cs),
(551.56,395,o),
(549.909,405,o),
(547.258,415,c),
(507.363,418,o),
(470.467,421,o),
(437.467,421,cs),
(322.467,421,o),
(245.56,395,o),
(176.557,309,c),
(178.208,299,l)
);
}
);
width = 708.61;
},
{
associatedMasterId = "CDFC0212-EC7A-4000-86F8-EA19B9E6D7F9";
background = {
shapes = (
{
closed = 1;
nodes = (
(160.2,365,l),
(290.2,341,o),
(391.2,342,o),
(501.2,385,c),
(501.2,303,l),
(391.2,260,o),
(290.2,259,o),
(160.2,283,c)
);
},
{
closed = 1;
nodes = (
(30.2,455,l),
(44.973,529.734,o),
(130.941,595.149,o),
(202.581,595.157,cs),
(257.239,595.163,o),
(303.557,557.098,o),
(303.557,456.054,cs),
(303.557,333.844,o),
(230.683,194.519,o),
(283.2,79,c),
(283.505,72.956,l),
(276.878,34.426,o),
(225.544,0.468,o),
(176.775,0.468,cs),
(129.846,0.468,o),
(85.293,32.077,o),
(85.241,121.472,cs),
(85.181,223.486,o),
(139.103,374.738,o),
(139.103,444.314,cs),
(139.103,504.135,o),
(78.751,493,o),
(54.2,441,c)
);
},
{
closed = 1;
nodes = (
(426.635,354.581,o),
(458.82,478.966,o),
(422.2,540,c),
(422.2,546,l),
(495.2,628,o),
(616.2,607,o),
(616.2,495,cs),
(616.2,373.833,o),
(514.347,98.503,o),
(594.058,98.503,cs),
(605.359,98.503,o),
(618.604,108.394,o),
(631.2,126,c),
(646.2,98,l),
(627.745,41.55,o),
(561.96,0.26,o),
(502.436,0.257,cs),
(392.228,0.253,o),
(387.728,124.382,o),
(401.319,204.794,cs)
);
}
);
};
layerId = "65B38381-C2D1-4BA7-BF92-C40EA463A2E6";
name = "Jun 7, 23, 12:41";
shapes = (
{
closed = 1;
nodes = (
(43.464,-63.11,o),
(254.854,-16.531,o),
(259.555,118.11,cs),
(261.305,168.237,o),
(245.047,186.655,o),
(247.349,252.598,cs),
(250.427,340.747,o),
(306.112,455.056,o),
(310.208,572.365,cs),
(318.292,803.951,o),
(47.393,742.396,o),
(40.003,530.691,c),
(49.094,529.352,l),
(69.329,586.231,o),
(138.154,598.916,o),
(135.804,531.605,cs),
(132.889,448.097,o),
(54.544,254.251,o),
(50.309,132.966,cs)
);
},
{
closed = 1;
nodes = (
(393.074,-75.865,o),
(666.687,-17,o),
(672.301,143.813,c),
(665.541,147.205,l),
(655.273,127.274,o),
(639.059,117.371,o),
(620.551,118.112,cs),
(595.732,119.106,o),
(586.72,145.896,o),
(587.97,181.685,cs),
(591.648,287.064,o),
(679.983,510.746,o),
(683.488,611.154,cs),
(687.959,739.24,o),
(565.653,754.181,o),
(480.499,662.849,c),
(480.222,654.896,l),
(490.394,633.025,o),
(494.323,603.201,o),
(493.039,566.417,cs),
(490.332,488.874,o),
(443.385,368.583,o),
(414.297,247.298,cs),
(407.326,218.468,o),
(402.204,185.661,o),
(401.093,153.849,cs)
);
},
{
closed = 1;
nodes = (
(227.627,311,o),
(277.872,318,o),
(345.872,318,cs),
(396.872,318,o),
(456.732,314,o),
(532.418,305,c),
(542.221,328,o),
(550.268,358,o),
(551.176,384,cs),
(551.56,395,o),
(549.909,405,o),
(547.258,415,c),
(507.363,418,o),
(470.467,421,o),
(437.467,421,cs),
(322.467,421,o),
(245.56,395,o),
(176.557,309,c),
(178.208,299,l)
);
}
);
width = 708.61;
},
{
anchors = (
{
name = bottom;
pos = (326,0);
},
{
name = center;
pos = (358,360);
},
{
name = top;
pos = (389,720);
},
{
name = topleft;
pos = (52,720);
}
);
associatedMasterId = "CDFC0212-EC7A-4000-86F8-EA19B9E6D7F9";
background = {
shapes = (
{
closed = 1;
nodes = (
(494,116,o),
(671,520,o),
(674,611,cs),
(677,685,o),
(644,720,o),
(596,720,cs),
(561,720,o),
(519,702,o),
(483,663,c),
(483,655,l),
(512,521,o),
(403,294,o),
(403,148,cs),
(403,-82,o),
(658,-23,o),
(663,138,c),
(657,141,l),
(646,121,o),
(630,111,o),
(612,112,cs)
);
},
{
closed = 1;
nodes = (
(210,208,o),
(305,397,o),
(311,576,cs),
(315,677,o),
(267,720,o),
(211,720,cs),
(138,720,o),
(52,648,o),
(49,532,c),
(56,530,l),
(95,606,o),
(145,604,o),
(143,535,cs),
(138,388,o),
(54,248,o),
(54,107,cs),
(54,-18,o),
(202,-50,o),
(253,76,c)
);
},
{
closed = 1;
nodes = (
(226,303,o),
(276,310,o),
(344,310,cs),
(395,310,o),
(455,306,o),
(530,297,c),
(540,320,o),
(548,350,o),
(549,376,cs),
(550,387,o),
(548,397,o),
(545,407,c),
(505,410,o),
(468,413,o),
(435,413,cs),
(320,413,o),
(244,387,o),
(175,301,c),
(176,291,l)
);
}
);
};
layerId = "6F50D155-D1D5-4A8A-B954-3330F3CD92E3";
name = "Aug 14, 23, 11:41";
shapes = (
{
closed = 1;
nodes = (
(494,116,o),
(667,503,o),
(667,625,cs),
(667,757,o),
(524,739,o),
(483,663,c),
(483,655,l),
(512,521,o),
(403,294,o),
(403,148,cs),
(403,-82,o),
(658,-23,o),
(663,138,c),
(657,141,l),
(646,121,o),
(630,111,o),
(612,112,cs)
);
},
{
closed = 1;
nodes = (
(210,208,o),
(305,397,o),
(311,576,cs),
(315,677,o),
(267,720,o),
(211,720,cs),
(138,720,o),
(61,648,o),
(58,532,c),
(65,530,l),
(104,606,o),
(154,604,o),
(152,535,cs),
(147,388,o),
(63,248,o),
(63,107,cs),
(63,-18,o),
(202,-50,o),
(253,76,c)
);
},
{
closed = 1;
nodes = (
(226,303,o),
(276,310,o),
(344,310,cs),
(395,310,o),
(455,306,o),
(530,297,c),
(540,320,o),
(548,350,o),
(549,376,cs),
(550,387,o),
(548,397,o),
(545,407,c),
(505,410,o),
(468,413,o),
(435,413,cs),
(320,413,o),
(244,387,o),
(175,301,c),
(176,291,l)
);
}
);
width = 705;
},
{
anchors = (
{
name = bottom;
pos = (336,0);
},
{
name = center;
pos = (367,355);
},
{
name = top;
pos = (398,710);
},
{
name = topleft;
pos = (60,710);
}
);
associatedMasterId = "CDFC0212-EC7A-4000-86F8-EA19B9E6D7F9";
background = {
shapes = (
{
closed = 1;
nodes = (
(494,116,o),
(671,520,o),
(674,611,cs),
(677,685,o),
(644,720,o),
(596,720,cs),
(561,720,o),
(519,702,o),
(483,663,c),
(483,655,l),
(512,521,o),
(403,294,o),
(403,148,cs),
(403,-82,o),
(658,-23,o),
(663,138,c),
(657,141,l),
(646,121,o),
(630,111,o),
(612,112,cs)
);
},
{
closed = 1;
nodes = (
(210,208,o),
(305,397,o),
(311,576,cs),
(315,677,o),
(267,720,o),
(211,720,cs),
(138,720,o),
(52,648,o),
(49,532,c),
(56,530,l),
(95,606,o),
(145,604,o),
(143,535,cs),
(138,388,o),
(54,248,o),
(54,107,cs),
(54,-18,o),
(202,-50,o),
(253,76,c)
);
},
{
closed = 1;
nodes = (
(226,303,o),
(276,310,o),
(344,310,cs),
(395,310,o),
(455,306,o),
(530,297,c),
(540,320,o),
(548,350,o),
(549,376,cs),
(550,387,o),
(548,397,o),
(545,407,c),
(505,410,o),
(468,413,o),
(435,413,cs),
(320,413,o),
(244,387,o),
(175,301,c),
(176,291,l)
);
}
);
};
layerId = "682C5C9F-E92B-4BB5-A401-1D1926334B20";
name = "Aug 29, 23, 12:45";
shapes = (
{
closed = 1;
nodes = (
(597,-4,o),
(670,53,o),
(673,138,c),
(667,141,l),
(657,122,o),
(641,112,o),
(622,112,cs),
(592,112,o),
(580,138,o),
(580,179,cs),
(580,296,o),
(677,534,o),
(677,632,cs),
(677,694,o),
(638,722,o),
(594,722,cs),
(555,722,o),
(513,699,o),
(493,663,c),
(493,655,l),
(496,639,o),
(498,622,o),
(498,602,cs),
(498,469,o),
(413,277,o),
(413,146,cs),
(413,40,o),
(469,-4,o),
(529,-4,cs)
);
},
{
closed = 1;
nodes = (
(194,-4,o),
(236,24,o),
(257,76,c),
(249,100,o),
(246,126,o),
(246,153,cs),
(246,280,o),
(315,438,o),
(315,571,cs),
(315,680,o),
(269,720,o),
(213,720,cs),
(138,720,o),
(61,648,o),
(58,532,c),
(65,530,l),
(85,568,o),
(107,587,o),
(124,587,cs),
(141,587,o),
(153,569,o),
(151,517,cs),
(147,388,o),
(63,248,o),
(63,126,cs),
(63,37,o),
(107,-4,o),
(155,-4,cs)
);
},
{
closed = 1;
nodes = (
(226,303,o),
(276,310,o),
(349,310,cs),
(405,310,o),
(465,306,o),
(540,297,c),
(551,322,o),
(559,354,o),
(559,379,cs),
(559,391,o),
(557,399,o),
(555,407,c),
(515,410,o),
(478,413,o),
(440,413,cs),
(330,413,o),
(244,387,o),
(175,301,c),
(176,291,l)
);
}
);
width = 715;
},
{
anchors = (
{
name = bottom;
pos = (323,0);
},
{
name = center;
pos = (354,355);
},
{
name = top;
pos = (385,710);
},
{
name = topleft;
pos = (47,710);
}
);
associatedMasterId = "CDFC0212-EC7A-4000-86F8-EA19B9E6D7F9";
background = {
shapes = (
{
closed = 1;
nodes = (
(481,116,o),
(658,520,o),
(661,611,cs),
(664,685,o),
(631,720,o),
(583,720,cs),
(548,720,o),
(506,702,o),
(470,663,c),
(470,655,l),
(499,521,o),
(390,294,o),
(390,148,cs),
(390,-82,o),
(645,-23,o),
(650,138,c),
(644,141,l),
(633,121,o),
(617,111,o),
(599,112,cs)
);
},
{
closed = 1;
nodes = (
(197,208,o),
(292,397,o),
(298,576,cs),
(302,677,o),
(254,720,o),
(198,720,cs),
(125,720,o),
(39,648,o),
(36,532,c),
(43,530,l),
(82,606,o),
(132,604,o),
(130,535,cs),
(125,388,o),
(41,248,o),
(41,107,cs),
(41,-18,o),
(189,-50,o),
(240,76,c)
);
},
{
closed = 1;
nodes = (
(213,303,o),
(263,310,o),
(331,310,cs),
(382,310,o),
(442,306,o),
(517,297,c),
(527,320,o),
(535,350,o),
(536,376,cs),
(537,387,o),
(535,397,o),
(532,407,c),
(492,410,o),
(455,413,o),
(422,413,cs),
(307,413,o),
(231,387,o),
(162,301,c),
(163,291,l)
);
}
);
};
layerId = "3675B8A9-3588-4A74-B71C-5630ECAF0896";
name = "Oct 1, 23, 18:38";
shapes = (
{
closed = 1;
nodes = (
(181,-4,o),
(223,24,o),
(244,76,c),
(236,100,o),
(233,126,o),
(233,153,cs),
(233,201,o),
(243,253,o),
(255,306,c),
(279,309,o),
(306,310,o),
(336,310,cs),
(364,310,o),
(394,309,o),
(425,307,c),
(411,249,o),
(400,193,o),
(400,146,cs),
(400,40,o),
(456,-4,o),
(516,-4,cs),
(584,-4,o),
(657,53,o),
(660,138,c),
(654,141,l),
(644,122,o),
(628,112,o),
(609,112,cs),
(579,112,o),
(567,138,o),
(567,179,cs),
(567,296,o),
(664,534,o),
(664,632,cs),
(664,694,o),
(625,722,o),
(581,722,cs),
(542,722,o),
(500,699,o),
(480,663,c),
(480,655,l),
(483,639,o),
(485,622,o),
(485,602,cs),
(485,546,o),
(470,480,o),
(453,413,c),
(427,413,ls),
(370,413,o),
(319,406,o),
(274,387,c),
(289,450,o),
(302,513,o),
(302,571,cs),
(302,680,o),
(256,720,o),
(200,720,cs),
(125,720,o),
(48,648,o),
(45,532,c),
(52,530,l),
(72,568,o),
(94,587,o),
(111,587,cs),
(128,587,o),
(140,569,o),
(138,517,cs),
(134,388,o),
(50,248,o),
(50,126,cs),
(50,37,o),
(94,-4,o),
(142,-4,cs)
);
}
);
width = 685;
}
);
metricLeft = "=20";
metricRight = "=15";
unicode = 72;
userData = {
KernOnName = H;
};
},
{
glyphname = Hbar;
lastChange = "2023-10-01 22:48:17 +0000";
layers = (
{
layerId = "CDFC0212-EC7A-4000-86F8-EA19B9E6D7F9";
shapes = (
{
closed = 1;
nodes = (
(209,-4,o),
(250,21,o),
(272,76,c),
(264,100,o),
(261,126,o),
(261,154,cs),
(261,182,o),
(264,213,o),
(270,246,c),
(287,247,o),
(306,248,o),
(328,248,cs),
(358,248,o),
(393,246,o),
(433,243,c),
(426,209,o),
(422,177,o),
(422,148,cs),
(422,40,o),
(478,-4,o),
(538,-4,cs),
(606,-4,o),
(679,53,o),
(682,138,c),
(676,141,l),
(666,122,o),
(650,112,o),
(632,112,cs),
(602,112,o),
(590,138,o),
(590,179,cs),
(590,245,o),
(621,350,o),
(649,442,c),
(683,442,ls),
(741,442,o),
(773,473,o),
(773,513,cs),
(773,529,o),
(768,546,o),
(759,564,c),
(748,558,o),
(721,554,o),
(682,552,c),
(688,577,o),
(693,598,o),
(694,621,cs),
(696,685,o),
(663,720,o),
(615,720,cs),
(580,720,o),
(538,702,o),
(502,663,c),
(502,655,l),
(506,640,o),
(507,623,o),
(507,605,cs),
(507,587,o),
(506,569,o),
(503,549,c),
(325,552,l),
(329,585,o),
(332,620,o),
(333,656,c),
(329,696,o),
(288,721,o),
(243,721,cs),
(205,721,o),
(164,703,o),
(140,663,c),
(140,657,l),
(150,639,o),
(154,607,o),
(153,556,c),
(123,556,ls),
(74,556,o),
(35,527,o),
(35,476,cs),
(35,464,o),
(37,449,o),
(43,434,c),
(58,442,o),
(94,446,o),
(143,449,c),
(121,333,o),
(73,220,o),
(73,128,cs),
(73,37,o),
(120,-4,o),
(170,-4,cs)
);
},
{
closed = 1;
nodes = (
(293,369,o),
(302,408,o),
(309,450,c),
(366,449,o),
(426,448,o),
(483,446,c),
(475,414,o),
(466,381,o),
(458,348,c),
(444,349,o),
(430,349,o),
(417,349,cs),
(367,349,o),
(324,344,o),
(286,332,c)
);
}
);
width = 770;
},
{
associatedMasterId = "CDFC0212-EC7A-4000-86F8-EA19B9E6D7F9";
layerId = "354FA133-5B07-40FD-8CD6-CDEE8782ABDC";
name = "Sep 30, 23, 14:46";
shapes = (
{
closed = 1;
nodes = (
(511,116,o),
(688,520,o),
(691,611,cs),
(694,685,o),
(661,720,o),
(613,720,cs),
(578,720,o),
(536,702,o),
(500,663,c),
(500,655,l),
(529,521,o),
(420,294,o),
(420,148,cs),
(420,-82,o),
(675,-23,o),
(680,138,c),
(674,141,l),
(663,121,o),
(647,111,o),
(629,112,cs)
);
},
{
closed = 1;
nodes = (
(227,208,o),
(322,397,o),
(331,656,c),
(324,731,o),
(190,750,o),
(138,663,c),
(138,657,l),
(149,637,o),
(153,598,o),
(151,535,cs),
(146,388,o),
(71,248,o),
(71,107,cs),
(71,-18,o),
(219,-50,o),
(270,76,c)
);
},
{
closed = 1;
nodes = (
(206,261,o),
(256,268,o),
(324,268,cs),
(375,268,o),
(435,264,o),
(510,254,c),
(520,277,o),
(528,307,o),
(529,333,cs),
(530,344,o),
(528,354,o),
(525,364,c),
(485,366,o),
(448,369,o),
(415,369,cs),
(300,369,o),
(224,344,o),
(155,259,c),
(156,249,l)
);
},
{
closed = 1;
nodes = (
(103,468,o),
(516,439,o),
(684,439,cs),
(764,439,o),
(794,510,o),
(760,589,c),
(709,555,o),
(251,579,o),
(124,579,cs),
(63,579,o),
(16,522,o),
(44,429,c)
);
}
);
width = 770;
},
{
associatedMasterId = "CDFC0212-EC7A-4000-86F8-EA19B9E6D7F9";
layerId = "71E8261E-1469-4847-8CFC-9A67A180F04C";
name = "Oct 1, 23, 18:48";
shapes = (
{
closed = 1;
nodes = (
(513,116,o),
(690,520,o),
(693,611,cs),
(696,685,o),
(663,720,o),
(615,720,cs),
(580,720,o),
(538,702,o),
(502,663,c),
(502,655,l),
(531,521,o),
(422,294,o),
(422,148,cs),
(422,-82,o),
(677,-23,o),
(682,138,c),
(676,141,l),
(665,121,o),
(649,111,o),
(631,112,cs)
);
},
{
closed = 1;
nodes = (
(229,208,o),
(324,397,o),
(333,656,c),
(326,731,o),
(192,750,o),
(140,663,c),
(140,657,l),
(151,637,o),
(155,598,o),
(153,535,cs),
(148,388,o),
(73,248,o),
(73,107,cs),
(73,-18,o),
(221,-50,o),
(272,76,c)
);
},
{
closed = 1;
nodes = (
(208,241,o),
(258,248,o),
(326,248,cs),
(377,248,o),
(437,244,o),
(512,234,c),
(522,257,o),
(530,287,o),
(531,313,cs),
(532,324,o),
(530,334,o),
(527,344,c),
(487,346,o),
(450,349,o),
(417,349,cs),
(302,349,o),
(226,324,o),
(157,239,c),
(158,229,l)
);
},
{
closed = 1;
nodes = (
(102,466,o),
(515,442,o),
(683,442,cs),
(763,442,o),
(793,500,o),
(759,564,c),
(708,536,o),
(250,556,o),
(123,556,cs),
(62,556,o),
(15,510,o),
(43,434,c)
);
}
);
width = 770;
}
);
unicode = 294;
},
{
glyphname = Hhook;
lastChange = "2023-09-30 23:33:26 +0000";
layers = (
{
layerId = "CDFC0212-EC7A-4000-86F8-EA19B9E6D7F9";
shapes = (
{
closed = 1;
nodes = (
(273,-4,o),
(314,21,o),
(336,76,c),
(328,100,o),
(325,127,o),
(325,154,cs),
(325,201,o),
(334,253,o),
(346,306,c),
(371,309,o),
(397,310,o),
(425,310,cs),
(453,310,o),
(480,309,o),
(511,307,c),
(497,249,o),
(486,195,o),
(486,147,cs),
(486,40,o),
(542,-4,o),
(602,-4,cs),
(670,-4,o),
(743,53,o),
(746,138,c),
(740,141,l),
(730,122,o),
(714,112,o),
(696,112,cs),
(667,112,o),
(654,138,o),
(654,180,cs),
(654,298,o),
(755,543,o),
(758,631,cs),
(760,685,o),
(727,720,o),
(679,720,cs),
(644,720,o),
(602,702,o),
(566,663,c),
(566,655,l),
(569,640,o),
(571,623,o),
(571,603,cs),
(571,548,o),
(556,481,o),
(539,413,c),
(518,413,ls),
(458,413,o),
(408,406,o),
(365,387,c),
(380,452,o),
(394,518,o),
(394,569,cs),
(394,679,o),
(327,720,o),
(249,720,cs),
(146,720,o),
(35,648,o),
(35,542,cs),
(35,481,o),
(72,433,o),
(124,433,cs),
(148,433,o),
(175,443,o),
(203,467,c),
(185,493,o),
(178,517,o),
(178,537,cs),
(178,571,o),
(197,594,o),
(214,594,cs),
(229,594,o),
(242,577,o),
(242,534,cs),
(242,410,o),
(137,279,o),
(137,107,c),
(137,37,o),
(184,-4,o),
(234,-4,cs)
);
}
);
width = 786;
},
{
associatedMasterId = "CDFC0212-EC7A-4000-86F8-EA19B9E6D7F9";
layerId = "6577979B-B477-4463-8302-A91CF1489F52";
name = "Sep 30, 23, 19:32";
shapes = (
{
closed = 1;
nodes = (
(293,208,o),
(388,397,o),
(394,576,cs),
(398,677,o),
(329,720,o),
(252,720,cs),
(146,720,o),
(35,648,o),
(35,532,cs),
(35,457,o),
(113,390,o),
(203,467,c),
(128,571,o),
(244,654,o),
(242,535,cs),
(240,408,o),
(137,278,o),
(137,107,cs),
(137,-18,o),
(285,-50,o),
(336,76,c)
);
},
{
closed = 1;
nodes = (
(309,303,o),
(359,310,o),
(427,310,cs),
(478,310,o),
(538,306,o),
(613,297,c),
(623,320,o),
(631,350,o),
(632,376,cs),
(633,387,o),
(631,397,o),
(628,407,c),
(588,410,o),
(551,413,o),
(518,413,cs),
(403,413,o),
(327,387,o),
(258,301,c),
(259,291,l)
);
},
{
closed = 1;
nodes = (
(577,116,o),
(754,520,o),
(757,611,cs),
(760,685,o),
(727,720,o),
(679,720,cs),
(644,720,o),
(602,702,o),
(566,663,c),
(566,655,l),
(595,521,o),
(486,294,o),
(486,148,cs),
(486,-82,o),
(741,-23,o),
(746,138,c),
(740,141,l),
(729,121,o),
(713,111,o),
(695,112,cs)
);
}
);
width = 786;
}
);
unicode = 42922;
},
{
glyphname = Hturned;
lastChange = "2023-09-27 15:53:46 +0000";
layers = (
{
associatedMasterId = "CDFC0212-EC7A-4000-86F8-EA19B9E6D7F9";
layerId = "3BC6FC69-20DC-4D4D-AB73-6A2C0A8F17FA";
name = "Sep 27, 23, 11:39";
shapes = (
{
angle = 180;
pos = (596,720);
ref = h;
}
);
width = 577;
},
{
anchors = (
{
name = bottom;
pos = (409,20);
},
{
name = center;
pos = (294,320);
},
{
name = top;
pos = (329,720);
},
{
name = top_cedilla;
pos = (494,720);
}
);
associatedMasterId = "CDFC0212-EC7A-4000-86F8-EA19B9E6D7F9";
layerId = "67845C18-D537-4B22-86B0-247BEAD1ECF4";
name = "Sep 27, 23, 11:46";
shapes = (
{
closed = 1;
nodes = (
(281,146,o),
(391,224,o),
(465,400,c),
(415,334,l),
(414,138,o),
(464,-4,o),
(537,-4,cs),
(609,-4,o),
(670,64,o),
(670,193,c),
(662,197,l),
(649,158,o),
(628,139,o),
(609,139,cs),
(575,139,o),
(564,182,o),
(564,240,cs),
(564,284,o),
(571,337,o),
(580,384,c),
(654,462,o),
(681,542,o),
(681,604,cs),
(681,673,o),
(647,721,o),
(603,721,cs),
(536,721,o),
(444,679,o),
(419,358,c),
(470,526,l),
(427,441,o),
(354,319,o),
(297,319,cs),
(269,319,o),
(259,339,o),
(259,371,cs),
(259,460,o),
(306,492,o),
(306,609,cs),
(306,686,o),
(263,720,o),
(210,720,cs),
(136,720,o),
(49,649,o),
(43,532,c),
(53,528,l),
(64,560,o),
(90,582,o),
(108,582,cs),
(121,582,o),
(130,572,o),
(130,549,cs),
(130,474,o),
(86,428,o),
(86,290,cs),
(86,206,o),
(132,146,o),
(203,146,cs)
);
}
);
width = 577;
},
{
anchors = (
{
name = bottom;
pos = (409,20);
},
{
name = center;
pos = (294,320);
},
{
name = top;
pos = (329,720);
},
{
name = top_cedilla;
pos = (494,720);
}
);
layerId = "CDFC0212-EC7A-4000-86F8-EA19B9E6D7F9";
name = Regular;
shapes = (
{
closed = 1;
nodes = (
(374,401,o),
(300,349,o),
(256,349,cs),
(237,349,o),
(231,362,o),
(232,384,cs),
(235,435,o),
(277,533,o),
(281,603,cs),
(285,686,o),
(235,720,o),
(180,720,cs),
(118,720,o),
(50,677,o),
(46,599,c),
(52,594,l),
(58,605,o),
(71,615,o),
(85,615,cs),
(103,615,o),
(110,599,o),
(108,574,cs),
(105,515,o),
(63,443,o),
(59,359,cs),
(49,158,o),
(281,206,o),
(374,370,c),
(396,489,l)
);
},
{
closed = 1;
nodes = (
(429,194,o),
(578,444,o),
(587,611,cs),
(591,690,o),
(549,722,o),
(503,722,cs),
(462,722,o),
(419,697,o),
(401,654,c),
(402,651,l),
(408,640,o),
(410,616,o),
(409,581,cs),
(404,448,o),
(308,242,o),
(302,125,cs),
(297,35,o),
(339,-4,o),
(394,-4,cs),
(427,-4,o),
(477,17,o),
(499,75,c)
);
}
);
width = 577;
},
{
anchors = (
{
name = bottom;
pos = (409,20);
},
{
name = center;
pos = (294,320);
},
{
name = top;
pos = (329,720);
},
{
name = top_cedilla;
pos = (494,720);
}
);
associatedMasterId = "CDFC0212-EC7A-4000-86F8-EA19B9E6D7F9";
layerId = "7391D10A-7AC4-4B14-A0F1-614416B6AE50";
name = "Sep 27, 23, 11:46";
shapes = (
{
closed = 1;
nodes = (
(423,720,o),
(387,673,o),
(384,612,cs),
(382,571,o),
(396,543,o),
(394,509,cs),
(394,502,o),
(392,495,o),
(391,488,cs),
(377,427,o),
(300,349,o),
(256,349,cs),
(237,349,o),
(231,362,o),
(232,384,cs),
(235,435,o),
(277,533,o),
(281,603,cs),
(285,686,o),
(235,720,o),
(180,720,cs),
(118,720,o),
(50,677,o),
(46,599,c),
(52,594,l),
(58,605,o),
(71,615,o),
(85,615,cs),
(103,615,o),
(110,599,o),
(108,574,cs),
(105,515,o),
(63,404,o),
(59,320,cs),
(56,259,o),
(72,212,o),
(138,212,cs),
(227,212,o),
(322,296,o),
(364,370,c),
(338,290,o),
(304,162,o),
(301,103,cs),
(297,32,o),
(337,-4,o),
(387,-4,cs),
(420,-4,o),
(458,12,o),
(489,45,c),
(489,51,l),
(481,66,o),
(478,90,o),
(480,121,cs),
(488,274,o),
(570,522,o),
(574,612,cs),
(578,679,o),
(542,720,o),
(485,720,cs)
);
}
);
width = 577;
},
{
anchors = (
{
name = bottom;
pos = (409,20);
},
{
name = center;
pos = (294,320);
},
{
name = top;
pos = (329,720);
},
{
name = top_cedilla;
pos = (494,720);
}
);
associatedMasterId = "CDFC0212-EC7A-4000-86F8-EA19B9E6D7F9";
layerId = "06C05869-FB6E-4BEB-B0F4-0994D54A8673";
name = "Sep 27, 23, 11:47";
shapes = (
{
closed = 0;
nodes = (
(336,209,l),
(344,54,o),
(391,-4,o),
(457,-4,cs),
(529,-4,o),
(590,64,o),
(590,193,c),
(582,197,l),
(569,158,o),
(548,139,o),
(529,139,cs),
(495,139,o),
(484,182,o),
(484,240,cs),
(484,284,o),
(491,337,o),
(500,384,c),
(574,462,o),
(601,542,o),
(601,604,cs),
(601,673,o),
(567,721,o),
(523,721,cs),
(460,721,o),
(376,623,o),
(345,347,c)
);
},
{
closed = 0;
nodes = (
(391,488,l),
(377,427,o),
(300,349,o),
(256,349,cs),
(237,349,o),
(231,362,o),
(232,384,cs),
(235,435,o),
(277,533,o),
(281,603,cs),
(285,686,o),
(235,720,o),
(180,720,cs),
(118,720,o),
(50,677,o),
(46,599,c),
(52,594,l),
(58,605,o),
(71,615,o),
(85,615,cs),
(103,615,o),
(110,599,o),
(108,574,cs),
(105,515,o),
(63,404,o),
(59,320,cs),
(56,259,o),
(72,212,o),
(138,212,cs),
(227,212,o),
(322,296,o),
(364,370,c)
);
}
);
width = 577;
},
{
anchors = (
{
name = bottom;
pos = (409,20);
},
{
name = center;
pos = (294,320);
},
{
name = top;
pos = (329,720);
},
{
name = top_cedilla;
pos = (494,720);
}
);
associatedMasterId = "CDFC0212-EC7A-4000-86F8-EA19B9E6D7F9";
layerId = "9E715E24-2D60-4869-ACFB-28BEE3748CBF";
name = "Sep 27, 23, 11:47";
shapes = (
{
closed = 0;
nodes = (
(391,488,l),
(377,427,o),
(300,349,o),
(256,349,cs),
(237,349,o),
(231,362,o),
(232,384,cs),
(235,435,o),
(277,533,o),
(281,603,cs),
(285,686,o),
(235,720,o),
(180,720,cs),
(118,720,o),
(50,677,o),
(46,599,c),
(52,594,l),
(58,605,o),
(71,615,o),
(85,615,cs),
(103,615,o),
(110,599,o),
(108,574,cs),
(105,515,o),
(63,404,o),
(59,320,cs),
(56,259,o),
(72,212,o),
(138,212,cs),
(227,212,o),
(322,296,o),
(364,370,c)
);
},
{
closed = 1;
nodes = (
(497,-4,o),
(563,48,o),
(565,120,c),
(557,122,l),
(553,112,o),
(538,98,o),
(523,98,cs),
(510,98,o),
(497,110,o),
(497,147,cs),
(497,236,o),
(574,476,o),
(574,611,cs),
(574,690,o),
(530,722,o),
(484,722,cs),
(443,722,o),
(401,697,o),
(386,654,c),
(387,651,l),
(393,640,o),
(397,616,o),
(397,581,cs),
(399,448,o),
(324,242,o),
(324,139,cs),
(324,35,o),
(379,-4,o),
(434,-4,cs)
);
}
);
width = 577;
},
{
anchors = (
{
name = bottom;
pos = (409,20);
},
{
name = center;
pos = (294,320);
},
{
name = top;
pos = (329,720);
},
{
name = top_cedilla;
pos = (494,720);
}
);
associatedMasterId = "CDFC0212-EC7A-4000-86F8-EA19B9E6D7F9";
layerId = "5C29C803-EB36-426F-ACFD-632EE9C2CD6F";
name = "Sep 27, 23, 11:48";
shapes = (
{
closed = 0;
nodes = (
(391,488,l),
(377,427,o),
(300,349,o),
(256,349,cs),
(237,349,o),
(231,362,o),
(232,384,cs),
(235,435,o),
(277,533,o),
(281,603,cs),
(285,686,o),
(235,720,o),
(180,720,cs),
(118,720,o),
(50,677,o),
(46,599,c),
(52,594,l),
(58,605,o),
(71,615,o),
(85,615,cs),
(103,615,o),
(110,599,o),
(108,574,cs),
(105,515,o),
(63,404,o),
(59,320,cs),
(56,259,o),
(72,212,o),
(138,212,cs),
(227,212,o),
(322,296,o),
(364,370,c)
);
},
{
closed = 1;
nodes = (
(468,-4,o),
(537,48,o),
(542,120,c),
(535,122,l),
(530,112,o),
(514,98,o),
(499,98,cs),
(486,98,o),
(474,110,o),
(476,147,cs),
(481,236,o),
(570,476,o),
(577,611,cs),
(581,690,o),
(539,722,o),
(493,722,cs),
(452,722,o),
(409,697,o),
(391,654,c),
(392,651,l),
(398,640,o),
(400,616,o),
(399,581,cs),
(394,448,o),
(308,242,o),
(302,139,cs),
(297,35,o),
(350,-4,o),
(405,-4,cs)
);
}
);
width = 577;
},
{
anchors = (
{
name = bottom;
pos = (409,20);
},
{
name = center;
pos = (294,320);
},
{
name = top;
pos = (329,720);
},
{
name = top_cedilla;
pos = (494,720);
}
);
associatedMasterId = "CDFC0212-EC7A-4000-86F8-EA19B9E6D7F9";
layerId = "9284E084-E1C0-4F30-92BA-661724578288";
name = "Sep 27, 23, 11:51";
shapes = (
{
closed = 1;
nodes = (
(374,427,o),
(300,349,o),
(256,349,cs),
(237,349,o),
(231,362,o),
(232,384,cs),
(235,435,o),
(277,533,o),
(281,603,cs),
(285,686,o),
(235,720,o),
(180,720,cs),
(118,720,o),
(50,677,o),
(46,599,c),
(52,594,l),
(58,605,o),
(71,615,o),
(85,615,cs),
(103,615,o),
(110,599,o),
(108,574,cs),
(105,515,o),
(63,443,o),
(59,359,cs),
(49,158,o),
(281,206,o),
(374,370,c),
(401,488,l)
);
},
{
closed = 1;
nodes = (
(495,143,l),
(489,149,o),
(485,160,o),
(486,178,cs),
(491,267,o),
(580,476,o),
(587,611,cs),
(591,690,o),
(549,722,o),
(503,722,cs),
(462,722,o),
(419,697,o),
(401,654,c),
(402,651,l),
(408,640,o),
(410,616,o),
(409,581,cs),
(404,448,o),
(318,242,o),
(312,139,cs),
(307,35,o),
(360,-4,o),
(415,-4,cs),
(448,-4,o),
(484,9,o),
(514,42,c)
);
}
);
width = 577;
},
{
anchors = (
{
name = bottom;
pos = (409,20);
},
{
name = center;
pos = (294,320);
},
{
name = top;
pos = (329,720);
},
{
name = top_cedilla;
pos = (494,720);
}
);
associatedMasterId = "CDFC0212-EC7A-4000-86F8-EA19B9E6D7F9";
layerId = "486E6D01-18F1-4B02-8819-41ABC0E2FA32";
name = "Sep 27, 23, 11:52";
shapes = (
{
closed = 1;
nodes = (
(374,427,o),
(300,349,o),
(256,349,cs),
(237,349,o),
(231,362,o),
(232,384,cs),
(235,435,o),
(277,533,o),
(281,603,cs),
(285,686,o),
(235,720,o),
(180,720,cs),
(118,720,o),
(50,677,o),
(46,599,c),
(52,594,l),
(58,605,o),
(71,615,o),
(85,615,cs),
(103,615,o),
(110,599,o),
(108,574,cs),
(105,515,o),
(63,443,o),
(59,359,cs),
(49,158,o),
(281,206,o),
(374,370,c),
(401,488,l)
);
},
{
closed = 1;
nodes = (
(500,96,o),
(482,130,o),
(486,178,cs),
(493,266,o),
(580,476,o),
(587,611,cs),
(591,690,o),
(549,722,o),
(503,722,cs),
(462,722,o),
(419,697,o),
(401,654,c),
(402,651,l),
(408,640,o),
(410,616,o),
(409,581,cs),
(404,448,o),
(318,242,o),
(312,125,cs),
(307,35,o),
(349,-4,o),
(404,-4,cs),
(437,-4,o),
(487,17,o),
(509,75,c)
);
}
);
width = 577;
}
);
unicode = 42893;
},
{
glyphname = I;
lastChange = "2023-10-03 14:59:48 +0000";
layers = (
{
associatedMasterId = "CDFC0212-EC7A-4000-86F8-EA19B9E6D7F9";
background = {
shapes = (
{
closed = 1;
nodes = (
(68.01,546,l),
(141.01,628,o),
(261.01,607,o),
(261.01,495,cs),
(261.01,373.833,o),
(159.157,89.764,o),
(238.868,89.764,c),
(238.928,9.794,o),
(39.691,-81.335,o),
(40.002,128.791,cs),
(40.166,239.741,o),
(116.907,458.504,o),
(68.01,540,c)
);
}
);
};
layerId = "4E7B714F-ED6E-4DEB-BADC-14CE4F521997";
name = "May 29, 23, 14:22";
shapes = (
{
closed = 1;
nodes = (
(68.01,551,l),
(141.01,633,o),
(261.01,612,o),
(261.01,500,cs),
(261.01,378.833,o),
(159.157,89.764,o),
(238.868,89.764,c),
(259.403,9.794,o),
(39.691,-81.335,o),
(40.002,128.791,cs),
(40.166,239.741,o),
(116.907,463.504,o),
(68.01,545,c)
);
}
);
width = 281.01;
},
{
anchors = (
{
name = bottom;
pos = (107,0);
},
{
name = ogonek;
pos = (225,10);
},
{
name = top;
pos = (209,710);
},
{
name = topleft;
pos = (42,710);
}
);
background = {
shapes = (
{
closed = 1;
nodes = (
(74,546,l),
(147,628,o),
(267,607,o),
(267,495,cs),
(267,374,o),
(166,90,o),
(245,90,c),
(245,10,o),
(46,-81,o),
(46,129,cs),
(47,240,o),
(123,459,o),
(74,540,c)
);
}
);
};
layerId = "CDFC0212-EC7A-4000-86F8-EA19B9E6D7F9";
name = Regular;
shapes = (
{
closed = 1;
nodes = (
(124,-5,o),
(160,16,o),
(176,33,c),
(177,64,o),
(180,95,o),
(182,118,cs),
(204,373,o),
(262,604,o),
(279,657,c),
(268,705,o),
(236,723,o),
(202,723,cs),
(162,723,o),
(119,698,o),
(104,658,cs),
(84,601,o),
(32,272,o),
(20,138,cs),
(20,133,o),
(19,121,o),
(19,106,cs),
(19,21,o),
(53,-5,o),
(90,-5,cs)
);
}
);
width = 268;
},
{
associatedMasterId = "CDFC0212-EC7A-4000-86F8-EA19B9E6D7F9";
background = {
shapes = (
{
closed = 1;
nodes = (
(66.01,546,l),
(139.01,628,o),
(259.01,607,o),
(259.01,495,cs),
(259.01,373.833,o),
(157.157,89.764,o),
(236.868,89.764,c),
(236.928,9.794,o),
(37.691,-81.335,o),
(38.002,128.791,cs),
(38.166,239.741,o),
(114.907,458.504,o),
(66.01,540,c)
);
}
);
};
layerId = "82A91246-D292-4D28-9573-3E96B2000F77";
name = "May 31, 23, 14:55";
shapes = (
{
closed = 1;
nodes = (
(241,-30.07,o),
(241,106,c),
(183.498,237.641,o),
(276,470.588,o),
(276,602,cs),
(276,733.113,o),
(148.802,762.366,o),
(66,662,c),
(66,655,l),
(114.907,458.504,o),
(25,264.391,o),
(25,127.013,cs),
(25,-46.521,o)
);
}
);
width = 296;
},
{
associatedMasterId = "CDFC0212-EC7A-4000-86F8-EA19B9E6D7F9";
background = {
shapes = (
{
closed = 1;
nodes = (
(40.89,546,l),
(113.89,628,o),
(233.89,607,o),
(233.89,495,cs),
(233.89,373.833,o),
(132.037,89.764,o),
(211.748,89.764,c),
(211.808,9.794,o),
(12.571,-81.335,o),
(12.882,128.791,cs),
(13.046,239.741,o),
(89.787,458.504,o),
(40.89,540,c)
);
}
);
};
layerId = "07F70BDE-7513-4F9F-A52F-BB183CC55F75";
name = "May 31, 23, 15:17";
shapes = (
{
closed = 1;
nodes = (
(248.449,712.834,o),
(201.6,733,o),
(117.804,713,c),
(50.329,614.682,o),
(-92.66,-1.23,o),
(104.512,-1.23,cs),
(154.496,-1.23,o),
(205.176,33.467,o),
(205.176,63.039,c),
(156.241,209.555,o),
(225.297,560.344,o),
(277.34,676.672,c)
);
}
);
width = 268.34;
},
{
associatedMasterId = "CDFC0212-EC7A-4000-86F8-EA19B9E6D7F9";
background = {
shapes = (
{
closed = 1;
nodes = (
(80.41,546,l),
(153.41,628,o),
(273.41,607,o),
(273.41,495,cs),
(273.41,373.833,o),
(171.557,89.764,o),
(251.268,89.764,c),
(251.328,9.794,o),
(52.091,-81.335,o),
(52.402,128.791,cs),
(52.566,239.741,o),
(129.307,458.504,o),
(80.41,540,c)
);
}
);
};
layerId = "9F07A3BE-763F-475A-84BA-BD3D12677F35";
name = "Jun 7, 23, 12:22";
shapes = (
{
closed = 1;
nodes = (
(217,317,o),
(269,593,o),
(295.696,653.424,c),
(263.131,761.87,o),
(118.011,714.891,o),
(110.409,671.227,cs),
(99.912,610.929,o),
(36.742,265.34,o),
(30.051,73.687,cs),
(27.054,-12.164,o),
(155.208,-21.544,o),
(213.847,36.417,c)
);
}
);
width = 295.7;
},
{
associatedMasterId = "CDFC0212-EC7A-4000-86F8-EA19B9E6D7F9";
background = {
shapes = (
{
closed = 1;
nodes = (
(80,546,l),
(153,628,o),
(273,607,o),
(273,495,cs),
(273,374,o),
(172,90,o),
(251,90,c),
(251,10,o),
(52,-81,o),
(52,129,cs),
(53,240,o),
(129,459,o),
(80,540,c)
);
}
);
};
layerId = "6FA43021-4809-43F6-AA1D-D833D2B25E56";
name = "Jul 5, 23, 17:52";
shapes = (
{
closed = 1;
nodes = (
(200,317,o),
(252,593,o),
(279,653,c),
(246,762,o),
(118,715,o),
(110,671,cs),
(100,611,o),
(37,265,o),
(30,74,cs),
(27,-12,o),
(138,-22,o),
(197,36,c)
);
}
);
width = 289;
},
{
anchors = (
{
name = bottom;
pos = (110,0);
},
{
name = ogonek;
pos = (243,10);
},
{
name = top;
pos = (243,720);
},
{
name = topleft;
pos = (61,720);
}
);
associatedMasterId = "CDFC0212-EC7A-4000-86F8-EA19B9E6D7F9";
background = {
shapes = (
{
closed = 1;
nodes = (
(97,546,l),
(170,628,o),
(290,607,o),
(290,495,cs),
(290,374,o),
(189,90,o),
(268,90,c),
(268,10,o),
(69,-81,o),
(69,129,cs),
(70,240,o),
(146,459,o),
(97,540,c)
);
}
);
};
layerId = "72A5379A-F6A6-4F6C-BEAE-2B0294075F3D";
name = "Aug 14, 23, 12:12";
shapes = (
{
closed = 1;
nodes = (
(215,314,o),
(291,597,o),
(311,657,c),
(299,706,o),
(266,723,o),
(232,723,cs),
(191,723,o),
(148,698,o),
(139,675,cs),
(116,615,o),
(49,262,o),
(32,71,cs),
(28,21,o),
(64,-4,o),
(107,-4,cs),
(137,-4,o),
(171,9,o),
(197,33,c)
);
}
);
width = 323;
},
{
anchors = (
{
name = bottom;
pos = (115,0);
},
{
name = ogonek;
pos = (257,10);
},
{
name = top;
pos = (227,710);
},
{
name = topleft;
pos = (60,710);
}
);
associatedMasterId = "CDFC0212-EC7A-4000-86F8-EA19B9E6D7F9";
background = {
shapes = (
{
closed = 1;
nodes = (
(92,546,l),
(165,628,o),
(285,607,o),
(285,495,cs),
(285,374,o),
(184,90,o),
(263,90,c),
(263,10,o),
(64,-81,o),
(64,129,cs),
(65,240,o),
(141,459,o),
(92,540,c)
);
}
);
};
layerId = "4C12A505-10E4-479C-9E51-E12F21897976";
name = "Aug 29, 23, 12:45";
shapes = (
{
closed = 1;
nodes = (
(142,-5,o),
(178,16,o),
(194,33,c),
(207,314,o),
(278,597,o),
(297,657,c),
(286,705,o),
(254,723,o),
(220,723,cs),
(180,723,o),
(137,698,o),
(125,664,cs),
(103,605,o),
(37,203,o),
(37,113,cs),
(37,21,o),
(71,-5,o),
(108,-5,cs)
);
}
);
width = 309;
},
{
anchors = (
{
name = bottom;
pos = (107,0);
},
{
name = ogonek;
pos = (225,10);
},
{
name = top;
pos = (209,710);
},
{
name = topleft;
pos = (42,710);
}
);
associatedMasterId = "CDFC0212-EC7A-4000-86F8-EA19B9E6D7F9";
background = {
shapes = (
{
closed = 1;
nodes = (
(74,546,l),
(147,628,o),
(267,607,o),
(267,495,cs),
(267,374,o),
(166,90,o),
(245,90,c),
(245,10,o),
(46,-81,o),
(46,129,cs),
(47,240,o),
(123,459,o),
(74,540,c)
);
}
);
};
layerId = "D2D56249-0A73-4306-B552-CD94CB83B995";
name = "Oct 1, 23, 18:38";
shapes = (
{
closed = 1;
nodes = (
(124,-5,o),
(160,16,o),
(176,33,c),
(189,314,o),
(260,597,o),
(279,657,c),
(268,705,o),
(236,723,o),
(202,723,cs),
(162,723,o),
(119,698,o),
(107,664,cs),
(85,605,o),
(19,203,o),
(19,113,cs),
(19,21,o),
(53,-5,o),
(90,-5,cs)
);
}
);
width = 268;
}
);
metricLeft = "=30";
metricRight = "=25";
unicode = 73;
userData = {
KernOnName = I;
};
},
{
glyphname = IJ;
lastChange = "2023-10-03 15:11:08 +0000";
layers = (
{
layerId = "CDFC0212-EC7A-4000-86F8-EA19B9E6D7F9";
shapes = (
{
ref = I;
},
{
pos = (292,0);
ref = J;
}
);
width = 824;
},
{
associatedMasterId = "CDFC0212-EC7A-4000-86F8-EA19B9E6D7F9";
layerId = "73E12B63-2615-49AB-B9AF-E30802F619C4";
name = "Jul 26, 23, 14:08";
shapes = (
{
ref = I;
},
{
pos = (268,0);
ref = J;
}
);
width = 800;
},
{
associatedMasterId = "CDFC0212-EC7A-4000-86F8-EA19B9E6D7F9";
layerId = "1A73DA3A-E4AC-4FF3-9B0D-16DA3A546785";
name = "Jul 26, 23, 14:19";
shapes = (
{
closed = 1;
nodes = (
(140,119,o),
(108,131,o),
(77,154,c),
(65,148,l),
(65,-26,o),
(369,-100,o),
(443,202,cs),
(475,332,o),
(486,509,o),
(544,677,c),
(523,729,o),
(421,734,o),
(369,699,c),
(329,601,o),
(322,470,o),
(317,355,c),
(317,222,o),
(243,119,o),
(170,119,cs)
);
},
{
closed = 1;
nodes = (
(95,475,o),
(36,396,o),
(68,300,cs),
(118,149,o),
(356,237,o),
(355,417,c),
(323,433,l),
(317,356,o),
(229,300,o),
(229,375,cs),
(229,437,o),
(257,495,o),
(271,573,cs),
(289,671,o),
(227,720,o),
(171,720,cs),
(98,720,o),
(12,648,o),
(9,532,c),
(16,530,l),
(55,606,o),
(105,604,o),
(104,548,c)
);
}
);
width = 854;
},
{
associatedMasterId = "CDFC0212-EC7A-4000-86F8-EA19B9E6D7F9";
layerId = "76B299CE-0BB4-499E-BA25-9C3B0AD0C3AA";
name = "Jul 26, 23, 14:21";
shapes = (
{
closed = 1;
nodes = (
(110,-15,o),
(78,-3,o),
(47,20,c),
(35,14,l),
(35,-75,o),
(114,-138,o),
(202,-138,cs),
(529,-138,o),
(434,399,o),
(544,677,c),
(523,729,o),
(421,734,o),
(369,699,c),
(329,601,o),
(322,470,o),
(317,355,c),
(317,222,o),
(292,-15,o),
(140,-15,cs)
);
},
{
closed = 1;
nodes = (
(95,475,o),
(36,396,o),
(68,300,cs),
(118,149,o),
(356,237,o),
(355,417,c),
(323,433,l),
(317,356,o),
(229,300,o),
(229,375,cs),
(229,437,o),
(257,495,o),
(271,573,cs),
(289,671,o),
(227,720,o),
(171,720,cs),
(98,720,o),
(12,648,o),
(9,532,c),
(16,530,l),
(55,606,o),
(105,604,o),
(104,548,c)
);
}
);
width = 854;
}
);
unicode = 306;
},
{
glyphname = "Iota-latin";
lastChange = "2023-10-01 22:48:44 +0000";
layers = (
{
layerId = "CDFC0212-EC7A-4000-86F8-EA19B9E6D7F9";
shapes = (
{
closed = 1;
nodes = (
(238,-4,o),
(311,53,o),
(314,138,c),
(308,141,l),
(298,122,o),
(282,112,o),
(263,112,cs),
(233,112,o),
(221,138,o),
(221,180,cs),
(221,237,o),
(244,316,o),
(271,406,cs),
(290,470,o),
(313,546,o),
(313,601,cs),
(313,678,o),
(269,720,o),
(217,720,cs),
(154,720,o),
(80,658,o),
(60,533,c),
(67,531,l),
(81,569,o),
(102,590,o),
(118,590,cs),
(130,590,o),
(139,578,o),
(139,550,cs),
(139,512,o),
(122,455,o),
(115,431,cs),
(80,314,o),
(54,225,o),
(54,150,cs),
(54,40,o),
(110,-4,o),
(170,-4,cs)
);
}
);
width = 344;
},
{
associatedMasterId = "CDFC0212-EC7A-4000-86F8-EA19B9E6D7F9";
layerId = "4EEAC68B-F157-4179-84FF-97149A94BD3E";
name = "Aug 31, 23, 19:06";
shapes = (
{
closed = 1;
nodes = (
(221,-4,o),
(294,53,o),
(297,138,c),
(291,141,l),
(281,122,o),
(265,112,o),
(246,112,cs),
(216,112,o),
(204,138,o),
(204,179,cs),
(204,296,o),
(301,534,o),
(301,632,cs),
(301,694,o),
(262,722,o),
(218,722,cs),
(179,722,o),
(137,699,o),
(117,663,c),
(117,655,l),
(120,639,o),
(122,622,o),
(122,602,cs),
(122,469,o),
(37,277,o),
(37,146,cs),
(37,40,o),
(93,-4,o),
(153,-4,cs)
);
}
);
width = 312;
},
{
associatedMasterId = "CDFC0212-EC7A-4000-86F8-EA19B9E6D7F9";
layerId = "EB37B4BC-E3A8-4289-B8B2-AEF0458EBF46";
name = "Aug 31, 23, 19:06";
shapes = (
{
closed = 1;
nodes = (
(299,500,o),
(299,613,cs),
(299,691,o),
(255,722,o),
(203,722,cs),
(142,722,o),
(71,672,o),
(34,533,c),
(41,531,l),
(83,616,o),
(130,600,o),
(117,537,cs),
(92,412,o),
(37,257,o),
(37,146,cs),
(37,40,o),
(93,-4,o),
(153,-4,cs),
(221,-4,o),
(294,53,o),
(297,138,c),
(291,141,l),
(281,122,o),
(265,112,o),
(246,112,cs),
(216,112,o),
(204,138,o),
(204,179,cs),
(204,294,o)
);
}
);
width = 312;
},
{
associatedMasterId = "CDFC0212-EC7A-4000-86F8-EA19B9E6D7F9";
layerId = "A0BFF8A9-7244-4183-BAB2-CEF029CCC6D9";
name = "Aug 31, 23, 19:07";
shapes = (
{
closed = 1;
nodes = (
(276,499,l),
(291,552,o),
(301,600,o),
(301,632,cs),
(301,694,o),
(262,722,o),
(218,722,cs),
(179,722,o),
(137,699,o),
(117,663,c),
(117,655,l),
(120,639,o),
(122,622,o),
(122,602,cs),
(122,581,o),
(120,560,o),
(117,537,c)
);
},
{
closed = 1;
nodes = (
(279,511,l),
(290,546,o),
(299,582,o),
(299,613,cs),
(299,691,o),
(255,722,o),
(203,722,cs),
(142,722,o),
(71,672,o),
(64,593,c),
(71,589,l),
(81,603,o),
(93,611,o),
(105,611,cs),
(119,611,o),
(131,598,o),
(131,568,cs),
(131,559,o),
(130,551,o),
(129,542,c)
);
},
{
closed = 1;
nodes = (
(117,537,l),
(98,411,o),
(37,257,o),
(37,146,cs),
(37,40,o),
(93,-4,o),
(153,-4,cs),
(221,-4,o),
(294,53,o),
(297,138,c),
(291,141,l),
(281,122,o),
(265,112,o),
(246,112,cs),
(216,112,o),
(204,138,o),
(204,179,cs),
(204,258,o),
(248,391,o),
(276,499,c)
);
}
);
width = 312;
},
{
associatedMasterId = "CDFC0212-EC7A-4000-86F8-EA19B9E6D7F9";
layerId = "5CD35E17-EA80-45FF-9CF6-DA312508788F";
name = "Oct 1, 23, 18:48";
shapes = (
{
closed = 1;
nodes = (
(313,490,o),
(313,601,cs),
(313,678,o),
(269,720,o),
(217,720,cs),
(154,720,o),
(80,658,o),
(60,533,c),
(67,531,l),
(81,569,o),
(102,590,o),
(118,590,cs),
(130,590,o),
(139,578,o),
(139,550,cs),
(139,464,o),
(54,285,o),
(54,150,cs),
(54,40,o),
(110,-4,o),
(170,-4,cs),
(238,-4,o),
(311,53,o),
(314,138,c),
(308,141,l),
(298,122,o),
(282,112,o),
(263,112,cs),
(233,112,o),
(221,138,o),
(221,179,cs),
(221,294,o)
);
}
);
width = 344;
}
);
unicode = 406;
},
{
glyphname = Istroke;
lastChange = "2023-09-30 23:21:29 +0000";
layers = (
{
anchors = (
{
name = bottom;
pos = (194,0);
},
{
name = ogonek;
pos = (312,10);
},
{
name = top;
pos = (296,710);
},
{
name = topleft;
pos = (129,710);
}
);
layerId = "CDFC0212-EC7A-4000-86F8-EA19B9E6D7F9";
shapes = (
{
closed = 1;
nodes = (
(211,-5,o),
(247,16,o),
(263,33,c),
(268,147,o),
(283,260,o),
(300,360,c),
(335,359,o),
(370,357,o),
(407,354,c),
(419,379,o),
(425,401,o),
(425,422,cs),
(425,434,o),
(423,444,o),
(421,456,c),
(386,459,o),
(352,461,o),
(319,462,c),
(338,558,o),
(357,630,o),
(366,657,c),
(355,705,o),
(323,723,o),
(289,723,cs),
(249,723,o),
(206,698,o),
(193,661,cs),
(185,639,o),
(168,555,o),
(151,458,c),
(118,455,o),
(83,451,o),
(47,446,c),
(37,424,o),
(32,403,o),
(32,377,cs),
(32,366,o),
(33,356,o),
(34,344,c),
(69,349,o),
(102,353,o),
(135,355,c),
(119,251,o),
(106,152,o),
(106,102,cs),
(106,21,o),
(140,-5,o),
(177,-5,cs)
);
}
);
width = 425;
},
{
associatedMasterId = "CDFC0212-EC7A-4000-86F8-EA19B9E6D7F9";
layerId = "6D509639-F4F4-4DAE-88A6-433EE0A87337";
name = "Sep 15, 23, 18:04";
shapes = (
{
ref = I;
},
{
closed = 1;
nodes = (
(307,271,o),
(345,340,o),
(320,424,c),
(265,395,o),
(160,431,o),
(57,442,cs),
(-27,451,o),
(-89,398,o),
(-72,300,c),
(-9,334,o),
(61,296,o),
(194,283,cs)
);
}
);
width = 268;
},
{
associatedMasterId = "CDFC0212-EC7A-4000-86F8-EA19B9E6D7F9";
layerId = "8D63BC6B-C322-496E-8875-4C4C79E4A0FD";
name = "Sep 15, 23, 18:19";
shapes = (
{
pos = (98,0);
ref = I;
},
{
closed = 1;
nodes = (
(430,317,o),
(466,362,o),
(440,446,c),
(346,395,o),
(263,449,o),
(160,458,cs),
(75,466,o),
(14,436,o),
(33,338,c),
(125,384,o),
(183,337,o),
(316,326,cs)
);
}
);
width = 455;
},
{
associatedMasterId = "CDFC0212-EC7A-4000-86F8-EA19B9E6D7F9";
layerId = "D538C508-27BE-4D58-A050-BABBBB7D8352";
name = "Sep 15, 23, 18:20";
shapes = (
{
pos = (98,0);
ref = I;
},
{
closed = 1;
nodes = (
(430,317,o),
(466,362,o),
(440,446,c),
(346,395,o),
(263,449,o),
(160,458,cs),
(75,466,o),
(14,436,o),
(33,338,c),
(125,384,o),
(183,337,o),
(316,326,cs)
);
},
{
closed = 1;
nodes = (
(184,335,o),
(296,336,o),
(425,326,c),
(442,363,o),
(447,399,o),
(439,436,c),
(309,446,o),
(197,445,o),
(65,426,c),
(52,397,o),
(47,361,o),
(52,316,c)
);
}
);
width = 455;
},
{
associatedMasterId = "CDFC0212-EC7A-4000-86F8-EA19B9E6D7F9";
layerId = "0401368B-5783-4D57-A718-75CBF3FB2C5F";
name = "Sep 30, 23, 19:14";
shapes = (
{
pos = (87,0);
ref = I;
},
{
closed = 1;
nodes = (
(166,363,o),
(278,364,o),
(407,354,c),
(424,391,o),
(429,419,o),
(421,456,c),
(291,466,o),
(179,465,o),
(47,446,c),
(34,417,o),
(29,389,o),
(34,344,c)
);
}
);
width = 425;
}
);
unicode = 407;
},
{
glyphname = J;
lastChange = "2023-10-03 14:52:42 +0000";
layers = (
{
anchors = (
{
name = bottom;
pos = (253,0);
},
{
name = top;
pos = (315,710);
}
);
layerId = "CDFC0212-EC7A-4000-86F8-EA19B9E6D7F9";
name = Regular;
shapes = (
{
closed = 1;
nodes = (
(297,-139,o),
(416,-46,o),
(416,204,cs),
(416,284,o),
(404,370,o),
(404,444,cs),
(404,481,o),
(407,514,o),
(417,538,c),
(436,531,o),
(451,529,o),
(464,529,cs),
(528,529,o),
(555,582,o),
(555,633,cs),
(555,683,o),
(530,726,o),
(476,726,cs),
(454,726,o),
(415,719,o),
(369,665,c),
(293,713,o),
(229,732,o),
(177,732,cs),
(76,732,o),
(22,662,o),
(22,591,cs),
(22,519,o),
(79,446,o),
(200,446,c),
(181,474,o),
(173,503,o),
(173,528,cs),
(173,576,o),
(203,611,o),
(246,611,cs),
(271,611,o),
(296,599,o),
(313,587,c),
(265,522,o),
(254,450,o),
(254,331,cs),
(254,52,o),
(193,-14,o),
(121,-14,cs),
(90,-14,o),
(58,-2,o),
(27,21,c),
(15,15,l),
(15,-74,o),
(98,-139,o),
(189,-139,cs)
);
}
);
width = 532;
},
{
associatedMasterId = "CDFC0212-EC7A-4000-86F8-EA19B9E6D7F9";
layerId = "5F7887A7-0944-4B5F-B72C-0609E905FA7D";
name = "May 25, 23, 12:33";
shapes = (
{
closed = 1;
nodes = (
(167.615,-114.383,o),
(51.984,346.836,o),
(246.661,483.448,c),
(220.581,481.419,o),
(185.904,493.1,o),
(162.025,493.1,cs),
(114.14,493.1,o),
(82.646,439.505,o),
(134.558,374.369,c),
(43.957,324.64,o),
(-30.003,409.248,o),
(-30.003,486.683,cs),
(-30.003,547.893,o),
(13.133,606.619,o),
(111.363,606.619,cs),
(207.727,606.619,o),
(238.478,556.859,o),
(305.158,556.859,cs),
(325.484,556.859,o),
(345.234,607.954,o),
(362.223,619.59,c),
(399.404,610.417,o),
(434.677,538.853,o),
(423.344,507.191,c),
(287.625,485.375,o),
(285.093,307.198,o),
(285.093,185.133,cs),
(285.093,-78.102,o),
(193.606,-171.104,o),
(70.483,-171.104,cs),
(-147.935,-171.104,o),
(-153.042,49.183,o),
(34.363,49.183,c),
(4.881,-13.286,o),
(3.957,-114.383,o),
(62.217,-114.383,cs)
);
}
);
width = 392.71;
},
{
associatedMasterId = "CDFC0212-EC7A-4000-86F8-EA19B9E6D7F9";
layerId = "14930F0A-615D-4253-8021-1889562487D2";
name = "May 25, 23, 12:38";
shapes = (
{
closed = 1;
nodes = (
(150.615,-114.383,o),
(106.371,390.371,o),
(212.462,489.191,c),
(163.278,539.002,o),
(110.812,473.408,o),
(110.812,391,c),
(-116.153,391,o),
(-15.661,737.512,o),
(264.227,548.859,c),
(429.415,728.956,o),
(480.916,359.616,o),
(305.158,454.883,c),
(259.763,391,o),
(285.093,266.248,o),
(285.093,167.133,cs),
(285.093,-96.102,o),
(193.606,-171.104,o),
(70.483,-171.104,cs),
(-147.935,-171.104,o),
(-153.042,49.183,o),
(34.363,49.183,c),
(4.881,-13.286,o),
(3.957,-114.383,o),
(45.217,-114.383,cs)
);
}
);
width = 392.71;
},
{
associatedMasterId = "CDFC0212-EC7A-4000-86F8-EA19B9E6D7F9";
layerId = "1AE9A47C-68F4-4352-BF4E-9C87C8EA9C25";
name = "Jun 7, 23, 12:16";
shapes = (
{
closed = 1;
nodes = (
(406,-256,o),
(406,206,cs),
(406,284,o),
(394,370,o),
(394,443,cs),
(394,493,o),
(399,534,o),
(418,558,c),
(368,556,l),
(409,534,o),
(432,529,o),
(457,529,cs),
(518,529,o),
(545,582,o),
(545,633,cs),
(545,683,o),
(520,726,o),
(473,726,cs),
(438,726,o),
(387,716,o),
(327,621,c),
(393,642,l),
(309,703,o),
(220,727,o),
(163,727,cs),
(69,727,o),
(17,658,o),
(17,589,cs),
(17,523,o),
(68,446,o),
(170,446,c),
(161,470,o),
(157,493,o),
(157,513,cs),
(157,573,o),
(191,609,o),
(234,609,cs),
(258,609,o),
(307,599,o),
(325,566,c),
(313,609,l),
(250,536,o),
(238,480,o),
(238,227,cs),
(238,55,o),
(161,-17,o),
(83,-17,cs),
(59,-17,o),
(35,-3,o),
(17,21,c),
(5,15,l),
(5,-182,o)
);
}
);
width = 515;
},
{
anchors = (
{
name = bottom;
pos = (253,0);
},
{
name = top;
pos = (315,710);
}
);
associatedMasterId = "CDFC0212-EC7A-4000-86F8-EA19B9E6D7F9";
layerId = "CEA67429-5693-47FF-BF08-1F665464E746";
name = "Aug 29, 23, 12:45";
shapes = (
{
closed = 1;
nodes = (
(90,-14,o),
(58,-2,o),
(27,21,c),
(15,15,l),
(15,-182,o),
(416,-256,o),
(416,206,cs),
(416,284,o),
(404,370,o),
(404,443,cs),
(404,493,o),
(409,534,o),
(428,558,c),
(378,556,l),
(419,534,o),
(442,529,o),
(467,529,cs),
(528,529,o),
(555,582,o),
(555,633,cs),
(555,683,o),
(530,726,o),
(483,726,cs),
(448,726,o),
(397,716,o),
(337,621,c),
(403,642,l),
(5,926,o),
(-111,446,o),
(200,446,c),
(146,529,o),
(180,611,o),
(248,611,cs),
(285,611,o),
(327,580,o),
(335,566,c),
(331,609,l),
(268,536,o),
(254,480,o),
(254,185,cs),
(254,52,o),
(193,-14,o),
(120,-14,cs)
);
}
);
width = 550;
},
{
anchors = (
{
name = bottom;
pos = (253,0);
},
{
name = top;
pos = (315,710);
}
);
associatedMasterId = "CDFC0212-EC7A-4000-86F8-EA19B9E6D7F9";
layerId = "17739A24-FAA6-491F-A2EB-0A978E3C361C";
name = "Oct 1, 23, 18:39";
shapes = (
{
closed = 1;
nodes = (
(90,-14,o),
(58,-2,o),
(27,21,c),
(15,15,l),
(15,-74,o),
(98,-139,o),
(188,-139,cs),
(297,-139,o),
(416,-46,o),
(416,206,cs),
(416,284,o),
(404,370,o),
(404,443,cs),
(404,481,o),
(407,514,o),
(417,538,c),
(436,531,o),
(451,529,o),
(467,529,cs),
(528,529,o),
(555,582,o),
(555,633,cs),
(555,683,o),
(530,726,o),
(483,726,cs),
(454,726,o),
(415,719,o),
(369,665,c),
(293,713,o),
(229,732,o),
(176,732,cs),
(76,732,o),
(22,662,o),
(22,591,cs),
(22,519,o),
(79,446,o),
(200,446,c),
(181,474,o),
(173,503,o),
(173,528,cs),
(173,576,o),
(203,611,o),
(248,611,cs),
(271,611,o),
(296,599,o),
(313,587,c),
(265,522,o),
(254,450,o),
(254,185,cs),
(254,52,o),
(193,-14,o),
(120,-14,cs)
);
}
);
width = 532;
}
);
unicode = 74;
userData = {
KernOnName = J;
};
},
{
glyphname = Jcrossedtail;
lastChange = "2023-09-30 23:32:25 +0000";
layers = (
{
anchors = (
{
name = bottom;
pos = (253,0);
},
{
name = top;
pos = (315,710);
}
);
layerId = "CDFC0212-EC7A-4000-86F8-EA19B9E6D7F9";
shapes = (
{
closed = 1;
nodes = (
(290,-139,o),
(401,-57,o),
(415,161,c),
(438,163,o),
(464,163,o),
(491,163,c),
(495,189,l),
(467,192,o),
(441,195,o),
(416,196,c),
(416,206,ls),
(416,284,o),
(404,370,o),
(404,444,cs),
(404,481,o),
(407,514,o),
(417,538,c),
(436,531,o),
(451,529,o),
(464,529,cs),
(528,529,o),
(555,582,o),
(555,633,cs),
(555,683,o),
(530,726,o),
(476,726,cs),
(454,726,o),
(415,719,o),
(369,665,c),
(293,713,o),
(229,732,o),
(177,732,cs),
(76,732,o),
(22,662,o),
(22,591,cs),
(22,519,o),
(79,446,o),
(200,446,c),
(181,474,o),
(173,503,o),
(173,528,cs),
(173,576,o),
(203,611,o),
(246,611,cs),
(271,611,o),
(296,599,o),
(313,587,c),
(265,522,o),
(254,451,o),
(254,189,c),
(94,161,o),
(28,77,o),
(28,1,cs),
(28,-73,o),
(89,-139,o),
(184,-139,cs)
);
},
{
closed = 1;
nodes = (
(138,-14,o),
(131,-6,o),
(131,6,cs),
(131,33,o),
(167,85,o),
(249,121,c),
(233,31,o),
(185,-14,o),
(152,-14,cs)
);
}
);
width = 532;
},
{
associatedMasterId = "CDFC0212-EC7A-4000-86F8-EA19B9E6D7F9";
layerId = "F20F9E7E-0BEA-4919-9991-C3D4FD21C3E4";
name = "Sep 29, 23, 16:54";
shapes = (
{
ref = J;
}
);
width = 532;
},
{
anchors = (
{
name = bottom;
pos = (253,0);
},
{
name = top;
pos = (315,710);
}
);
associatedMasterId = "CDFC0212-EC7A-4000-86F8-EA19B9E6D7F9";
layerId = "046BAD30-F745-4413-8646-A89EE5273D0A";
name = "Sep 30, 23, 19:32";
shapes = (
{
closed = 1;
nodes = (
(90,-14,o),
(165,168,o),
(491,163,c),
(495,189,l),
(-71,260,o),
(-55,-139,o),
(188,-139,cs),
(297,-139,o),
(416,-46,o),
(416,206,cs),
(416,284,o),
(404,370,o),
(404,443,cs),
(404,481,o),
(407,514,o),
(417,538,c),
(436,531,o),
(451,529,o),
(467,529,cs),
(528,529,o),
(555,582,o),
(555,633,cs),
(555,683,o),
(530,726,o),
(483,726,cs),
(454,726,o),
(415,719,o),
(369,665,c),
(293,713,o),
(229,732,o),
(176,732,cs),
(76,732,o),
(22,662,o),
(22,591,cs),
(22,519,o),
(79,446,o),
(200,446,c),
(181,474,o),
(173,503,o),
(173,528,cs),
(173,576,o),
(203,611,o),
(248,611,cs),
(271,611,o),
(296,599,o),
(313,587,c),
(265,522,o),
(254,450,o),
(254,185,cs),
(254,52,o),
(193,-14,o),
(150,-14,cs)
);
}
);
width = 532;
}
);
unicode = 42930;
},
{
glyphname = Jstroke;
lastChange = "2023-09-30 23:21:38 +0000";
layers = (
{
anchors = (
{
name = bottom;
pos = (253,0);
},
{
name = top;
pos = (315,710);
}
);
layerId = "CDFC0212-EC7A-4000-86F8-EA19B9E6D7F9";
shapes = (
{
closed = 1;
nodes = (
(297,-139,o),
(416,-46,o),
(416,206,cs),
(416,239,o),
(414,274,o),
(411,309,c),
(430,309,ls),
(497,309,o),
(521,338,o),
(521,368,cs),
(521,384,o),
(514,401,o),
(503,413,c),
(473,408,o),
(441,405,o),
(405,403,c),
(404,417,o),
(404,430,o),
(404,443,cs),
(404,481,o),
(407,514,o),
(417,538,c),
(436,531,o),
(451,529,o),
(467,529,cs),
(528,529,o),
(555,582,o),
(555,633,cs),
(555,683,o),
(530,726,o),
(483,726,cs),
(454,726,o),
(415,719,o),
(369,665,c),
(293,713,o),
(229,732,o),
(176,732,cs),
(76,732,o),
(22,662,o),
(22,591,cs),
(22,519,o),
(79,446,o),
(200,446,c),
(181,474,o),
(173,503,o),
(173,528,cs),
(173,576,o),
(203,611,o),
(248,611,cs),
(271,611,o),
(296,599,o),
(313,587,c),
(282,545,o),
(267,501,o),
(259,405,c),
(226,406,o),
(191,409,o),
(155,413,c),
(140,401,o),
(132,385,o),
(132,369,cs),
(132,344,o),
(153,319,o),
(199,316,cs),
(255,313,l),
(254,276,o),
(254,234,o),
(254,185,cs),
(254,52,o),
(193,-14,o),
(120,-14,cs),
(90,-14,o),
(58,-2,o),
(27,21,c),
(15,15,l),
(15,-74,o),
(98,-139,o),
(188,-139,cs)
);
}
);
width = 532;
},
{
associatedMasterId = "CDFC0212-EC7A-4000-86F8-EA19B9E6D7F9";
layerId = "250CA8BB-3A58-46BE-906E-AFD50B8D0340";
name = "Sep 30, 23, 19:14";
shapes = (
{
closed = 1;
nodes = (
(114,382,o),
(126,321,o),
(199,316,cs),
(264,311,o),
(384,309,o),
(430,309,cs),
(534,309,o),
(534,378,o),
(503,413,c),
(413,399,o),
(295,398,o),
(155,413,c)
);
},
{
locked = 1;
ref = J;
}
);
width = 532;
}
);
unicode = 584;
},
{
glyphname = K;
lastChange = "2023-10-03 14:55:16 +0000";
layers = (
{
associatedMasterId = "CDFC0212-EC7A-4000-86F8-EA19B9E6D7F9";
layerId = "60FAD836-200B-4DE0-8B39-89B968C4D249";
name = "May 31, 23, 14:27";
shapes = (
{
closed = 1;
nodes = (
(247.348,0,o),
(286.481,229.072,o),
(378.842,371.585,c),
(453.576,546.046,o),
(571.665,553.046,o),
(620,483.438,c),
(687.809,600,o),
(655.414,725.625,o),
(562.655,725.625,cs),
(322.122,725.625,o),
(171.525,126.379,o),
(154.712,126.379,cs),
(114.729,126.379,o),
(394.603,720,o),
(160.011,720,cs),
(99.011,720,o),
(-1,675.805,o),
(-1,538,c),
(10,537,l),
(25.089,625.682,o),
(94,648.323,o),
(94,566,cs),
(94,491,o),
(21,207,o),
(21,120,cs),
(21,34,o),
(80,0,o),
(132,0,cs)
);
},
{
closed = 1;
nodes = (
(612,0,o),
(654,89,o),
(662,192,c),
(653,196,l),
(645,179,o),
(634,170,o),
(620,170,cs),
(489.2,170,o),
(460.8,434,o),
(330,434,c),
(295.886,384.562,l),
(376.486,384.562,o),
(362.331,0,o),
(524,0,cs)
);
}
);
width = 705.84;
},
{
anchors = (
{
name = bottom;
pos = (293,0);
},
{
name = top;
pos = (345,710);
}
);
layerId = "CDFC0212-EC7A-4000-86F8-EA19B9E6D7F9";
name = Regular;
shapes = (
{
closed = 1;
nodes = (
(587,-7,o),
(636,84,o),
(636,193,c),
(630,196,l),
(621,174,o),
(598,154,o),
(572,154,cs),
(531,154,o),
(513,205,o),
(491,270,cs),
(472,325,o),
(448,394,o),
(391,421,c),
(544,487,o),
(603,559,o),
(603,616,cs),
(603,680,o),
(528,725,o),
(431,725,c),
(437,715,o),
(440,703,o),
(440,688,cs),
(440,620,o),
(380,507,o),
(291,429,c),
(303,482,o),
(313,534,o),
(313,580,cs),
(313,682,o),
(263,720,o),
(207,720,cs),
(122,720,o),
(53,634,o),
(50,532,c),
(57,530,l),
(77,568,o),
(100,587,o),
(119,587,cs),
(136,587,o),
(148,571,o),
(148,527,cs),
(148,394,o),
(41,250,o),
(41,119,cs),
(41,32,o),
(89,-4,o),
(140,-4,cs),
(169,-4,o),
(199,8,o),
(221,29,c),
(219,44,o),
(219,59,o),
(219,74,cs),
(219,170,o),
(248,269,o),
(275,366,c),
(318,342,o),
(332,274,o),
(346,203,cs),
(367,101,o),
(390,-7,o),
(497,-7,cs)
);
}
);
width = 652;
},
{
associatedMasterId = "CDFC0212-EC7A-4000-86F8-EA19B9E6D7F9";
layerId = "F882CC54-D3C5-44B3-B87B-6EC40F00FC63";
name = "May 31, 23, 14:39";
shapes = (
{
closed = 1;
nodes = (
(105.495,-0.142,o),
(156.605,-0.142,cs),
(212.757,-0.142,o),
(271.68,43.446,o),
(271.68,107,cs),
(271.68,146.56,o),
(260.68,187,o),
(260.68,222,cs),
(260.68,341,o),
(322.68,428,o),
(322.68,576,cs),
(322.68,678.533,o),
(269.524,719.906,o),
(208.52,719.906,cs),
(126.054,719.906,o),
(39.245,634.303,o),
(40.008,531.977,c),
(47.352,530.023,l),
(83.039,605.682,o),
(148.68,603.749,o),
(148.68,535,cs),
(148.68,451,o),
(56.68,252,o),
(56.68,129,cs),
(56.68,35.798,o)
);
},
{
closed = 1;
nodes = (
(600.68,0,o),
(650.68,89,o),
(650.68,192,c),
(644.68,195,l),
(636.68,178,o),
(622.68,170,o),
(608.68,170,cs),
(577.68,170,o),
(529.17,192.309,o),
(459.68,302,cs),
(408.169,383.312,o),
(385.68,434,o),
(298.68,434,c),
(240.68,391,l),
(263.68,391,o),
(260.68,385,o),
(331.68,223,cs),
(382.68,105,o),
(434.68,0,o),
(512.68,0,cs)
);
},
{
closed = 1;
nodes = (
(412.293,506.859,o),
(536.005,545.046,o),
(602.68,500,c),
(732.978,732.27,o),
(415.609,912.283,o),
(319.68,363,c),
(342.68,345,l)
);
}
);
width = 705.84;
},
{
associatedMasterId = "CDFC0212-EC7A-4000-86F8-EA19B9E6D7F9";
layerId = "9160EAA6-B667-4EC4-9A24-2447E1F5DF45";
name = "Jun 6, 23, 09:18";
shapes = (
{
closed = 1;
nodes = (
(86.911,-0.142,o),
(138.021,-0.142,cs),
(194.174,-0.142,o),
(254.618,43.446,o),
(256.836,107,cs),
(258.217,146.56,o),
(248.629,187,o),
(249.851,222,cs),
(254.005,341,o),
(319.043,428,o),
(324.209,576,cs),
(327.789,678.533,o),
(276.078,719.906,o),
(215.073,719.906,cs),
(132.607,719.906,o),
(42.809,634.303,o),
(40,531.977,c),
(47.276,530.023,l),
(85.605,605.682,o),
(151.178,603.749,o),
(148.778,535,cs),
(145.845,451,o),
(46.898,252,o),
(42.604,129,cs),
(39.351,35.798,o)
);
},
{
closed = 1;
nodes = (
(582,-6,o),
(635,83,o),
(639,186,c),
(633,189,l),
(624,172,o),
(610,164,o),
(596,164,cs),
(565,164,o),
(517.305,192.309,o),
(451.644,302,cs),
(402.971,383.312,o),
(382.252,434,o),
(295.252,434,c),
(235.751,391,l),
(258.751,391,o),
(255.541,385,o),
(320.886,223,cs),
(367.767,105,o),
(416,-6,o),
(494,-6,cs)
);
},
{
closed = 1;
nodes = (
(411.408,506.859,o),
(536.453,545.046,o),
(601.556,500,c),
(739.962,732.27,o),
(428.878,912.283,o),
(313.773,363,c),
(336.145,345,l)
);
}
);
width = 668.8;
},
{
associatedMasterId = "CDFC0212-EC7A-4000-86F8-EA19B9E6D7F9";
layerId = "9BF9BA3E-5771-43CB-9517-B76AD4E3C773";
name = "Jun 6, 23, 09:34";
shapes = (
{
closed = 1;
nodes = (
(318,397,o),
(324.209,576,cs),
(327.789,678.533,o),
(276.078,719.906,o),
(215.073,719.906,cs),
(132.607,719.906,o),
(42.809,634.303,o),
(40,531.977,c),
(47.276,530.023,l),
(85.605,605.682,o),
(151.178,603.749,o),
(148.778,535,cs),
(144,388,o),
(40,251,o),
(40,123,cs),
(40,-15,o),
(172,-25,o),
(232,33,c),
(213,211,o)
);
},
{
closed = 1;
nodes = (
(620,-137,o),
(669,-53,o),
(669,66,c),
(663,69,l),
(654,47,o),
(636,34,o),
(616,34,cs),
(563,34,o),
(517,192,o),
(452,302,cs),
(403,383,o),
(382.252,434,o),
(295.252,434,c),
(235.751,391,l),
(258.751,391,o),
(256,385,o),
(321,223,cs),
(368,105,o),
(386,-137,o),
(530,-137,cs)
);
},
{
closed = 1;
nodes = (
(411,507,o),
(536,545,o),
(602,500,c),
(740,732,o),
(429,912,o),
(314,363,c),
(336,345,l)
);
}
);
width = 668.8;
},
{
associatedMasterId = "CDFC0212-EC7A-4000-86F8-EA19B9E6D7F9";
layerId = "0533823E-2252-4314-AEC0-DF4F4D42751D";
name = "Jun 14, 23, 14:32";
shapes = (
{
closed = 1;
nodes = (
(313,397,o),
(319,576,cs),
(323,679,o),
(271,720,o),
(210,720,cs),
(128,720,o),
(43,634,o),
(40,532,c),
(47,530,l),
(86,606,o),
(151,604,o),
(149,535,cs),
(144,388,o),
(40,251,o),
(40,123,cs),
(40,-15,o),
(167,-25,o),
(227,33,c),
(208,211,o)
);
},
{
closed = 1;
nodes = (
(583,-7,o),
(632,77,o),
(632,196,c),
(626,199,l),
(617,177,o),
(599,164,o),
(579,164,cs),
(526,164,o),
(512,192,o),
(447,302,cs),
(398,383,o),
(377,434,o),
(290,434,c),
(231,391,l),
(254,391,o),
(251,385,o),
(316,223,cs),
(363,105,o),
(381,-7,o),
(493,-7,cs)
);
},
{
closed = 1;
nodes = (
(416,507,o),
(541,545,o),
(607,500,c),
(745,732,o),
(434,912,o),
(319,363,c),
(341,345,l)
);
}
);
width = 664;
},
{
associatedMasterId = "CDFC0212-EC7A-4000-86F8-EA19B9E6D7F9";
layerId = "791BB62C-74B7-445D-832A-70177734399C";
name = "Jun 14, 23, 14:33";
shapes = (
{
closed = 1;
nodes = (
(313,397,o),
(319,576,cs),
(323,679,o),
(271,720,o),
(210,720,cs),
(128,720,o),
(43,634,o),
(40,532,c),
(47,530,l),
(86,606,o),
(151,604,o),
(149,535,cs),
(144,388,o),
(40,251,o),
(40,123,cs),
(40,-15,o),
(167,-25,o),
(227,33,c),
(208,211,o)
);
},
{
closed = 1;
nodes = (
(583,-7,o),
(632,77,o),
(632,196,c),
(626,199,l),
(617,177,o),
(599,164,o),
(579,164,cs),
(526,164,o),
(512,192,o),
(447,302,cs),
(398,383,o),
(377,434,o),
(290,434,c),
(231,391,l),
(254,391,o),
(251,385,o),
(316,223,cs),
(363,105,o),
(381,-7,o),
(493,-7,cs)
);
},
{
closed = 1;
nodes = (
(326,467,o),
(541,545,o),
(607,500,c),
(745,732,o),
(476,921,o),
(229,323,c),
(251,305,l)
);
}
);
width = 664;
},
{
associatedMasterId = "CDFC0212-EC7A-4000-86F8-EA19B9E6D7F9";
layerId = "0F641F85-741E-4745-A9CC-EEB9FE59676F";
name = "Jun 14, 23, 14:34";
shapes = (
{
closed = 1;
nodes = (
(313,397,o),
(319,576,cs),
(323,679,o),
(271,720,o),
(210,720,cs),
(128,720,o),
(43,634,o),
(40,532,c),
(47,530,l),
(86,606,o),
(151,604,o),
(149,535,cs),
(144,388,o),
(40,251,o),
(40,123,cs),
(40,-15,o),
(167,-25,o),
(227,33,c),
(208,211,o)
);
},
{
closed = 1;
nodes = (
(583,-7,o),
(632,77,o),
(632,196,c),
(626,199,l),
(617,177,o),
(599,164,o),
(579,164,cs),
(526,164,o),
(512,192,o),
(447,302,cs),
(398,383,o),
(377,434,o),
(290,434,c),
(231,391,l),
(254,391,o),
(251,385,o),
(316,223,cs),
(363,105,o),
(381,-7,o),
(493,-7,cs)
);
},
{
closed = 1;
nodes = (
(222,336,l),
(809,496,o),
(638,824,o),
(407,685,c),
(452,619,o),
(366,454,o),
(204,378,c)
);
}
);
width = 664;
},
{
associatedMasterId = "CDFC0212-EC7A-4000-86F8-EA19B9E6D7F9";
layerId = "F067F29A-00EB-42BB-B85E-AD5B7F17784F";
name = "Jun 14, 23, 14:36";
shapes = (
{
closed = 1;
nodes = (
(313,397,o),
(319,576,cs),
(323,679,o),
(271,720,o),
(210,720,cs),
(128,720,o),
(43,634,o),
(40,532,c),
(47,530,l),
(86,606,o),
(151,604,o),
(149,535,cs),
(144,388,o),
(40,251,o),
(40,123,cs),
(40,-15,o),
(167,-25,o),
(227,33,c),
(208,211,o)
);
},
{
closed = 1;
nodes = (
(583,-7,o),
(632,77,o),
(632,196,c),
(626,199,l),
(617,177,o),
(599,164,o),
(579,164,cs),
(526,164,o),
(512,192,o),
(447,302,cs),
(398,383,o),
(377,434,o),
(290,434,c),
(231,391,l),
(254,391,o),
(251,385,o),
(316,223,cs),
(363,105,o),
(381,-7,o),
(493,-7,cs)
);
},
{
closed = 1;
nodes = (
(222,336,l),
(753,483,o),
(640,726,o),
(427,725,c),
(472,659,o),
(366,454,o),
(204,378,c)
);
}
);
width = 664;
},
{
associatedMasterId = "CDFC0212-EC7A-4000-86F8-EA19B9E6D7F9";
layerId = "0D6E1CEB-6973-4B89-A956-43E50BE658A9";
name = "Jun 26, 23, 19:16";
shapes = (
{
closed = 1;
nodes = (
(209,144,o),
(247,265,o),
(279,382,c),
(256,348,l),
(375,348,o),
(311,-7,o),
(497,-7,cs),
(587,-7,o),
(636,77,o),
(636,196,c),
(630,199,l),
(621,177,o),
(603,164,o),
(583,164,cs),
(530,164,o),
(516,192,o),
(451,302,cs),
(401,387,o),
(369,412,o),
(311,412,c),
(311,373,l),
(719,520,o),
(627,726,o),
(431,725,c),
(469,668,o),
(388,500,o),
(264,407,c),
(287,412,l),
(300,467,o),
(312,522,o),
(313,576,cs),
(317,679,o),
(265,720,o),
(204,720,cs),
(122,720,o),
(43,634,o),
(40,532,c),
(47,530,l),
(86,606,o),
(151,604,o),
(149,535,cs),
(144,388,o),
(40,247,o),
(40,119,cs),
(40,-19,o),
(161,-29,o),
(221,29,c)
);
}
);
width = 658;
},
{
anchors = (
{
name = bottom;
pos = (316,0);
},
{
name = top;
pos = (379,720);
}
);
associatedMasterId = "CDFC0212-EC7A-4000-86F8-EA19B9E6D7F9";
layerId = "A65B1523-D6CF-406D-8D51-86F63CF3585C";
name = "Aug 14, 23, 12:32";
shapes = (
{
closed = 1;
nodes = (
(605,-7,o),
(654,77,o),
(654,196,c),
(648,199,l),
(639,177,o),
(621,164,o),
(601,164,cs),
(548,164,o),
(533,226,o),
(479,342,cs),
(439,427,o),
(414,432,o),
(356,432,c),
(339,393,l),
(747,540,o),
(645,726,o),
(449,725,c),
(487,668,o),
(406,500,o),
(282,407,c),
(305,412,l),
(318,467,o),
(330,522,o),
(331,576,cs),
(335,679,o),
(283,720,o),
(222,720,cs),
(140,720,o),
(61,634,o),
(58,532,c),
(65,530,l),
(104,606,o),
(169,604,o),
(167,535,cs),
(162,388,o),
(58,247,o),
(58,119,cs),
(58,-19,o),
(179,-29,o),
(239,29,c),
(227,144,o),
(265,265,o),
(297,382,c),
(268,374,l),
(377,354,o),
(329,-7,o),
(515,-7,cs)
);
}
);
width = 676;
},
{
anchors = (
{
name = bottom;
pos = (301,0);
},
{
name = top;
pos = (373,710);
}
);
associatedMasterId = "CDFC0212-EC7A-4000-86F8-EA19B9E6D7F9";
layerId = "D6AD3662-727A-439E-A5BA-CE586F4302D7";
name = "Aug 29, 23, 12:45";
shapes = (
{
closed = 1;
nodes = (
(595,-7,o),
(644,84,o),
(644,193,c),
(638,196,l),
(629,174,o),
(606,154,o),
(580,154,cs),
(485,154,o),
(515,432,o),
(346,432,c),
(329,393,l),
(534,467,o),
(611,551,o),
(611,616,cs),
(611,680,o),
(536,725,o),
(439,725,c),
(445,715,o),
(448,703,o),
(448,688,cs),
(448,613,o),
(375,484,o),
(272,407,c),
(295,412,l),
(309,471,o),
(321,529,o),
(321,579,cs),
(321,682,o),
(271,720,o),
(215,720,cs),
(130,720,o),
(61,634,o),
(58,532,c),
(65,530,l),
(85,568,o),
(108,587,o),
(127,587,cs),
(145,587,o),
(158,569,o),
(156,520,cs),
(152,388,o),
(49,247,o),
(49,119,cs),
(49,32,o),
(97,-4,o),
(148,-4,cs),
(177,-4,o),
(207,8,o),
(229,29,c),
(227,44,o),
(227,59,o),
(227,74,cs),
(227,175,o),
(259,280,o),
(287,382,c),
(258,374,l),
(396,354,o),
(309,-7,o),
(505,-7,cs)
);
}
);
width = 666;
},
{
anchors = (
{
name = bottom;
pos = (293,0);
},
{
name = top;
pos = (345,710);
}
);
associatedMasterId = "CDFC0212-EC7A-4000-86F8-EA19B9E6D7F9";
layerId = "347DCC54-092A-49B6-B152-14109D3F9B5D";
name = "Oct 1, 23, 18:39";
shapes = (
{
closed = 1;
nodes = (
(587,-7,o),
(636,84,o),
(636,193,c),
(630,196,l),
(621,174,o),
(598,154,o),
(572,154,cs),
(488,154,o),
(502,369,o),
(391,421,c),
(544,487,o),
(603,559,o),
(603,616,cs),
(603,680,o),
(528,725,o),
(431,725,c),
(437,715,o),
(440,703,o),
(440,688,cs),
(440,620,o),
(380,507,o),
(291,429,c),
(303,482,o),
(313,534,o),
(313,580,cs),
(313,682,o),
(263,720,o),
(207,720,cs),
(122,720,o),
(53,634,o),
(50,532,c),
(57,530,l),
(77,568,o),
(100,587,o),
(119,587,cs),
(136,587,o),
(148,571,o),
(148,527,cs),
(148,394,o),
(41,250,o),
(41,119,cs),
(41,32,o),
(89,-4,o),
(140,-4,cs),
(169,-4,o),
(199,8,o),
(221,29,c),
(219,44,o),
(219,59,o),
(219,74,cs),
(219,170,o),
(248,269,o),
(275,366,c),
(378,308,o),
(314,-7,o),
(497,-7,cs)
);
}
);
width = 652;
}
);
metricLeft = "=25";
metricRight = "=10";
unicode = 75;
userData = {
KernOnName = K;
};
},
{
glyphname = Khook;
lastChange = "2023-09-30 20:56:00 +0000";
layers = (
{
anchors = (
{
name = bottom;
pos = (279,0);
},
{
name = top;
pos = (331,710);
}
);
layerId = "CDFC0212-EC7A-4000-86F8-EA19B9E6D7F9";
shapes = (
{
closed = 1;
nodes = (
(568,-5,o),
(622,84,o),
(628,187,c),
(622,190,l),
(613,173,o),
(599,165,o),
(585,165,cs),
(554,165,o),
(506,187,o),
(443,297,cs),
(395,378,o),
(363,434,o),
(268,434,c),
(228,391,l),
(251,391,o),
(248,380,o),
(310,218,cs),
(355,100,o),
(402,-5,o),
(480,-5,cs)
);
},
{
closed = 1;
nodes = (
(412,517,o),
(453,580,o),
(483,580,cs),
(508,580,o),
(516,539,o),
(469,434,c),
(717,434,o),
(710,723,o),
(547,723,cs),
(430,723,o),
(352,594,o),
(291,380,c),
(330,355,l)
);
},
{
closed = 1;
nodes = (
(288,462,o),
(303,512,o),
(303,583,cs),
(303,685,o),
(253,723,o),
(197,723,cs),
(112,723,o),
(43,637,o),
(40,535,c),
(47,533,l),
(67,571,o),
(90,590,o),
(109,590,cs),
(126,590,o),
(138,574,o),
(138,530,cs),
(138,397,o),
(31,250,o),
(31,119,cs),
(31,32,o),
(79,-4,o),
(130,-4,cs),
(159,-4,o),
(189,8,o),
(211,29,c),
(209,44,o),
(209,59,o),
(209,74,cs),
(209,170,o),
(240,268,o),
(265,366,cs)
);
}
);
width = 654;
},
{
anchors = (
{
name = bottom;
pos = (293,0);
},
{
name = top;
pos = (345,710);
}
);
associatedMasterId = "CDFC0212-EC7A-4000-86F8-EA19B9E6D7F9";
layerId = "8D21247A-D709-4046-8508-7FFDD7498394";
name = "Sep 30, 23, 16:43";
shapes = (
{
closed = 1;
nodes = (
(587,-7,o),
(636,84,o),
(636,193,c),
(630,196,l),
(621,174,o),
(598,154,o),
(572,154,cs),
(488,154,o),
(502,369,o),
(391,421,c),
(544,487,o),
(603,559,o),
(603,616,cs),
(603,680,o),
(528,725,o),
(431,725,c),
(437,715,o),
(440,703,o),
(440,688,cs),
(440,620,o),
(380,507,o),
(291,429,c),
(303,482,o),
(313,534,o),
(313,580,cs),
(313,682,o),
(263,720,o),
(207,720,cs),
(122,720,o),
(53,634,o),
(50,532,c),
(57,530,l),
(77,568,o),
(100,587,o),
(119,587,cs),
(136,587,o),
(148,571,o),
(148,527,cs),
(148,394,o),
(41,250,o),
(41,119,cs),
(41,32,o),
(89,-4,o),
(140,-4,cs),
(169,-4,o),
(199,8,o),
(221,29,c),
(219,44,o),
(219,59,o),
(219,74,cs),
(219,170,o),
(248,269,o),
(275,366,c),
(378,308,o),
(314,-7,o),
(497,-7,cs)
);
}
);
width = 652;
},
{
anchors = (
{
name = bottom;
pos = (293,0);
},
{
name = top;
pos = (345,710);
}
);
associatedMasterId = "CDFC0212-EC7A-4000-86F8-EA19B9E6D7F9";
layerId = "AB510C4A-2743-4782-AFC5-EBF034077A69";
name = "Sep 30, 23, 16:44";
shapes = (
{
closed = 1;
nodes = (
(105.495,-0.142,o),
(156.605,-0.142,cs),
(212.757,-0.142,o),
(271.68,43.446,o),
(271.68,107,cs),
(271.68,146.56,o),
(260.68,187,o),
(260.68,222,cs),
(260.68,341,o),
(322.68,428,o),
(322.68,576,cs),
(322.68,678.533,o),
(269.524,719.906,o),
(208.52,719.906,cs),
(126.054,719.906,o),
(39.245,634.303,o),
(40.008,531.977,c),
(47.352,530.023,l),
(83.039,605.682,o),
(148.68,603.749,o),
(148.68,535,cs),
(148.68,451,o),
(56.68,252,o),
(56.68,129,cs),
(56.68,35.798,o)
);
},
{
closed = 1;
nodes = (
(600.68,0,o),
(650.68,89,o),
(650.68,192,c),
(644.68,195,l),
(636.68,178,o),
(622.68,170,o),
(608.68,170,cs),
(577.68,170,o),
(529.17,192.309,o),
(459.68,302,cs),
(408.169,383.312,o),
(385.68,434,o),
(298.68,434,c),
(240.68,391,l),
(263.68,391,o),
(260.68,385,o),
(331.68,223,cs),
(382.68,105,o),
(434.68,0,o),
(512.68,0,cs)
);
},
{
closed = 1;
nodes = (
(412.293,506.859,o),
(536.005,545.046,o),
(602.68,500,c),
(732.978,732.27,o),
(415.609,912.283,o),
(319.68,363,c),
(342.68,345,l)
);
}
);
width = 652;
},
{
anchors = (
{
name = bottom;
pos = (293,0);
},
{
name = top;
pos = (345,710);
}
);
associatedMasterId = "CDFC0212-EC7A-4000-86F8-EA19B9E6D7F9";
layerId = "8A3DF237-74D6-487E-9D75-7535E6969815";
name = "Sep 30, 23, 16:49";
shapes = (
{
closed = 1;
nodes = (
(105.495,-0.142,o),
(156.605,-0.142,cs),
(212.757,-0.142,o),
(271.68,43.446,o),
(271.68,107,cs),
(271.68,146.56,o),
(260.68,187,o),
(260.68,222,cs),
(260.68,341,o),
(322.68,428,o),
(322.68,576,cs),
(322.68,678.533,o),
(269.524,719.906,o),
(208.52,719.906,cs),
(126.054,719.906,o),
(39.245,634.303,o),
(40.008,531.977,c),
(47.352,530.023,l),
(83.039,605.682,o),
(148.68,603.749,o),
(148.68,535,cs),
(148.68,451,o),
(56.68,252,o),
(56.68,129,cs),
(56.68,35.798,o)
);
},
{
closed = 1;
nodes = (
(600.68,0,o),
(650.68,89,o),
(650.68,192,c),
(644.68,195,l),
(636.68,178,o),
(622.68,170,o),
(608.68,170,cs),
(577.68,170,o),
(529.17,192.309,o),
(459.68,302,cs),
(408.169,383.312,o),
(385.68,434,o),
(298.68,434,c),
(240.68,391,l),
(263.68,391,o),
(260.68,385,o),
(331.68,223,cs),
(382.68,105,o),
(434.68,0,o),
(512.68,0,cs)
);
},
{
closed = 1;
nodes = (
(366,472,o),
(441,580,o),
(485,580,cs),
(512,580,o),
(521,539,o),
(479,434,c),
(727,434,o),
(705,723,o),
(542,723,cs),
(425,723,o),
(330,577,o),
(281,363,c),
(304,355,l)
);
}
);
width = 652;
},
{
anchors = (
{
name = bottom;
pos = (293,0);
},
{
name = top;
pos = (345,710);
}
);
associatedMasterId = "CDFC0212-EC7A-4000-86F8-EA19B9E6D7F9";
layerId = "FAC4CED9-6FFE-4475-B6B6-18685F71DA8A";
name = "Sep 30, 23, 16:53";
shapes = (
{
closed = 1;
nodes = (
(88,-4,o),
(142,-4,cs),
(195,-4,o),
(258,33,o),
(258,111,cs),
(258,143,o),
(247,183,o),
(250,234,cs),
(255,337,o),
(322,428,o),
(330,576,cs),
(342,819,o),
(57,730,o),
(49,532,c),
(56,530,l),
(96,606,o),
(161,604,o),
(158,535,cs),
(153,451,o),
(51,248,o),
(45,125,cs),
(40,33,o)
);
},
{
closed = 1;
nodes = (
(582,-5,o),
(636,84,o),
(642,187,c),
(636,190,l),
(627,173,o),
(613,165,o),
(599,165,cs),
(568,165,o),
(520,187,o),
(457,297,cs),
(409,378,o),
(389,434,o),
(302,434,c),
(242,391,l),
(265,391,o),
(262,380,o),
(324,218,cs),
(369,100,o),
(416,-5,o),
(494,-5,cs)
);
},
{
closed = 1;
nodes = (
(426,517,o),
(467,580,o),
(497,580,cs),
(522,580,o),
(530,539,o),
(483,434,c),
(731,434,o),
(724,723,o),
(561,723,cs),
(444,723,o),
(366,594,o),
(305,380,c),
(344,355,l)
);
}
);
width = 652;
}
);
unicode = 408;
},
{
glyphname = L;
lastChange = "2023-10-03 14:55:09 +0000";
layers = (
{
associatedMasterId = "CDFC0212-EC7A-4000-86F8-EA19B9E6D7F9";
layerId = "77135F9F-3571-4160-9F97-5C2BC58B408B";
name = "Jun 6, 23, 09:14";
shapes = (
{
closed = 1;
nodes = (
(145,75,l),
(252,69,o),
(414,-26,o),
(493,-26,cs),
(628,-26,o),
(641,130,o),
(574,174,c),
(523,113,o),
(309,201,o),
(192,211,c)
);
},
{
closed = 1;
nodes = (
(219,178,l),
(-134,443,o),
(-78,-235,o),
(221,114,c)
);
},
{
closed = 1;
nodes = (
(311,303,o),
(311,444,cs),
(311,629,o),
(506,600,o),
(476,434,c),
(482,432,l),
(775,703,o),
(158,919,o),
(158,443,cs),
(158,333,o),
(142,254,o),
(95,179,c),
(234,175,l),
(234,176,o),
(233,178,o),
(234,179,cs),
(288,248,o)
);
}
);
width = 600;
},
{
associatedMasterId = "CDFC0212-EC7A-4000-86F8-EA19B9E6D7F9";
layerId = "E39431CC-9DBC-4905-AC77-5AD6108EAC99";
name = "Jun 7, 23, 12:04";
shapes = (
{
closed = 1;
nodes = (
(160,75,l),
(267,69,o),
(370,-137,o),
(538,-137,cs),
(673,-137,o),
(686,19,o),
(619,63,c),
(498,-58,o),
(409,211,o),
(207,211,c)
);
},
{
closed = 1;
nodes = (
(234,178,l),
(-119,443,o),
(-63,-235,o),
(236,114,c)
);
},
{
closed = 1;
nodes = (
(326,261,o),
(326,404,cs),
(326,641,o),
(541,606,o),
(511,434,c),
(517,432,l),
(810,703,o),
(173,919,o),
(173,443,cs),
(173,333,o),
(157,254,o),
(110,179,c),
(259,151,l),
(259,152,o)
);
}
);
width = 638;
},
{
anchors = (
{
name = bottom;
pos = (265,0);
},
{
name = center;
pos = (338,387);
},
{
name = top;
pos = (300,710);
},
{
name = topright;
pos = (441,720);
}
);
layerId = "CDFC0212-EC7A-4000-86F8-EA19B9E6D7F9";
name = Regular;
shapes = (
{
closed = 1;
nodes = (
(560,-7,o),
(596,58,o),
(596,118,cs),
(596,154,o),
(583,189,o),
(557,206,c),
(521,163,o),
(480,150,o),
(436,150,cs),
(379,150,o),
(318,172,o),
(260,186,c),
(309,312,o),
(361,524,o),
(361,619,cs),
(361,695,o),
(328,725,o),
(283,725,cs),
(242,725,o),
(200,700,o),
(184,657,c),
(185,654,l),
(192,642,o),
(194,635,o),
(194,608,cs),
(194,507,o),
(167,339,o),
(129,223,c),
(117,226,o),
(106,227,o),
(97,227,cs),
(29,227,o),
(-2,170,o),
(-2,113,cs),
(-2,56,o),
(29,-2,o),
(87,-2,cs),
(118,-2,o),
(157,14,o),
(203,57,c),
(301,42,o),
(406,-7,o),
(478,-7,cs)
);
}
);
width = 624;
},
{
associatedMasterId = "CDFC0212-EC7A-4000-86F8-EA19B9E6D7F9";
layerId = "DF2FDBE0-C12C-4EA3-AA67-40761B278535";
name = "Jun 8, 23, 11:36";
shapes = (
{
closed = 1;
nodes = (
(226,153,l),
(278.347,261.423,o),
(346,501,o),
(348,614,cs),
(350,693,o),
(306,725,o),
(260,725,cs),
(219,725,o),
(177,700,o),
(161,657,c),
(162,654,l),
(170,640,o),
(172,632,o),
(171,584,cs),
(169,475,o),
(130,284,o),
(85,179,c)
);
},
{
closed = 1;
nodes = (
(145.078,75,l),
(251.973,69,o),
(384,-6,o),
(463,-6,cs),
(598,-6,o),
(611,163,o),
(544,207,c),
(447,91,o),
(293.4,201,o),
(176.4,211,c)
);
},
{
closed = 1;
nodes = (
(218.688,178,l),
(-134.499,443,o),
(-78.333,-235,o),
(220.758,114,c)
);
}
);
width = 600;
},
{
anchors = (
{
name = bottom;
pos = (290,0);
},
{
name = center;
pos = (322,360);
},
{
name = top;
pos = (323,720);
},
{
name = topright;
pos = (474,720);
}
);
associatedMasterId = "CDFC0212-EC7A-4000-86F8-EA19B9E6D7F9";
layerId = "33E5F3BF-4300-4716-8070-7037F6A56D68";
name = "Aug 6, 23, 20:50";
shapes = (
{
closed = 1;
nodes = (
(110,165,l),
(155,270,o),
(194,475,o),
(196,584,cs),
(197,632,o),
(195,640,o),
(187,654,c),
(186,657,l),
(202,700,o),
(244,725,o),
(285,725,cs),
(331,725,o),
(365,693,o),
(363,614,cs),
(361,501,o),
(294,247,o),
(241,139,c)
);
},
{
closed = 1;
nodes = (
(-53,-249,o),
(-109,429,o),
(244,164,c),
(246,100,l)
);
},
{
closed = 1;
nodes = (
(399,-7,o),
(277,55,o),
(170,61,c),
(202,197,l),
(319,187,o),
(462,90,o),
(559,206,c),
(626,162,o),
(613,-7,o),
(478,-7,cs)
);
}
);
width = 623;
},
{
anchors = (
{
name = bottom;
pos = (270,0);
},
{
name = center;
pos = (321,355);
},
{
name = top;
pos = (302,710);
},
{
name = topright;
pos = (643,710);
}
);
associatedMasterId = "CDFC0212-EC7A-4000-86F8-EA19B9E6D7F9";
layerId = "F85C611F-302C-4404-B4C1-2BFE52161003";
name = "Aug 29, 23, 12:45";
shapes = (
{
closed = 1;
nodes = (
(613,-7,o),
(626,162,o),
(559,206,c),
(478,109,o),
(365,161,o),
(262,186,c),
(310,309,o),
(361,515,o),
(363,614,cs),
(365,693,o),
(331,725,o),
(285,725,cs),
(244,725,o),
(202,700,o),
(186,657,c),
(187,654,l),
(195,640,o),
(197,632,o),
(196,584,cs),
(194,493,o),
(167,334,o),
(131,223,c),
(-79,274,o),
(-23,-155,o),
(205,57,c),
(303,42,o),
(408,-7,o),
(478,-7,cs)
);
}
);
width = 623;
}
);
unicode = 76;
userData = {
KernOnName = L;
};
},
{
glyphname = Lbar;
lastChange = "2023-09-26 21:23:03 +0000";
layers = (
{
layerId = "CDFC0212-EC7A-4000-86F8-EA19B9E6D7F9";
shapes = (
{
ref = L;
},
{
closed = 1;
nodes = (
(30,402,o),
(42,341,o),
(115,336,cs),
(180,331,o),
(300,329,o),
(346,329,cs),
(450,329,o),
(450,398,o),
(419,433,c),
(329,419,o),
(211,418,o),
(71,433,c)
);
}
);
width = 618;
}
);
unicode = 573;
},
{
glyphname = Ldot;
lastChange = "2023-09-14 18:51:39 +0000";
layers = (
{
layerId = "CDFC0212-EC7A-4000-86F8-EA19B9E6D7F9";
shapes = (
{
ref = L;
},
{
closed = 1;
nodes = (
(503,297,o),
(546,341,o),
(550,397,cs),
(552,446,o),
(519,484,o),
(472,484,cs),
(422,484,o),
(379,439,o),
(375,384,cs),
(372,334,o),
(406,297,o),
(452,297,cs)
);
}
);
width = 615;
},
{
associatedMasterId = "CDFC0212-EC7A-4000-86F8-EA19B9E6D7F9";
layerId = "5BB1EC99-E046-4160-8970-D69D8468A8B6";
name = "Sep 14, 23, 14:41";
shapes = (
{
ref = L;
},
{
pos = (344,143);
ref = periodcentered;
}
);
width = 618;
}
);
unicode = 319;
},
{
color = 10;
glyphname = Lslash;
lastChange = "2023-10-03 15:07:44 +0000";
layers = (
{
associatedMasterId = "CDFC0212-EC7A-4000-86F8-EA19B9E6D7F9";
layerId = "90F23480-B75F-4699-9B3F-8C7E59B22153";
name = "Aug 2, 23, 14:39";
shapes = (
{
locked = 1;
ref = L;
},
{
closed = 1;
nodes = (
(258,369,l),
(325,400,o),
(392,437,o),
(454,477,cs),
(484,496,o),
(484,605,o),
(456,606,c),
(383,559,o),
(311,519,o),
(232,481,c)
);
},
{
closed = 1;
nodes = (
(237,480,l),
(175,449,o),
(106,422,o),
(28,391,c),
(14,352,o),
(32,280,o),
(72,293,cs),
(134,311,o),
(199,338,o),
(264,368,c)
);
}
);
width = 623;
},
{
anchors = (
{
name = bottom;
pos = (265,0);
},
{
name = center;
pos = (338,387);
},
{
name = top;
pos = (300,710);
},
{
name = topright;
pos = (441,710);
}
);
layerId = "CDFC0212-EC7A-4000-86F8-EA19B9E6D7F9";
name = Regular;
shapes = (
{
closed = 1;
nodes = (
(560,-7,o),
(596,58,o),
(596,118,cs),
(596,154,o),
(583,189,o),
(557,206,c),
(521,163,o),
(480,150,o),
(436,150,cs),
(379,150,o),
(318,172,o),
(260,186,c),
(309,312,o),
(361,524,o),
(361,619,cs),
(361,695,o),
(328,725,o),
(283,725,cs),
(242,725,o),
(200,700,o),
(184,657,c),
(185,654,l),
(192,642,o),
(194,635,o),
(194,608,cs),
(194,507,o),
(167,339,o),
(129,223,c),
(117,226,o),
(106,227,o),
(97,227,cs),
(29,227,o),
(-2,170,o),
(-2,113,cs),
(-2,56,o),
(29,-2,o),
(87,-2,cs),
(118,-2,o),
(157,14,o),
(203,57,c),
(301,42,o),
(406,-7,o),
(478,-7,cs)
);
},
{
closed = 1;
nodes = (
(82,292,o),
(96,301,o),
(113,309,cs),
(190,344,o),
(285,331,o),
(366,350,cs),
(458,366,o),
(486,417,o),
(471,474,cs),
(467,490,o),
(460,505,o),
(450,520,c),
(426,497,o),
(398,485,o),
(368,476,cs),
(294,454,o),
(220,472,o),
(139,449,cs),
(66,430,o),
(41,373,o),
(57,314,cs),
(60,304,o),
(64,293,o),
(69,282,c)
);
}
);
width = 623;
},
{
associatedMasterId = "CDFC0212-EC7A-4000-86F8-EA19B9E6D7F9";
layerId = "DD551081-B2A0-4343-9C95-DEDE99A83923";
name = "Oct 1, 23, 18:49";
shapes = (
{
closed = 1;
nodes = (
(469,295,o),
(505,364,o),
(479,448,c),
(385,397,o),
(279,451,o),
(176,460,cs),
(91,468,o),
(30,414,o),
(49,316,c),
(141,362,o),
(222,315,o),
(355,305,cs)
);
},
{
locked = 1;
ref = L;
}
);
width = 623;
}
);
unicode = 321;
},
